<!DOCTYPE svg PUBLIC "-//W3C//DTD SVG 1.1//EN" "http://www.w3.org/Graphics/SVG/1.1/DTD/svg11.dtd">
<svg xmlns="http://www.w3.org/2000/svg" version="1.1" width="42.0mm" height="16.25mm" viewBox="-141.0 99.0 42.0 16.25">
            <title>Picture generated by PcbDraw </title>
            <desc>Picture generated by PcbDraw</desc>
        <defs><clipPath id="cut-off"><path d=" M 100.0 100.0 L 140.0 100.0 L 140.0 114.25 L 100.0 114.25 L 100.0 100.0 " style="fill-rule: evenodd;"/></clipPath><mask id="pads-mask"><g style="fill:#ffffff; fill-opacity:0.0;  stroke:#ffffff; stroke-width:0.00000; stroke-opacity:1;  stroke-linecap:round; stroke-linejoin:round;">
<g style="fill:#ffffff; fill-opacity:1.00000;  stroke:#ffffff; stroke-width:0.00000; stroke-opacity:1;  stroke-linecap:round; stroke-linejoin:round;">
<path style="fill:#ffffff; fill-opacity:1.00000;  stroke:#ffffff; stroke-width:0.00000; stroke-opacity:1;  stroke-linecap:round; stroke-linejoin:round;fill-rule:evenodd;" d="M 114.10000,113.23000 114.10000,111.53000 115.80000,111.53000 115.80000,113.23000 Z"/> 
<circle cx="114.95000" cy="109.84000" r="0.85000"/> 
<circle cx="114.95000" cy="107.30000" r="0.85000"/> 
<circle cx="114.95000" cy="104.76000" r="0.85000"/> 
<circle cx="114.95000" cy="102.22000" r="0.85000"/> 
</g>
<g style="fill:#ffffff; fill-opacity:1.00000;  stroke:#ffffff; stroke-width:0.00000; stroke-opacity:1;  stroke-linecap:round; stroke-linejoin:round;">
<path style="fill:#ffffff; fill-opacity:1.00000;  stroke:#ffffff; stroke-width:0.00000; stroke-opacity:1;  stroke-linecap:round; stroke-linejoin:round;fill-rule:evenodd;" d="M 125.80000,101.37000 125.80000,103.07000 124.10000,103.07000 124.10000,101.37000 Z"/> 
<circle cx="124.95000" cy="104.76000" r="0.85000"/> 
<circle cx="124.95000" cy="107.30000" r="0.85000"/> 
<circle cx="124.95000" cy="109.84000" r="0.85000"/> 
<circle cx="124.95000" cy="112.38000" r="0.85000"/> 
</g>
</g> 
</mask><mask id="pads-mask-silkscreen"><rect x="98.4625" y="92.9125" width="51.034525" height="22.485" fill="white"/><g style="fill:#000000; fill-opacity:0.0;  stroke:#000000; stroke-width:0.00000; stroke-opacity:1;  stroke-linecap:round; stroke-linejoin:round;">
<g style="fill:#000000; fill-opacity:1.00000;  stroke:#000000; stroke-width:0.00000; stroke-opacity:1;  stroke-linecap:round; stroke-linejoin:round;">
<path style="fill:#000000; fill-opacity:1.00000;  stroke:#000000; stroke-width:0.00000; stroke-opacity:1;  stroke-linecap:round; stroke-linejoin:round;fill-rule:evenodd;" d="M 114.10000,113.23000 114.10000,111.53000 115.80000,111.53000 115.80000,113.23000 Z"/> 
<circle cx="114.95000" cy="109.84000" r="0.85000"/> 
<circle cx="114.95000" cy="107.30000" r="0.85000"/> 
<circle cx="114.95000" cy="104.76000" r="0.85000"/> 
<circle cx="114.95000" cy="102.22000" r="0.85000"/> 
</g>
<g style="fill:#000000; fill-opacity:1.00000;  stroke:#000000; stroke-width:0.00000; stroke-opacity:1;  stroke-linecap:round; stroke-linejoin:round;">
<path style="fill:#000000; fill-opacity:1.00000;  stroke:#000000; stroke-width:0.00000; stroke-opacity:1;  stroke-linecap:round; stroke-linejoin:round;fill-rule:evenodd;" d="M 125.80000,101.37000 125.80000,103.07000 124.10000,103.07000 124.10000,101.37000 Z"/> 
<circle cx="124.95000" cy="104.76000" r="0.85000"/> 
<circle cx="124.95000" cy="107.30000" r="0.85000"/> 
<circle cx="124.95000" cy="109.84000" r="0.85000"/> 
<circle cx="124.95000" cy="112.38000" r="0.85000"/> 
</g>
</g> 
</mask><mask id="hole-mask"><g><rect x="98.4625" y="92.9125" fill="white" width="51.034525" height="22.485"/><polyline stroke-linecap="round" stroke="black" stroke-width="1.0" points="-0.0 0 0.0 0" transform="translate(114.95 112.38) rotate(-0.0)"/><polyline stroke-linecap="round" stroke="black" stroke-width="1.0" points="-0.0 0 0.0 0" transform="translate(114.95 109.84) rotate(-0.0)"/><polyline stroke-linecap="round" stroke="black" stroke-width="1.0" points="-0.0 0 0.0 0" transform="translate(114.95 107.3) rotate(-0.0)"/><polyline stroke-linecap="round" stroke="black" stroke-width="1.0" points="-0.0 0 0.0 0" transform="translate(114.95 104.76) rotate(-0.0)"/><polyline stroke-linecap="round" stroke="black" stroke-width="1.0" points="-0.0 0 0.0 0" transform="translate(114.95 102.22) rotate(-0.0)"/><polyline stroke-linecap="round" stroke="black" stroke-width="1.0" points="-0.0 0 0.0 0" transform="translate(124.95 102.22) rotate(-180.0)"/><polyline stroke-linecap="round" stroke="black" stroke-width="1.0" points="-0.0 0 0.0 0" transform="translate(124.95 104.76) rotate(-180.0)"/><polyline stroke-linecap="round" stroke="black" stroke-width="1.0" points="-0.0 0 0.0 0" transform="translate(124.95 107.3) rotate(-180.0)"/><polyline stroke-linecap="round" stroke="black" stroke-width="1.0" points="-0.0 0 0.0 0" transform="translate(124.95 109.84) rotate(-180.0)"/><polyline stroke-linecap="round" stroke="black" stroke-width="1.0" points="-0.0 0 0.0 0" transform="translate(124.95 112.38) rotate(-180.0)"/></g></mask></defs><g transform="scale(-1,1)" id="boardContainer"><g id="substrate" clip-path="url(#cut-off)" mask="url(#hole-mask)"><g id="substrate-board" style="fill:#1b1f44; stroke:#1b1f44;"><path d=" M 100.0 100.0 L 140.0 100.0 L 140.0 114.25 L 100.0 114.25 L 100.0 100.0 " style="fill-rule: evenodd;"/><g style="fill-opacity: 0.0;stroke-width: 0.05000;stroke-opacity: 1;stroke-linecap: round;stroke-linejoin: round">
<path d="M100.00000 114.25000 L100.00000 100.00000 "/>
<path d="M140.00000 100.00000 L140.00000 114.25000 "/>
<path d="M100.00000 114.25000 L140.00000 114.25000 "/>
<path d="M100.00000 100.00000 L140.00000 100.00000 "/>
</g> 
</g><g id="substrate-clad" style="fill:#72786c; stroke:#72786c;"><g style="fill-opacity: 0.0;stroke-width: 0.00000;stroke-opacity: 1;stroke-linecap: round;stroke-linejoin: round">
<g style="fill-opacity: 1.00000;stroke-width: 0.00000;stroke-opacity: 1;stroke-linecap: round;stroke-linejoin: round">
<path style="fill-opacity: 1.00000;stroke-width: 0.00000;stroke-opacity: 1;stroke-linecap: round;stroke-linejoin: round;fill-rule: evenodd" d="M 114.10000,113.23000 114.10000,111.53000 115.80000,111.53000 115.80000,113.23000 Z"/> 
<circle cx="114.95000" cy="109.84000" r="0.85000"/> 
<circle cx="114.95000" cy="107.30000" r="0.85000"/> 
<circle cx="114.95000" cy="104.76000" r="0.85000"/> 
<circle cx="114.95000" cy="102.22000" r="0.85000"/> 
</g>
<g style="fill-opacity: 1.00000;stroke-width: 0.00000;stroke-opacity: 1;stroke-linecap: round;stroke-linejoin: round">
<path style="fill-opacity: 1.00000;stroke-width: 0.00000;stroke-opacity: 1;stroke-linecap: round;stroke-linejoin: round;fill-rule: evenodd" d="M 125.80000,101.37000 125.80000,103.07000 124.10000,103.07000 124.10000,101.37000 Z"/> 
<circle cx="124.95000" cy="104.76000" r="0.85000"/> 
<circle cx="124.95000" cy="107.30000" r="0.85000"/> 
<circle cx="124.95000" cy="109.84000" r="0.85000"/> 
<circle cx="124.95000" cy="112.38000" r="0.85000"/> 
</g>
</g> 
</g><g id="substrate-copper" style="fill:#00406a; stroke:#00406a;"><g style="fill-opacity: 0.0;stroke-width: 0.00000;stroke-opacity: 1;stroke-linecap: round;stroke-linejoin: round">
<g style="fill-opacity: 1.00000;stroke-width: 0.00000;stroke-opacity: 1;stroke-linecap: round;stroke-linejoin: round">
<path style="fill-opacity: 1.00000;stroke-width: 0.00000;stroke-opacity: 1;stroke-linecap: round;stroke-linejoin: round;fill-rule: evenodd" d="M 114.10000,113.23000 114.10000,111.53000 115.80000,111.53000 115.80000,113.23000 Z"/> 
<circle cx="114.95000" cy="109.84000" r="0.85000"/> 
<circle cx="114.95000" cy="107.30000" r="0.85000"/> 
<circle cx="114.95000" cy="104.76000" r="0.85000"/> 
<circle cx="114.95000" cy="102.22000" r="0.85000"/> 
</g>
<g style="fill-opacity: 1.00000;stroke-width: 0.00000;stroke-opacity: 1;stroke-linecap: round;stroke-linejoin: round">
<path style="fill-opacity: 1.00000;stroke-width: 0.00000;stroke-opacity: 1;stroke-linecap: round;stroke-linejoin: round;fill-rule: evenodd" d="M 125.80000,101.37000 125.80000,103.07000 124.10000,103.07000 124.10000,101.37000 Z"/> 
<circle cx="124.95000" cy="104.76000" r="0.85000"/> 
<circle cx="124.95000" cy="107.30000" r="0.85000"/> 
<circle cx="124.95000" cy="109.84000" r="0.85000"/> 
<circle cx="124.95000" cy="112.38000" r="0.85000"/> 
</g>
<g style="fill-opacity: 0.0;stroke-width: 0.50800;stroke-opacity: 1;stroke-linecap: round;stroke-linejoin: round">
<path d="M116.20640 113.63640 L125.55307 113.63640 "/>
<path d="M126.20640 103.47640 L124.95000 102.22000 "/>
<path d="M114.95000 112.38000 L116.20640 113.63640 "/>
<path d="M125.55307 113.63640 L126.20640 112.98307 "/>
<path d="M126.20640 112.98307 L126.20640 103.47640 "/>
<path d="M124.95000 112.22000 L124.95000 112.38000 "/>
</g>
<g style="fill-opacity: 0.0;stroke-width: 1.27000;stroke-opacity: 1;stroke-linecap: round;stroke-linejoin: round">
<path d="M120.00000 110.00000 L122.38000 112.38000 "/>
<path d="M122.38000 112.38000 L124.95000 112.38000 "/>
<path d="M114.95000 102.22000 L117.72000 102.22000 "/>
<path d="M117.72000 102.22000 L120.00000 104.50000 "/>
<path d="M120.00000 104.50000 L120.00000 110.00000 "/>
</g>
<g style="fill-opacity: 0.0;stroke-width: 1.27000;stroke-opacity: 1;stroke-linecap: round;stroke-linejoin: round">
<g style="fill-opacity: 1.00000;stroke-width: 0.00000;stroke-opacity: 1;stroke-linecap: round;stroke-linejoin: round">
<path style="fill-opacity: 1.00000;stroke-width: 0.00000;stroke-opacity: 1;stroke-linecap: round;stroke-linejoin: round;fill-rule: evenodd" d="M 139.43412,100.52800 139.48061,100.58166 139.49200,100.63400 139.49200,113.61600 139.47200,113.68412 139.41834,113.73061 139.36600,113.74200 125.77370,113.74200 125.70558,113.72200 125.65909,113.66834 125.64898,113.59807 125.67848,113.53349 125.70053,113.51342 125.72036,113.49928 125.82986,113.42117 125.98810,113.26349 126.02180,113.21659 126.11543,113.08628 126.11845,113.08208 126.21743,112.88181 126.28237,112.66807 126.31153,112.44659 126.31316,112.38000 126.29485,112.15736 126.24043,111.94070 126.15135,111.73584 126.03001,111.54828 125.87967,111.38305 125.87562,111.37985 125.87561,111.37985 125.70841,111.24780 125.70841,111.24780 125.70436,111.24460 125.66305,111.22180 125.61308,111.17136 125.59831,111.10192 125.62343,111.03552 125.65078,111.00891 125.69460,110.97765 125.82986,110.88117 125.98810,110.72349 126.04759,110.64069 126.11543,110.54628 126.11845,110.54208 126.18571,110.40599 126.21514,110.34645 126.21514,110.34645 126.21743,110.34181 126.28237,110.12807 126.31153,109.90659 126.31316,109.84000 126.29485,109.61736 126.24043,109.40070 126.15135,109.19584 126.03001,109.00828 125.87967,108.84305 125.87562,108.83985 125.87561,108.83985 125.70841,108.70780 125.70841,108.70780 125.70436,108.70460 125.66305,108.68180 125.61308,108.63136 125.59831,108.56192 125.62343,108.49552 125.65078,108.46891 125.69460,108.43765 125.82986,108.34117 125.98810,108.18349 126.04759,108.10069 126.11543,108.00628 126.11845,108.00208 126.21743,107.80181 126.28237,107.58807 126.31153,107.36659 126.31316,107.30000 126.29485,107.07736 126.24043,106.86070 126.15135,106.65584 126.03001,106.46828 125.87967,106.30305 125.87562,106.29985 125.87561,106.29985 125.70841,106.16780 125.70841,106.16780 125.70436,106.16460 125.66305,106.14180 125.61308,106.09136 125.59831,106.02192 125.62343,105.95552 125.65078,105.92891 125.69460,105.89765 125.82986,105.80117 125.98810,105.64349 126.04759,105.56069 126.11543,105.46628 126.11845,105.46208 126.21743,105.26181 126.28237,105.04807 126.31153,104.82659 126.31316,104.76000 126.29485,104.53736 126.24043,104.32070 126.15135,104.11584 126.03001,103.92828 125.87967,103.76305 125.87562,103.75985 125.87561,103.75985 125.70841,103.62780 125.70841,103.62780 125.70436,103.62460 125.50879,103.51664 125.50392,103.51491 125.50392,103.51491 125.30309,103.44379 125.30308,103.44379 125.29821,103.44207 125.29312,103.44116 125.29312,103.44116 125.08337,103.40380 125.08337,103.40380 125.07828,103.40289 125.00445,103.40199 124.86008,103.40023 124.86008,103.40023 124.85491,103.40017 124.63409,103.43395 124.42176,103.50336 124.22361,103.60651 124.21947,103.60961 124.21947,103.60961 124.05704,103.73157 124.04496,103.74063 123.89063,103.90214 123.76474,104.08668 123.74900,104.12059 123.68372,104.26123 123.67069,104.28930 123.61099,104.50457 123.58725,104.72669 123.58755,104.73185 123.58755,104.73185 123.59301,104.82659 123.60011,104.94971 123.60125,104.95476 123.60125,104.95477 123.61727,105.02584 123.64922,105.16764 123.73327,105.37462 123.84999,105.56509 123.99625,105.73394 124.16813,105.87663 124.23859,105.91781 124.24144,105.91948 124.29017,105.97111 124.30324,106.04090 124.27651,106.10667 124.23605,106.14003 124.22361,106.14651 124.21947,106.14961 124.21947,106.14961 124.19525,106.16780 124.04496,106.28063 123.89063,106.44214 123.76474,106.62668 123.67069,106.82930 123.61099,107.04457 123.58725,107.26669 123.58755,107.27185 123.58755,107.27185 123.59301,107.36659 123.60011,107.48971 123.60125,107.49476 123.60125,107.49477 123.62112,107.58294 123.64922,107.70764 123.73327,107.91462 123.84999,108.10509 123.99625,108.27394 124.16813,108.41663 124.23859,108.45781 124.24144,108.45948 124.29017,108.51111 124.30324,108.58090 124.27651,108.64667 124.23605,108.68003 124.22361,108.68651 124.21947,108.68961 124.21947,108.68961 124.19525,108.70780 124.04496,108.82063 123.89063,108.98214 123.76474,109.16668 123.67069,109.36930 123.61099,109.58457 123.58725,109.80669 123.58755,109.81185 123.58755,109.81185 123.59617,109.96132 123.60011,110.02971 123.60125,110.03476 123.60125,110.03477 123.61999,110.11793 123.64922,110.24764 123.73327,110.45462 123.84999,110.64509 123.99625,110.81394 124.16813,110.95663 124.23859,110.99781 124.24144,110.99948 124.29017,111.05111 124.30324,111.12090 124.27651,111.18667 124.23606,111.22002 124.23176,111.22226 124.17358,111.23650 122.90584,111.23650 122.83772,111.21650 122.81675,111.19959 121.18040,109.56325 121.14638,109.50094 121.14350,109.47416 121.14350,104.54281 121.14377,104.53456 121.14763,104.47570 121.14801,104.46994 121.13760,104.38204 121.13726,104.37877 121.13192,104.32070 121.12917,104.29072 121.12760,104.28515 121.12691,104.28146 121.12476,104.27061 121.12398,104.26697 121.12330,104.26123 121.09707,104.17674 121.09614,104.17361 121.07369,104.09402 121.07212,104.08845 121.06956,104.08326 121.06824,104.07981 121.06410,104.06943 121.06270,104.06605 121.06098,104.06053 121.01980,103.98225 121.01830,103.97932 120.99125,103.92446 120.97917,103.89996 120.97571,103.89533 120.97375,103.89213 120.96783,103.88274 120.96582,103.87965 120.96313,103.87454 120.90834,103.80504 120.90637,103.80247 120.85688,103.73620 120.85688,103.73619 120.85343,103.73157 120.79303,103.67574 120.78946,103.67231 118.55885,101.44170 118.55321,101.43568 118.51432,101.39133 118.51051,101.38698 118.44102,101.33220 118.43845,101.33012 118.37490,101.27727 118.37489,101.27726 118.37046,101.27357 118.36543,101.27075 118.36242,101.26869 118.35315,101.26249 118.35000,101.26045 118.34546,101.25687 118.34035,101.25418 118.34035,101.25418 118.26718,101.21569 118.26428,101.21411 118.19214,101.17371 118.19214,101.17371 118.18710,101.17088 118.18162,101.16903 118.17822,101.16751 118.16801,101.16313 118.16458,101.16170 118.15947,101.15902 118.15396,101.15731 118.15396,101.15730 118.07500,101.13279 118.07186,101.13177 118.01872,101.11373 117.98809,101.10333 117.98237,101.10250 117.97886,101.10166 117.96785,101.09917 117.96428,101.09841 117.95877,101.09670 117.95304,101.09602 117.95303,101.09602 117.90063,101.08982 117.87088,101.08629 117.86766,101.08587 117.78010,101.07317 117.69795,101.07640 117.69300,101.07650 115.72216,101.07650 115.66127,101.06081 115.51332,100.97914 115.51332,100.97914 115.50879,100.97664 115.50392,100.97491 115.50392,100.97491 115.30309,100.90380 115.30308,100.90379 115.29821,100.90207 115.29312,100.90116 115.29312,100.90116 115.08337,100.86380 115.08337,100.86380 115.07828,100.86289 115.00445,100.86199 114.86008,100.86023 114.86008,100.86023 114.85491,100.86016 114.63409,100.89395 114.42176,100.96336 114.22361,101.06651 114.21947,101.06961 114.21947,101.06961 114.09492,101.16313 114.04496,101.20063 114.04139,101.20437 113.91924,101.33220 113.89063,101.36214 113.76474,101.54668 113.67069,101.74930 113.61099,101.96457 113.58725,102.18670 113.60011,102.40971 113.60125,102.41476 113.60125,102.41477 113.62530,102.52151 113.64922,102.62764 113.73327,102.83462 113.84999,103.02509 113.99625,103.19394 114.16813,103.33663 114.21410,103.36350 114.24144,103.37948 114.29017,103.43111 114.30324,103.50090 114.27651,103.56667 114.23605,103.60003 114.22361,103.60651 114.21947,103.60961 114.21947,103.60961 114.05704,103.73157 114.04496,103.74063 113.89063,103.90214 113.76474,104.08668 113.74900,104.12059 113.68372,104.26123 113.67069,104.28930 113.61099,104.50457 113.58725,104.72669 113.58755,104.73185 113.58755,104.73185 113.59301,104.82659 113.60011,104.94971 113.60125,104.95476 113.60125,104.95477 113.61727,105.02584 113.64922,105.16764 113.73327,105.37462 113.84999,105.56509 113.99625,105.73394 114.16813,105.87663 114.23859,105.91781 114.24144,105.91948 114.29017,105.97111 114.30324,106.04090 114.27651,106.10667 114.23605,106.14003 114.22361,106.14651 114.21947,106.14961 114.21947,106.14961 114.19525,106.16780 114.04496,106.28063 113.89063,106.44214 113.76474,106.62668 113.67069,106.82930 113.61099,107.04457 113.58725,107.26669 113.58755,107.27185 113.58755,107.27185 113.59301,107.36659 113.60011,107.48971 113.60125,107.49476 113.60125,107.49477 113.62112,107.58294 113.64922,107.70764 113.73327,107.91462 113.84999,108.10509 113.99625,108.27394 114.16813,108.41663 114.23859,108.45781 114.24144,108.45948 114.29017,108.51111 114.30324,108.58090 114.27651,108.64667 114.23605,108.68003 114.22361,108.68651 114.21947,108.68961 114.21947,108.68961 114.19525,108.70780 114.04496,108.82063 113.89063,108.98214 113.76474,109.16668 113.67069,109.36930 113.61099,109.58457 113.58725,109.80669 113.58755,109.81185 113.58755,109.81185 113.59617,109.96132 113.60011,110.02971 113.60125,110.03476 113.60125,110.03477 113.61999,110.11793 113.64922,110.24764 113.73327,110.45462 113.84999,110.64509 113.99625,110.81394 114.16813,110.95663 114.36100,111.06934 114.56969,111.14903 114.57476,111.15006 114.57476,111.15006 114.67947,111.17136 114.78860,111.19357 114.79377,111.19376 114.79377,111.19376 115.00667,111.20156 115.00668,111.20156 115.01184,111.20175 115.01696,111.20110 115.01696,111.20110 115.22829,111.17403 115.22829,111.17403 115.23342,111.17337 115.24010,111.17136 115.44243,111.11066 115.44243,111.11066 115.44738,111.10917 115.64799,111.01090 115.82986,110.88117 115.98810,110.72349 116.04759,110.64069 116.11543,110.54628 116.11845,110.54208 116.18571,110.40599 116.21514,110.34645 116.21514,110.34645 116.21743,110.34181 116.28237,110.12807 116.31153,109.90659 116.31316,109.84000 116.29485,109.61736 116.24043,109.40070 116.15135,109.19584 116.03001,109.00828 115.87967,108.84305 115.87562,108.83985 115.87561,108.83985 115.70841,108.70780 115.70841,108.70780 115.70436,108.70460 115.66305,108.68180 115.61308,108.63136 115.59831,108.56192 115.62343,108.49552 115.65078,108.46891 115.69460,108.43765 115.82986,108.34117 115.98810,108.18349 116.04759,108.10069 116.11543,108.00628 116.11845,108.00208 116.21743,107.80181 116.28237,107.58807 116.31153,107.36659 116.31316,107.30000 116.29485,107.07736 116.24043,106.86070 116.15135,106.65584 116.03001,106.46828 115.87967,106.30305 115.87562,106.29985 115.87561,106.29985 115.70841,106.16780 115.70841,106.16780 115.70436,106.16460 115.66305,106.14180 115.61308,106.09136 115.59831,106.02192 115.62343,105.95552 115.65078,105.92891 115.69460,105.89765 115.82986,105.80117 115.98810,105.64349 116.04759,105.56069 116.11543,105.46628 116.11845,105.46208 116.21743,105.26181 116.28237,105.04807 116.31153,104.82659 116.31316,104.76000 116.29485,104.53736 116.24043,104.32070 116.15135,104.11584 116.03001,103.92828 115.87967,103.76305 115.87562,103.75985 115.87561,103.75985 115.70841,103.62780 115.70841,103.62780 115.70436,103.62460 115.66305,103.60180 115.61308,103.55136 115.59831,103.48192 115.62343,103.41552 115.65078,103.38891 115.65357,103.38692 115.72673,103.36350 117.19416,103.36350 117.26228,103.38350 117.28325,103.40040 118.81959,104.93675 118.85362,104.99906 118.85650,105.02584 118.85650,109.95719 118.85623,109.96544 118.85199,110.03006 118.86240,110.11797 118.86274,110.12119 118.87083,110.20928 118.87240,110.21484 118.87306,110.21841 118.87525,110.22941 118.87602,110.23303 118.87670,110.23877 118.90294,110.32328 118.90385,110.32637 118.92788,110.41155 118.93043,110.41674 118.93176,110.42019 118.93590,110.43057 118.93730,110.43395 118.93902,110.43947 118.94171,110.44459 118.94171,110.44459 118.98020,110.51774 118.98169,110.52068 119.02083,110.60004 119.02429,110.60467 119.02625,110.60787 119.03217,110.61726 119.03418,110.62035 119.03687,110.62546 119.09166,110.69496 119.09363,110.69753 119.14312,110.76380 119.14312,110.76381 119.14657,110.76843 119.15081,110.77234 119.15081,110.77235 119.20697,110.82426 119.21054,110.82769 121.54116,113.15831 121.54679,113.16433 121.58949,113.21302 121.59402,113.21659 121.65896,113.26778 121.66153,113.26986 121.72954,113.32643 121.73458,113.32925 121.73763,113.33135 121.74692,113.33755 121.75001,113.33955 121.75454,113.34313 121.75964,113.34581 121.75964,113.34582 121.83283,113.38432 121.83573,113.38589 121.90408,113.42417 121.91290,113.42911 121.91838,113.43097 121.92177,113.43248 121.93203,113.43689 121.93541,113.43829 121.94053,113.44098 121.94604,113.44269 121.94604,113.44269 122.02504,113.46722 122.02818,113.46824 122.11191,113.49667 122.11102,113.49928 122.16251,113.52887 122.19516,113.59191 122.18856,113.66260 122.14478,113.71849 122.07149,113.74200 100.63400,113.74200 100.56588,113.72200 100.51939,113.66834 100.50800,113.61600 100.50800,100.63400 100.52800,100.56588 100.58166,100.51939 100.63400,100.50800 139.36600,100.50800 Z"/> 
</g>
</g>
</g> 
</g><g id="substrate-pads" style="fill:#d39751; stroke:#d39751;" mask="url(#pads-mask)"><g style="fill-opacity: 0.0;stroke-width: 0.00000;stroke-opacity: 1;stroke-linecap: round;stroke-linejoin: round">
<g style="fill-opacity: 1.00000;stroke-width: 0.00000;stroke-opacity: 1;stroke-linecap: round;stroke-linejoin: round">
<path style="fill-opacity: 1.00000;stroke-width: 0.00000;stroke-opacity: 1;stroke-linecap: round;stroke-linejoin: round;fill-rule: evenodd" d="M 114.10000,113.23000 114.10000,111.53000 115.80000,111.53000 115.80000,113.23000 Z"/> 
<circle cx="114.95000" cy="109.84000" r="0.85000"/> 
<circle cx="114.95000" cy="107.30000" r="0.85000"/> 
<circle cx="114.95000" cy="104.76000" r="0.85000"/> 
<circle cx="114.95000" cy="102.22000" r="0.85000"/> 
</g>
<g style="fill-opacity: 1.00000;stroke-width: 0.00000;stroke-opacity: 1;stroke-linecap: round;stroke-linejoin: round">
<path style="fill-opacity: 1.00000;stroke-width: 0.00000;stroke-opacity: 1;stroke-linecap: round;stroke-linejoin: round;fill-rule: evenodd" d="M 125.80000,101.37000 125.80000,103.07000 124.10000,103.07000 124.10000,101.37000 Z"/> 
<circle cx="124.95000" cy="104.76000" r="0.85000"/> 
<circle cx="124.95000" cy="107.30000" r="0.85000"/> 
<circle cx="124.95000" cy="109.84000" r="0.85000"/> 
<circle cx="124.95000" cy="112.38000" r="0.85000"/> 
</g>
<g style="fill-opacity: 0.0;stroke-width: 0.50800;stroke-opacity: 1;stroke-linecap: round;stroke-linejoin: round">
<path d="M116.20640 113.63640 L125.55307 113.63640 "/>
<path d="M126.20640 103.47640 L124.95000 102.22000 "/>
<path d="M114.95000 112.38000 L116.20640 113.63640 "/>
<path d="M125.55307 113.63640 L126.20640 112.98307 "/>
<path d="M126.20640 112.98307 L126.20640 103.47640 "/>
<path d="M124.95000 112.22000 L124.95000 112.38000 "/>
</g>
<g style="fill-opacity: 0.0;stroke-width: 1.27000;stroke-opacity: 1;stroke-linecap: round;stroke-linejoin: round">
<path d="M120.00000 110.00000 L122.38000 112.38000 "/>
<path d="M122.38000 112.38000 L124.95000 112.38000 "/>
<path d="M114.95000 102.22000 L117.72000 102.22000 "/>
<path d="M117.72000 102.22000 L120.00000 104.50000 "/>
<path d="M120.00000 104.50000 L120.00000 110.00000 "/>
</g>
<g style="fill-opacity: 0.0;stroke-width: 1.27000;stroke-opacity: 1;stroke-linecap: round;stroke-linejoin: round">
<g style="fill-opacity: 1.00000;stroke-width: 0.00000;stroke-opacity: 1;stroke-linecap: round;stroke-linejoin: round">
<path style="fill-opacity: 1.00000;stroke-width: 0.00000;stroke-opacity: 1;stroke-linecap: round;stroke-linejoin: round;fill-rule: evenodd" d="M 139.43412,100.52800 139.48061,100.58166 139.49200,100.63400 139.49200,113.61600 139.47200,113.68412 139.41834,113.73061 139.36600,113.74200 125.77370,113.74200 125.70558,113.72200 125.65909,113.66834 125.64898,113.59807 125.67848,113.53349 125.70053,113.51342 125.72036,113.49928 125.82986,113.42117 125.98810,113.26349 126.02180,113.21659 126.11543,113.08628 126.11845,113.08208 126.21743,112.88181 126.28237,112.66807 126.31153,112.44659 126.31316,112.38000 126.29485,112.15736 126.24043,111.94070 126.15135,111.73584 126.03001,111.54828 125.87967,111.38305 125.87562,111.37985 125.87561,111.37985 125.70841,111.24780 125.70841,111.24780 125.70436,111.24460 125.66305,111.22180 125.61308,111.17136 125.59831,111.10192 125.62343,111.03552 125.65078,111.00891 125.69460,110.97765 125.82986,110.88117 125.98810,110.72349 126.04759,110.64069 126.11543,110.54628 126.11845,110.54208 126.18571,110.40599 126.21514,110.34645 126.21514,110.34645 126.21743,110.34181 126.28237,110.12807 126.31153,109.90659 126.31316,109.84000 126.29485,109.61736 126.24043,109.40070 126.15135,109.19584 126.03001,109.00828 125.87967,108.84305 125.87562,108.83985 125.87561,108.83985 125.70841,108.70780 125.70841,108.70780 125.70436,108.70460 125.66305,108.68180 125.61308,108.63136 125.59831,108.56192 125.62343,108.49552 125.65078,108.46891 125.69460,108.43765 125.82986,108.34117 125.98810,108.18349 126.04759,108.10069 126.11543,108.00628 126.11845,108.00208 126.21743,107.80181 126.28237,107.58807 126.31153,107.36659 126.31316,107.30000 126.29485,107.07736 126.24043,106.86070 126.15135,106.65584 126.03001,106.46828 125.87967,106.30305 125.87562,106.29985 125.87561,106.29985 125.70841,106.16780 125.70841,106.16780 125.70436,106.16460 125.66305,106.14180 125.61308,106.09136 125.59831,106.02192 125.62343,105.95552 125.65078,105.92891 125.69460,105.89765 125.82986,105.80117 125.98810,105.64349 126.04759,105.56069 126.11543,105.46628 126.11845,105.46208 126.21743,105.26181 126.28237,105.04807 126.31153,104.82659 126.31316,104.76000 126.29485,104.53736 126.24043,104.32070 126.15135,104.11584 126.03001,103.92828 125.87967,103.76305 125.87562,103.75985 125.87561,103.75985 125.70841,103.62780 125.70841,103.62780 125.70436,103.62460 125.50879,103.51664 125.50392,103.51491 125.50392,103.51491 125.30309,103.44379 125.30308,103.44379 125.29821,103.44207 125.29312,103.44116 125.29312,103.44116 125.08337,103.40380 125.08337,103.40380 125.07828,103.40289 125.00445,103.40199 124.86008,103.40023 124.86008,103.40023 124.85491,103.40017 124.63409,103.43395 124.42176,103.50336 124.22361,103.60651 124.21947,103.60961 124.21947,103.60961 124.05704,103.73157 124.04496,103.74063 123.89063,103.90214 123.76474,104.08668 123.74900,104.12059 123.68372,104.26123 123.67069,104.28930 123.61099,104.50457 123.58725,104.72669 123.58755,104.73185 123.58755,104.73185 123.59301,104.82659 123.60011,104.94971 123.60125,104.95476 123.60125,104.95477 123.61727,105.02584 123.64922,105.16764 123.73327,105.37462 123.84999,105.56509 123.99625,105.73394 124.16813,105.87663 124.23859,105.91781 124.24144,105.91948 124.29017,105.97111 124.30324,106.04090 124.27651,106.10667 124.23605,106.14003 124.22361,106.14651 124.21947,106.14961 124.21947,106.14961 124.19525,106.16780 124.04496,106.28063 123.89063,106.44214 123.76474,106.62668 123.67069,106.82930 123.61099,107.04457 123.58725,107.26669 123.58755,107.27185 123.58755,107.27185 123.59301,107.36659 123.60011,107.48971 123.60125,107.49476 123.60125,107.49477 123.62112,107.58294 123.64922,107.70764 123.73327,107.91462 123.84999,108.10509 123.99625,108.27394 124.16813,108.41663 124.23859,108.45781 124.24144,108.45948 124.29017,108.51111 124.30324,108.58090 124.27651,108.64667 124.23605,108.68003 124.22361,108.68651 124.21947,108.68961 124.21947,108.68961 124.19525,108.70780 124.04496,108.82063 123.89063,108.98214 123.76474,109.16668 123.67069,109.36930 123.61099,109.58457 123.58725,109.80669 123.58755,109.81185 123.58755,109.81185 123.59617,109.96132 123.60011,110.02971 123.60125,110.03476 123.60125,110.03477 123.61999,110.11793 123.64922,110.24764 123.73327,110.45462 123.84999,110.64509 123.99625,110.81394 124.16813,110.95663 124.23859,110.99781 124.24144,110.99948 124.29017,111.05111 124.30324,111.12090 124.27651,111.18667 124.23606,111.22002 124.23176,111.22226 124.17358,111.23650 122.90584,111.23650 122.83772,111.21650 122.81675,111.19959 121.18040,109.56325 121.14638,109.50094 121.14350,109.47416 121.14350,104.54281 121.14377,104.53456 121.14763,104.47570 121.14801,104.46994 121.13760,104.38204 121.13726,104.37877 121.13192,104.32070 121.12917,104.29072 121.12760,104.28515 121.12691,104.28146 121.12476,104.27061 121.12398,104.26697 121.12330,104.26123 121.09707,104.17674 121.09614,104.17361 121.07369,104.09402 121.07212,104.08845 121.06956,104.08326 121.06824,104.07981 121.06410,104.06943 121.06270,104.06605 121.06098,104.06053 121.01980,103.98225 121.01830,103.97932 120.99125,103.92446 120.97917,103.89996 120.97571,103.89533 120.97375,103.89213 120.96783,103.88274 120.96582,103.87965 120.96313,103.87454 120.90834,103.80504 120.90637,103.80247 120.85688,103.73620 120.85688,103.73619 120.85343,103.73157 120.79303,103.67574 120.78946,103.67231 118.55885,101.44170 118.55321,101.43568 118.51432,101.39133 118.51051,101.38698 118.44102,101.33220 118.43845,101.33012 118.37490,101.27727 118.37489,101.27726 118.37046,101.27357 118.36543,101.27075 118.36242,101.26869 118.35315,101.26249 118.35000,101.26045 118.34546,101.25687 118.34035,101.25418 118.34035,101.25418 118.26718,101.21569 118.26428,101.21411 118.19214,101.17371 118.19214,101.17371 118.18710,101.17088 118.18162,101.16903 118.17822,101.16751 118.16801,101.16313 118.16458,101.16170 118.15947,101.15902 118.15396,101.15731 118.15396,101.15730 118.07500,101.13279 118.07186,101.13177 118.01872,101.11373 117.98809,101.10333 117.98237,101.10250 117.97886,101.10166 117.96785,101.09917 117.96428,101.09841 117.95877,101.09670 117.95304,101.09602 117.95303,101.09602 117.90063,101.08982 117.87088,101.08629 117.86766,101.08587 117.78010,101.07317 117.69795,101.07640 117.69300,101.07650 115.72216,101.07650 115.66127,101.06081 115.51332,100.97914 115.51332,100.97914 115.50879,100.97664 115.50392,100.97491 115.50392,100.97491 115.30309,100.90380 115.30308,100.90379 115.29821,100.90207 115.29312,100.90116 115.29312,100.90116 115.08337,100.86380 115.08337,100.86380 115.07828,100.86289 115.00445,100.86199 114.86008,100.86023 114.86008,100.86023 114.85491,100.86016 114.63409,100.89395 114.42176,100.96336 114.22361,101.06651 114.21947,101.06961 114.21947,101.06961 114.09492,101.16313 114.04496,101.20063 114.04139,101.20437 113.91924,101.33220 113.89063,101.36214 113.76474,101.54668 113.67069,101.74930 113.61099,101.96457 113.58725,102.18670 113.60011,102.40971 113.60125,102.41476 113.60125,102.41477 113.62530,102.52151 113.64922,102.62764 113.73327,102.83462 113.84999,103.02509 113.99625,103.19394 114.16813,103.33663 114.21410,103.36350 114.24144,103.37948 114.29017,103.43111 114.30324,103.50090 114.27651,103.56667 114.23605,103.60003 114.22361,103.60651 114.21947,103.60961 114.21947,103.60961 114.05704,103.73157 114.04496,103.74063 113.89063,103.90214 113.76474,104.08668 113.74900,104.12059 113.68372,104.26123 113.67069,104.28930 113.61099,104.50457 113.58725,104.72669 113.58755,104.73185 113.58755,104.73185 113.59301,104.82659 113.60011,104.94971 113.60125,104.95476 113.60125,104.95477 113.61727,105.02584 113.64922,105.16764 113.73327,105.37462 113.84999,105.56509 113.99625,105.73394 114.16813,105.87663 114.23859,105.91781 114.24144,105.91948 114.29017,105.97111 114.30324,106.04090 114.27651,106.10667 114.23605,106.14003 114.22361,106.14651 114.21947,106.14961 114.21947,106.14961 114.19525,106.16780 114.04496,106.28063 113.89063,106.44214 113.76474,106.62668 113.67069,106.82930 113.61099,107.04457 113.58725,107.26669 113.58755,107.27185 113.58755,107.27185 113.59301,107.36659 113.60011,107.48971 113.60125,107.49476 113.60125,107.49477 113.62112,107.58294 113.64922,107.70764 113.73327,107.91462 113.84999,108.10509 113.99625,108.27394 114.16813,108.41663 114.23859,108.45781 114.24144,108.45948 114.29017,108.51111 114.30324,108.58090 114.27651,108.64667 114.23605,108.68003 114.22361,108.68651 114.21947,108.68961 114.21947,108.68961 114.19525,108.70780 114.04496,108.82063 113.89063,108.98214 113.76474,109.16668 113.67069,109.36930 113.61099,109.58457 113.58725,109.80669 113.58755,109.81185 113.58755,109.81185 113.59617,109.96132 113.60011,110.02971 113.60125,110.03476 113.60125,110.03477 113.61999,110.11793 113.64922,110.24764 113.73327,110.45462 113.84999,110.64509 113.99625,110.81394 114.16813,110.95663 114.36100,111.06934 114.56969,111.14903 114.57476,111.15006 114.57476,111.15006 114.67947,111.17136 114.78860,111.19357 114.79377,111.19376 114.79377,111.19376 115.00667,111.20156 115.00668,111.20156 115.01184,111.20175 115.01696,111.20110 115.01696,111.20110 115.22829,111.17403 115.22829,111.17403 115.23342,111.17337 115.24010,111.17136 115.44243,111.11066 115.44243,111.11066 115.44738,111.10917 115.64799,111.01090 115.82986,110.88117 115.98810,110.72349 116.04759,110.64069 116.11543,110.54628 116.11845,110.54208 116.18571,110.40599 116.21514,110.34645 116.21514,110.34645 116.21743,110.34181 116.28237,110.12807 116.31153,109.90659 116.31316,109.84000 116.29485,109.61736 116.24043,109.40070 116.15135,109.19584 116.03001,109.00828 115.87967,108.84305 115.87562,108.83985 115.87561,108.83985 115.70841,108.70780 115.70841,108.70780 115.70436,108.70460 115.66305,108.68180 115.61308,108.63136 115.59831,108.56192 115.62343,108.49552 115.65078,108.46891 115.69460,108.43765 115.82986,108.34117 115.98810,108.18349 116.04759,108.10069 116.11543,108.00628 116.11845,108.00208 116.21743,107.80181 116.28237,107.58807 116.31153,107.36659 116.31316,107.30000 116.29485,107.07736 116.24043,106.86070 116.15135,106.65584 116.03001,106.46828 115.87967,106.30305 115.87562,106.29985 115.87561,106.29985 115.70841,106.16780 115.70841,106.16780 115.70436,106.16460 115.66305,106.14180 115.61308,106.09136 115.59831,106.02192 115.62343,105.95552 115.65078,105.92891 115.69460,105.89765 115.82986,105.80117 115.98810,105.64349 116.04759,105.56069 116.11543,105.46628 116.11845,105.46208 116.21743,105.26181 116.28237,105.04807 116.31153,104.82659 116.31316,104.76000 116.29485,104.53736 116.24043,104.32070 116.15135,104.11584 116.03001,103.92828 115.87967,103.76305 115.87562,103.75985 115.87561,103.75985 115.70841,103.62780 115.70841,103.62780 115.70436,103.62460 115.66305,103.60180 115.61308,103.55136 115.59831,103.48192 115.62343,103.41552 115.65078,103.38891 115.65357,103.38692 115.72673,103.36350 117.19416,103.36350 117.26228,103.38350 117.28325,103.40040 118.81959,104.93675 118.85362,104.99906 118.85650,105.02584 118.85650,109.95719 118.85623,109.96544 118.85199,110.03006 118.86240,110.11797 118.86274,110.12119 118.87083,110.20928 118.87240,110.21484 118.87306,110.21841 118.87525,110.22941 118.87602,110.23303 118.87670,110.23877 118.90294,110.32328 118.90385,110.32637 118.92788,110.41155 118.93043,110.41674 118.93176,110.42019 118.93590,110.43057 118.93730,110.43395 118.93902,110.43947 118.94171,110.44459 118.94171,110.44459 118.98020,110.51774 118.98169,110.52068 119.02083,110.60004 119.02429,110.60467 119.02625,110.60787 119.03217,110.61726 119.03418,110.62035 119.03687,110.62546 119.09166,110.69496 119.09363,110.69753 119.14312,110.76380 119.14312,110.76381 119.14657,110.76843 119.15081,110.77234 119.15081,110.77235 119.20697,110.82426 119.21054,110.82769 121.54116,113.15831 121.54679,113.16433 121.58949,113.21302 121.59402,113.21659 121.65896,113.26778 121.66153,113.26986 121.72954,113.32643 121.73458,113.32925 121.73763,113.33135 121.74692,113.33755 121.75001,113.33955 121.75454,113.34313 121.75964,113.34581 121.75964,113.34582 121.83283,113.38432 121.83573,113.38589 121.90408,113.42417 121.91290,113.42911 121.91838,113.43097 121.92177,113.43248 121.93203,113.43689 121.93541,113.43829 121.94053,113.44098 121.94604,113.44269 121.94604,113.44269 122.02504,113.46722 122.02818,113.46824 122.11191,113.49667 122.11102,113.49928 122.16251,113.52887 122.19516,113.59191 122.18856,113.66260 122.14478,113.71849 122.07149,113.74200 100.63400,113.74200 100.56588,113.72200 100.51939,113.66834 100.50800,113.61600 100.50800,100.63400 100.52800,100.56588 100.58166,100.51939 100.63400,100.50800 139.36600,100.50800 Z"/> 
</g>
</g>
</g> 
</g><g id="substrate-silk" style="fill:#d5dce4; stroke:#d5dce4;" mask="url(#pads-mask-silkscreen)"><g style="fill-opacity: 0.0;stroke-width: 0.15000;stroke-opacity: 1;stroke-linecap: round;stroke-linejoin: round">
<text x="106.75000" y="105.57000" transform="scale(-1 1) translate(-213.500000 0)" textLength="5.93690" font-size="1.33333" lengthAdjust="spacingAndGlyphs" text-anchor="middle" opacity="0">GS8208</text>
<g class="stroked-text"><desc>GS8208</desc>
<path d="M108.86905 104.58024 L108.96428 104.53262 "/>
<path d="M108.96428 104.53262 L109.10714 104.53262 "/>
<path d="M109.10714 104.53262 L109.25000 104.58024 "/>
<path d="M109.25000 104.58024 L109.34524 104.67548 "/>
<path d="M109.34524 104.67548 L109.39286 104.77071 "/>
<path d="M109.39286 104.77071 L109.44047 104.96119 "/>
<path d="M109.44047 104.96119 L109.44047 105.10405 "/>
<path d="M109.44047 105.10405 L109.39286 105.29452 "/>
<path d="M109.39286 105.29452 L109.34524 105.38976 "/>
<path d="M109.34524 105.38976 L109.25000 105.48500 "/>
<path d="M109.25000 105.48500 L109.10714 105.53262 "/>
<path d="M109.10714 105.53262 L109.01190 105.53262 "/>
<path d="M109.01190 105.53262 L108.86905 105.48500 "/>
<path d="M108.86905 105.48500 L108.82143 105.43738 "/>
<path d="M108.82143 105.43738 L108.82143 105.10405 "/>
<path d="M108.82143 105.10405 L109.01190 105.10405 "/>
<path d="M108.44047 105.48500 L108.29762 105.53262 "/>
<path d="M108.29762 105.53262 L108.05952 105.53262 "/>
<path d="M108.05952 105.53262 L107.96428 105.48500 "/>
<path d="M107.96428 105.48500 L107.91667 105.43738 "/>
<path d="M107.91667 105.43738 L107.86905 105.34214 "/>
<path d="M107.86905 105.34214 L107.86905 105.24690 "/>
<path d="M107.86905 105.24690 L107.91667 105.15167 "/>
<path d="M107.91667 105.15167 L107.96428 105.10405 "/>
<path d="M107.96428 105.10405 L108.05952 105.05643 "/>
<path d="M108.05952 105.05643 L108.25000 105.00881 "/>
<path d="M108.25000 105.00881 L108.34524 104.96119 "/>
<path d="M108.34524 104.96119 L108.39286 104.91357 "/>
<path d="M108.39286 104.91357 L108.44047 104.81833 "/>
<path d="M108.44047 104.81833 L108.44047 104.72310 "/>
<path d="M108.44047 104.72310 L108.39286 104.62786 "/>
<path d="M108.39286 104.62786 L108.34524 104.58024 "/>
<path d="M108.34524 104.58024 L108.25000 104.53262 "/>
<path d="M108.25000 104.53262 L108.01190 104.53262 "/>
<path d="M108.01190 104.53262 L107.86905 104.58024 "/>
<path d="M107.29762 104.96119 L107.39286 104.91357 "/>
<path d="M107.39286 104.91357 L107.44047 104.86595 "/>
<path d="M107.44047 104.86595 L107.48809 104.77071 "/>
<path d="M107.48809 104.77071 L107.48809 104.72310 "/>
<path d="M107.48809 104.72310 L107.44047 104.62786 "/>
<path d="M107.44047 104.62786 L107.39286 104.58024 "/>
<path d="M107.39286 104.58024 L107.29762 104.53262 "/>
<path d="M107.29762 104.53262 L107.10714 104.53262 "/>
<path d="M107.10714 104.53262 L107.01190 104.58024 "/>
<path d="M107.01190 104.58024 L106.96428 104.62786 "/>
<path d="M106.96428 104.62786 L106.91667 104.72310 "/>
<path d="M106.91667 104.72310 L106.91667 104.77071 "/>
<path d="M106.91667 104.77071 L106.96428 104.86595 "/>
<path d="M106.96428 104.86595 L107.01190 104.91357 "/>
<path d="M107.01190 104.91357 L107.10714 104.96119 "/>
<path d="M107.10714 104.96119 L107.29762 104.96119 "/>
<path d="M107.29762 104.96119 L107.39286 105.00881 "/>
<path d="M107.39286 105.00881 L107.44047 105.05643 "/>
<path d="M107.44047 105.05643 L107.48809 105.15167 "/>
<path d="M107.48809 105.15167 L107.48809 105.34214 "/>
<path d="M107.48809 105.34214 L107.44047 105.43738 "/>
<path d="M107.44047 105.43738 L107.39286 105.48500 "/>
<path d="M107.39286 105.48500 L107.29762 105.53262 "/>
<path d="M107.29762 105.53262 L107.10714 105.53262 "/>
<path d="M107.10714 105.53262 L107.01190 105.48500 "/>
<path d="M107.01190 105.48500 L106.96428 105.43738 "/>
<path d="M106.96428 105.43738 L106.91667 105.34214 "/>
<path d="M106.91667 105.34214 L106.91667 105.15167 "/>
<path d="M106.91667 105.15167 L106.96428 105.05643 "/>
<path d="M106.96428 105.05643 L107.01190 105.00881 "/>
<path d="M107.01190 105.00881 L107.10714 104.96119 "/>
<path d="M106.53571 104.62786 L106.48809 104.58024 "/>
<path d="M106.48809 104.58024 L106.39286 104.53262 "/>
<path d="M106.39286 104.53262 L106.15476 104.53262 "/>
<path d="M106.15476 104.53262 L106.05952 104.58024 "/>
<path d="M106.05952 104.58024 L106.01190 104.62786 "/>
<path d="M106.01190 104.62786 L105.96428 104.72310 "/>
<path d="M105.96428 104.72310 L105.96428 104.81833 "/>
<path d="M105.96428 104.81833 L106.01190 104.96119 "/>
<path d="M106.01190 104.96119 L106.58333 105.53262 "/>
<path d="M106.58333 105.53262 L105.96428 105.53262 "/>
<path d="M105.34524 104.53262 L105.25000 104.53262 "/>
<path d="M105.25000 104.53262 L105.15476 104.58024 "/>
<path d="M105.15476 104.58024 L105.10714 104.62786 "/>
<path d="M105.10714 104.62786 L105.05952 104.72310 "/>
<path d="M105.05952 104.72310 L105.01190 104.91357 "/>
<path d="M105.01190 104.91357 L105.01190 105.15167 "/>
<path d="M105.01190 105.15167 L105.05952 105.34214 "/>
<path d="M105.05952 105.34214 L105.10714 105.43738 "/>
<path d="M105.10714 105.43738 L105.15476 105.48500 "/>
<path d="M105.15476 105.48500 L105.25000 105.53262 "/>
<path d="M105.25000 105.53262 L105.34524 105.53262 "/>
<path d="M105.34524 105.53262 L105.44047 105.48500 "/>
<path d="M105.44047 105.48500 L105.48809 105.43738 "/>
<path d="M105.48809 105.43738 L105.53571 105.34214 "/>
<path d="M105.53571 105.34214 L105.58333 105.15167 "/>
<path d="M105.58333 105.15167 L105.58333 104.91357 "/>
<path d="M105.58333 104.91357 L105.53571 104.72310 "/>
<path d="M105.53571 104.72310 L105.48809 104.62786 "/>
<path d="M105.48809 104.62786 L105.44047 104.58024 "/>
<path d="M105.44047 104.58024 L105.34524 104.53262 "/>
<path d="M104.44047 104.96119 L104.53571 104.91357 "/>
<path d="M104.53571 104.91357 L104.58333 104.86595 "/>
<path d="M104.58333 104.86595 L104.63095 104.77071 "/>
<path d="M104.63095 104.77071 L104.63095 104.72310 "/>
<path d="M104.63095 104.72310 L104.58333 104.62786 "/>
<path d="M104.58333 104.62786 L104.53571 104.58024 "/>
<path d="M104.53571 104.58024 L104.44047 104.53262 "/>
<path d="M104.44047 104.53262 L104.25000 104.53262 "/>
<path d="M104.25000 104.53262 L104.15476 104.58024 "/>
<path d="M104.15476 104.58024 L104.10714 104.62786 "/>
<path d="M104.10714 104.62786 L104.05952 104.72310 "/>
<path d="M104.05952 104.72310 L104.05952 104.77071 "/>
<path d="M104.05952 104.77071 L104.10714 104.86595 "/>
<path d="M104.10714 104.86595 L104.15476 104.91357 "/>
<path d="M104.15476 104.91357 L104.25000 104.96119 "/>
<path d="M104.25000 104.96119 L104.44047 104.96119 "/>
<path d="M104.44047 104.96119 L104.53571 105.00881 "/>
<path d="M104.53571 105.00881 L104.58333 105.05643 "/>
<path d="M104.58333 105.05643 L104.63095 105.15167 "/>
<path d="M104.63095 105.15167 L104.63095 105.34214 "/>
<path d="M104.63095 105.34214 L104.58333 105.43738 "/>
<path d="M104.58333 105.43738 L104.53571 105.48500 "/>
<path d="M104.53571 105.48500 L104.44047 105.53262 "/>
<path d="M104.44047 105.53262 L104.25000 105.53262 "/>
<path d="M104.25000 105.53262 L104.15476 105.48500 "/>
<path d="M104.15476 105.48500 L104.10714 105.43738 "/>
<path d="M104.10714 105.43738 L104.05952 105.34214 "/>
<path d="M104.05952 105.34214 L104.05952 105.15167 "/>
<path d="M104.05952 105.15167 L104.10714 105.05643 "/>
<path d="M104.10714 105.05643 L104.15476 105.00881 "/>
<path d="M104.15476 105.00881 L104.25000 104.96119 "/>
</g><text x="106.75000" y="107.19000" transform="scale(-1 1) translate(-213.500000 0)" textLength="11.60357" font-size="1.33333" lengthAdjust="spacingAndGlyphs" text-anchor="middle" opacity="0">Controller V2.0</text>
<g class="stroked-text"><desc>Controller V2.0</desc>
<path d="M111.65476 107.05738 L111.70238 107.10500 "/>
<path d="M111.70238 107.10500 L111.84524 107.15262 "/>
<path d="M111.84524 107.15262 L111.94048 107.15262 "/>
<path d="M111.94048 107.15262 L112.08333 107.10500 "/>
<path d="M112.08333 107.10500 L112.17857 107.00976 "/>
<path d="M112.17857 107.00976 L112.22619 106.91452 "/>
<path d="M112.22619 106.91452 L112.27381 106.72405 "/>
<path d="M112.27381 106.72405 L112.27381 106.58119 "/>
<path d="M112.27381 106.58119 L112.22619 106.39071 "/>
<path d="M112.22619 106.39071 L112.17857 106.29548 "/>
<path d="M112.17857 106.29548 L112.08333 106.20024 "/>
<path d="M112.08333 106.20024 L111.94048 106.15262 "/>
<path d="M111.94048 106.15262 L111.84524 106.15262 "/>
<path d="M111.84524 106.15262 L111.70238 106.20024 "/>
<path d="M111.70238 106.20024 L111.65476 106.24786 "/>
<path d="M111.08333 107.15262 L111.17857 107.10500 "/>
<path d="M111.17857 107.10500 L111.22619 107.05738 "/>
<path d="M111.22619 107.05738 L111.27381 106.96214 "/>
<path d="M111.27381 106.96214 L111.27381 106.67643 "/>
<path d="M111.27381 106.67643 L111.22619 106.58119 "/>
<path d="M111.22619 106.58119 L111.17857 106.53357 "/>
<path d="M111.17857 106.53357 L111.08333 106.48595 "/>
<path d="M111.08333 106.48595 L110.94048 106.48595 "/>
<path d="M110.94048 106.48595 L110.84524 106.53357 "/>
<path d="M110.84524 106.53357 L110.79762 106.58119 "/>
<path d="M110.79762 106.58119 L110.75000 106.67643 "/>
<path d="M110.75000 106.67643 L110.75000 106.96214 "/>
<path d="M110.75000 106.96214 L110.79762 107.05738 "/>
<path d="M110.79762 107.05738 L110.84524 107.10500 "/>
<path d="M110.84524 107.10500 L110.94048 107.15262 "/>
<path d="M110.94048 107.15262 L111.08333 107.15262 "/>
<path d="M110.32143 106.48595 L110.32143 107.15262 "/>
<path d="M110.32143 106.58119 L110.27381 106.53357 "/>
<path d="M110.27381 106.53357 L110.17857 106.48595 "/>
<path d="M110.17857 106.48595 L110.03571 106.48595 "/>
<path d="M110.03571 106.48595 L109.94048 106.53357 "/>
<path d="M109.94048 106.53357 L109.89286 106.62881 "/>
<path d="M109.89286 106.62881 L109.89286 107.15262 "/>
<path d="M109.55952 106.48595 L109.17857 106.48595 "/>
<path d="M109.41667 106.15262 L109.41667 107.00976 "/>
<path d="M109.41667 107.00976 L109.36905 107.10500 "/>
<path d="M109.36905 107.10500 L109.27381 107.15262 "/>
<path d="M109.27381 107.15262 L109.17857 107.15262 "/>
<path d="M108.84524 107.15262 L108.84524 106.48595 "/>
<path d="M108.84524 106.67643 L108.79762 106.58119 "/>
<path d="M108.79762 106.58119 L108.75000 106.53357 "/>
<path d="M108.75000 106.53357 L108.65476 106.48595 "/>
<path d="M108.65476 106.48595 L108.55952 106.48595 "/>
<path d="M108.08333 107.15262 L108.17857 107.10500 "/>
<path d="M108.17857 107.10500 L108.22619 107.05738 "/>
<path d="M108.22619 107.05738 L108.27381 106.96214 "/>
<path d="M108.27381 106.96214 L108.27381 106.67643 "/>
<path d="M108.27381 106.67643 L108.22619 106.58119 "/>
<path d="M108.22619 106.58119 L108.17857 106.53357 "/>
<path d="M108.17857 106.53357 L108.08333 106.48595 "/>
<path d="M108.08333 106.48595 L107.94048 106.48595 "/>
<path d="M107.94048 106.48595 L107.84524 106.53357 "/>
<path d="M107.84524 106.53357 L107.79762 106.58119 "/>
<path d="M107.79762 106.58119 L107.75000 106.67643 "/>
<path d="M107.75000 106.67643 L107.75000 106.96214 "/>
<path d="M107.75000 106.96214 L107.79762 107.05738 "/>
<path d="M107.79762 107.05738 L107.84524 107.10500 "/>
<path d="M107.84524 107.10500 L107.94048 107.15262 "/>
<path d="M107.94048 107.15262 L108.08333 107.15262 "/>
<path d="M107.17857 107.15262 L107.27381 107.10500 "/>
<path d="M107.27381 107.10500 L107.32143 107.00976 "/>
<path d="M107.32143 107.00976 L107.32143 106.15262 "/>
<path d="M106.65476 107.15262 L106.75000 107.10500 "/>
<path d="M106.75000 107.10500 L106.79762 107.00976 "/>
<path d="M106.79762 107.00976 L106.79762 106.15262 "/>
<path d="M105.89286 107.10500 L105.98809 107.15262 "/>
<path d="M105.98809 107.15262 L106.17857 107.15262 "/>
<path d="M106.17857 107.15262 L106.27381 107.10500 "/>
<path d="M106.27381 107.10500 L106.32143 107.00976 "/>
<path d="M106.32143 107.00976 L106.32143 106.62881 "/>
<path d="M106.32143 106.62881 L106.27381 106.53357 "/>
<path d="M106.27381 106.53357 L106.17857 106.48595 "/>
<path d="M106.17857 106.48595 L105.98809 106.48595 "/>
<path d="M105.98809 106.48595 L105.89286 106.53357 "/>
<path d="M105.89286 106.53357 L105.84524 106.62881 "/>
<path d="M105.84524 106.62881 L105.84524 106.72405 "/>
<path d="M105.84524 106.72405 L106.32143 106.81928 "/>
<path d="M105.41666 107.15262 L105.41666 106.48595 "/>
<path d="M105.41666 106.67643 L105.36905 106.58119 "/>
<path d="M105.36905 106.58119 L105.32143 106.53357 "/>
<path d="M105.32143 106.53357 L105.22619 106.48595 "/>
<path d="M105.22619 106.48595 L105.13095 106.48595 "/>
<path d="M104.17857 106.15262 L103.84524 107.15262 "/>
<path d="M103.84524 107.15262 L103.51190 106.15262 "/>
<path d="M103.22619 106.24786 L103.17857 106.20024 "/>
<path d="M103.17857 106.20024 L103.08333 106.15262 "/>
<path d="M103.08333 106.15262 L102.84524 106.15262 "/>
<path d="M102.84524 106.15262 L102.75000 106.20024 "/>
<path d="M102.75000 106.20024 L102.70238 106.24786 "/>
<path d="M102.70238 106.24786 L102.65476 106.34309 "/>
<path d="M102.65476 106.34309 L102.65476 106.43833 "/>
<path d="M102.65476 106.43833 L102.70238 106.58119 "/>
<path d="M102.70238 106.58119 L103.27381 107.15262 "/>
<path d="M103.27381 107.15262 L102.65476 107.15262 "/>
<path d="M102.22619 107.05738 L102.17857 107.10500 "/>
<path d="M102.17857 107.10500 L102.22619 107.15262 "/>
<path d="M102.22619 107.15262 L102.27381 107.10500 "/>
<path d="M102.27381 107.10500 L102.22619 107.05738 "/>
<path d="M102.22619 107.05738 L102.22619 107.15262 "/>
<path d="M101.55952 106.15262 L101.46428 106.15262 "/>
<path d="M101.46428 106.15262 L101.36905 106.20024 "/>
<path d="M101.36905 106.20024 L101.32143 106.24786 "/>
<path d="M101.32143 106.24786 L101.27381 106.34309 "/>
<path d="M101.27381 106.34309 L101.22619 106.53357 "/>
<path d="M101.22619 106.53357 L101.22619 106.77167 "/>
<path d="M101.22619 106.77167 L101.27381 106.96214 "/>
<path d="M101.27381 106.96214 L101.32143 107.05738 "/>
<path d="M101.32143 107.05738 L101.36905 107.10500 "/>
<path d="M101.36905 107.10500 L101.46428 107.15262 "/>
<path d="M101.46428 107.15262 L101.55952 107.15262 "/>
<path d="M101.55952 107.15262 L101.65476 107.10500 "/>
<path d="M101.65476 107.10500 L101.70238 107.05738 "/>
<path d="M101.70238 107.05738 L101.75000 106.96214 "/>
<path d="M101.75000 106.96214 L101.79762 106.77167 "/>
<path d="M101.79762 106.77167 L101.79762 106.53357 "/>
<path d="M101.79762 106.53357 L101.75000 106.34309 "/>
<path d="M101.75000 106.34309 L101.70238 106.24786 "/>
<path d="M101.70238 106.24786 L101.65476 106.20024 "/>
<path d="M101.65476 106.20024 L101.55952 106.15262 "/>
</g><text x="106.75000" y="108.81000" transform="scale(-1 1) translate(-213.500000 0)" textLength="7.98452" font-size="1.33333" lengthAdjust="spacingAndGlyphs" text-anchor="middle" opacity="0">LED Board</text>
<g class="stroked-text"><desc>LED Board</desc>
<path d="M109.94048 108.77262 L110.41667 108.77262 "/>
<path d="M110.41667 108.77262 L110.41667 107.77262 "/>
<path d="M109.60714 108.24881 L109.27381 108.24881 "/>
<path d="M109.13095 108.77262 L109.60714 108.77262 "/>
<path d="M109.60714 108.77262 L109.60714 107.77262 "/>
<path d="M109.60714 107.77262 L109.13095 107.77262 "/>
<path d="M108.70238 108.77262 L108.70238 107.77262 "/>
<path d="M108.70238 107.77262 L108.46428 107.77262 "/>
<path d="M108.46428 107.77262 L108.32143 107.82024 "/>
<path d="M108.32143 107.82024 L108.22619 107.91548 "/>
<path d="M108.22619 107.91548 L108.17857 108.01071 "/>
<path d="M108.17857 108.01071 L108.13095 108.20119 "/>
<path d="M108.13095 108.20119 L108.13095 108.34405 "/>
<path d="M108.13095 108.34405 L108.17857 108.53452 "/>
<path d="M108.17857 108.53452 L108.22619 108.62976 "/>
<path d="M108.22619 108.62976 L108.32143 108.72500 "/>
<path d="M108.32143 108.72500 L108.46428 108.77262 "/>
<path d="M108.46428 108.77262 L108.70238 108.77262 "/>
<path d="M106.60714 108.24881 L106.46428 108.29643 "/>
<path d="M106.46428 108.29643 L106.41667 108.34405 "/>
<path d="M106.41667 108.34405 L106.36905 108.43928 "/>
<path d="M106.36905 108.43928 L106.36905 108.58214 "/>
<path d="M106.36905 108.58214 L106.41667 108.67738 "/>
<path d="M106.41667 108.67738 L106.46428 108.72500 "/>
<path d="M106.46428 108.72500 L106.55952 108.77262 "/>
<path d="M106.55952 108.77262 L106.94047 108.77262 "/>
<path d="M106.94047 108.77262 L106.94047 107.77262 "/>
<path d="M106.94047 107.77262 L106.60714 107.77262 "/>
<path d="M106.60714 107.77262 L106.51190 107.82024 "/>
<path d="M106.51190 107.82024 L106.46428 107.86786 "/>
<path d="M106.46428 107.86786 L106.41667 107.96309 "/>
<path d="M106.41667 107.96309 L106.41667 108.05833 "/>
<path d="M106.41667 108.05833 L106.46428 108.15357 "/>
<path d="M106.46428 108.15357 L106.51190 108.20119 "/>
<path d="M106.51190 108.20119 L106.60714 108.24881 "/>
<path d="M106.60714 108.24881 L106.94047 108.24881 "/>
<path d="M105.79762 108.77262 L105.89286 108.72500 "/>
<path d="M105.89286 108.72500 L105.94047 108.67738 "/>
<path d="M105.94047 108.67738 L105.98809 108.58214 "/>
<path d="M105.98809 108.58214 L105.98809 108.29643 "/>
<path d="M105.98809 108.29643 L105.94047 108.20119 "/>
<path d="M105.94047 108.20119 L105.89286 108.15357 "/>
<path d="M105.89286 108.15357 L105.79762 108.10595 "/>
<path d="M105.79762 108.10595 L105.65476 108.10595 "/>
<path d="M105.65476 108.10595 L105.55952 108.15357 "/>
<path d="M105.55952 108.15357 L105.51190 108.20119 "/>
<path d="M105.51190 108.20119 L105.46428 108.29643 "/>
<path d="M105.46428 108.29643 L105.46428 108.58214 "/>
<path d="M105.46428 108.58214 L105.51190 108.67738 "/>
<path d="M105.51190 108.67738 L105.55952 108.72500 "/>
<path d="M105.55952 108.72500 L105.65476 108.77262 "/>
<path d="M105.65476 108.77262 L105.79762 108.77262 "/>
<path d="M104.60714 108.77262 L104.60714 108.24881 "/>
<path d="M104.60714 108.24881 L104.65476 108.15357 "/>
<path d="M104.65476 108.15357 L104.75000 108.10595 "/>
<path d="M104.75000 108.10595 L104.94047 108.10595 "/>
<path d="M104.94047 108.10595 L105.03571 108.15357 "/>
<path d="M104.60714 108.72500 L104.70238 108.77262 "/>
<path d="M104.70238 108.77262 L104.94047 108.77262 "/>
<path d="M104.94047 108.77262 L105.03571 108.72500 "/>
<path d="M105.03571 108.72500 L105.08333 108.62976 "/>
<path d="M105.08333 108.62976 L105.08333 108.53452 "/>
<path d="M105.08333 108.53452 L105.03571 108.43928 "/>
<path d="M105.03571 108.43928 L104.94047 108.39167 "/>
<path d="M104.94047 108.39167 L104.70238 108.39167 "/>
<path d="M104.70238 108.39167 L104.60714 108.34405 "/>
<path d="M104.13095 108.77262 L104.13095 108.10595 "/>
<path d="M104.13095 108.29643 L104.08333 108.20119 "/>
<path d="M104.08333 108.20119 L104.03571 108.15357 "/>
<path d="M104.03571 108.15357 L103.94047 108.10595 "/>
<path d="M103.94047 108.10595 L103.84524 108.10595 "/>
<path d="M103.08333 108.77262 L103.08333 107.77262 "/>
<path d="M103.08333 108.72500 L103.17857 108.77262 "/>
<path d="M103.17857 108.77262 L103.36905 108.77262 "/>
<path d="M103.36905 108.77262 L103.46428 108.72500 "/>
<path d="M103.46428 108.72500 L103.51190 108.67738 "/>
<path d="M103.51190 108.67738 L103.55952 108.58214 "/>
<path d="M103.55952 108.58214 L103.55952 108.29643 "/>
<path d="M103.55952 108.29643 L103.51190 108.20119 "/>
<path d="M103.51190 108.20119 L103.46428 108.15357 "/>
<path d="M103.46428 108.15357 L103.36905 108.10595 "/>
<path d="M103.36905 108.10595 L103.17857 108.10595 "/>
<path d="M103.17857 108.10595 L103.08333 108.15357 "/>
</g><text x="106.75000" y="110.43000" transform="scale(-1 1) translate(-213.500000 0)" textLength="8.55595" font-size="1.33333" lengthAdjust="spacingAndGlyphs" text-anchor="middle" opacity="0">GNU GPLv3</text>
<g class="stroked-text"><desc>GNU GPLv3</desc>
<path d="M110.17857 109.44024 L110.27381 109.39262 "/>
<path d="M110.27381 109.39262 L110.41667 109.39262 "/>
<path d="M110.41667 109.39262 L110.55952 109.44024 "/>
<path d="M110.55952 109.44024 L110.65476 109.53548 "/>
<path d="M110.65476 109.53548 L110.70238 109.63071 "/>
<path d="M110.70238 109.63071 L110.75000 109.82119 "/>
<path d="M110.75000 109.82119 L110.75000 109.96405 "/>
<path d="M110.75000 109.96405 L110.70238 110.15452 "/>
<path d="M110.70238 110.15452 L110.65476 110.24976 "/>
<path d="M110.65476 110.24976 L110.55952 110.34500 "/>
<path d="M110.55952 110.34500 L110.41667 110.39262 "/>
<path d="M110.41667 110.39262 L110.32143 110.39262 "/>
<path d="M110.32143 110.39262 L110.17857 110.34500 "/>
<path d="M110.17857 110.34500 L110.13095 110.29738 "/>
<path d="M110.13095 110.29738 L110.13095 109.96405 "/>
<path d="M110.13095 109.96405 L110.32143 109.96405 "/>
<path d="M109.70238 110.39262 L109.70238 109.39262 "/>
<path d="M109.70238 109.39262 L109.13095 110.39262 "/>
<path d="M109.13095 110.39262 L109.13095 109.39262 "/>
<path d="M108.65476 109.39262 L108.65476 110.20214 "/>
<path d="M108.65476 110.20214 L108.60714 110.29738 "/>
<path d="M108.60714 110.29738 L108.55952 110.34500 "/>
<path d="M108.55952 110.34500 L108.46428 110.39262 "/>
<path d="M108.46428 110.39262 L108.27381 110.39262 "/>
<path d="M108.27381 110.39262 L108.17857 110.34500 "/>
<path d="M108.17857 110.34500 L108.13095 110.29738 "/>
<path d="M108.13095 110.29738 L108.08333 110.20214 "/>
<path d="M108.08333 110.20214 L108.08333 109.39262 "/>
<path d="M106.32143 109.44024 L106.41667 109.39262 "/>
<path d="M106.41667 109.39262 L106.55952 109.39262 "/>
<path d="M106.55952 109.39262 L106.70238 109.44024 "/>
<path d="M106.70238 109.44024 L106.79762 109.53548 "/>
<path d="M106.79762 109.53548 L106.84524 109.63071 "/>
<path d="M106.84524 109.63071 L106.89286 109.82119 "/>
<path d="M106.89286 109.82119 L106.89286 109.96405 "/>
<path d="M106.89286 109.96405 L106.84524 110.15452 "/>
<path d="M106.84524 110.15452 L106.79762 110.24976 "/>
<path d="M106.79762 110.24976 L106.70238 110.34500 "/>
<path d="M106.70238 110.34500 L106.55952 110.39262 "/>
<path d="M106.55952 110.39262 L106.46428 110.39262 "/>
<path d="M106.46428 110.39262 L106.32143 110.34500 "/>
<path d="M106.32143 110.34500 L106.27381 110.29738 "/>
<path d="M106.27381 110.29738 L106.27381 109.96405 "/>
<path d="M106.27381 109.96405 L106.46428 109.96405 "/>
<path d="M105.84524 110.39262 L105.84524 109.39262 "/>
<path d="M105.84524 109.39262 L105.46428 109.39262 "/>
<path d="M105.46428 109.39262 L105.36905 109.44024 "/>
<path d="M105.36905 109.44024 L105.32143 109.48786 "/>
<path d="M105.32143 109.48786 L105.27381 109.58310 "/>
<path d="M105.27381 109.58310 L105.27381 109.72595 "/>
<path d="M105.27381 109.72595 L105.32143 109.82119 "/>
<path d="M105.32143 109.82119 L105.36905 109.86881 "/>
<path d="M105.36905 109.86881 L105.46428 109.91643 "/>
<path d="M105.46428 109.91643 L105.84524 109.91643 "/>
<path d="M104.36905 110.39262 L104.84524 110.39262 "/>
<path d="M104.84524 110.39262 L104.84524 109.39262 "/>
<path d="M104.13095 109.72595 L103.89286 110.39262 "/>
<path d="M103.89286 110.39262 L103.65476 109.72595 "/>
<path d="M103.36905 109.39262 L102.75000 109.39262 "/>
<path d="M102.75000 109.39262 L103.08333 109.77357 "/>
<path d="M103.08333 109.77357 L102.94047 109.77357 "/>
<path d="M102.94047 109.77357 L102.84524 109.82119 "/>
<path d="M102.84524 109.82119 L102.79762 109.86881 "/>
<path d="M102.79762 109.86881 L102.75000 109.96405 "/>
<path d="M102.75000 109.96405 L102.75000 110.20214 "/>
<path d="M102.75000 110.20214 L102.79762 110.29738 "/>
<path d="M102.79762 110.29738 L102.84524 110.34500 "/>
<path d="M102.84524 110.34500 L102.94047 110.39262 "/>
<path d="M102.94047 110.39262 L103.22619 110.39262 "/>
<path d="M103.22619 110.39262 L103.32143 110.34500 "/>
<path d="M103.32143 110.34500 L103.36905 110.29738 "/>
</g><text x="117.25000" y="113.00000" transform="scale(-1 1) translate(-234.500000 0)" textLength="1.88929" font-size="1.33333" lengthAdjust="spacingAndGlyphs" text-anchor="middle" opacity="0">J1</text>
<g class="stroked-text"><desc>J1</desc>
<path d="M117.58333 111.96262 L117.58333 112.67690 "/>
<path d="M117.58333 112.67690 L117.63095 112.81976 "/>
<path d="M117.63095 112.81976 L117.72619 112.91500 "/>
<path d="M117.72619 112.91500 L117.86905 112.96262 "/>
<path d="M117.86905 112.96262 L117.96428 112.96262 "/>
<path d="M116.58333 112.96262 L117.15476 112.96262 "/>
<path d="M116.86905 112.96262 L116.86905 111.96262 "/>
<path d="M116.86905 111.96262 L116.96428 112.10548 "/>
<path d="M116.96428 112.10548 L117.05952 112.20071 "/>
<path d="M117.05952 112.20071 L117.15476 112.24833 "/>
</g><text x="123.00000" y="102.75000" transform="scale(-1 1) translate(-246.000000 0)" textLength="1.88929" font-size="1.33333" lengthAdjust="spacingAndGlyphs" text-anchor="middle" opacity="0">J2</text>
<g class="stroked-text"><desc>J2</desc>
<path d="M123.33333 101.71262 L123.33333 102.42690 "/>
<path d="M123.33333 102.42690 L123.38095 102.56976 "/>
<path d="M123.38095 102.56976 L123.47619 102.66500 "/>
<path d="M123.47619 102.66500 L123.61905 102.71262 "/>
<path d="M123.61905 102.71262 L123.71428 102.71262 "/>
<path d="M122.90476 101.80786 L122.85714 101.76024 "/>
<path d="M122.85714 101.76024 L122.76190 101.71262 "/>
<path d="M122.76190 101.71262 L122.52381 101.71262 "/>
<path d="M122.52381 101.71262 L122.42857 101.76024 "/>
<path d="M122.42857 101.76024 L122.38095 101.80786 "/>
<path d="M122.38095 101.80786 L122.33333 101.90309 "/>
<path d="M122.33333 101.90309 L122.33333 101.99833 "/>
<path d="M122.33333 101.99833 L122.38095 102.14119 "/>
<path d="M122.38095 102.14119 L122.95238 102.71262 "/>
<path d="M122.95238 102.71262 L122.33333 102.71262 "/>
</g></g>
<g style="fill-opacity: 0.0;stroke-width: 0.12000;stroke-opacity: 1;stroke-linecap: round;stroke-linejoin: round">
<path d="M113.62000 111.11000 L116.28000 111.11000 "/>
<path d="M113.62000 111.11000 L113.62000 100.89000 "/>
<path d="M113.62000 112.38000 L113.62000 113.71000 "/>
<path d="M113.62000 100.89000 L116.28000 100.89000 "/>
<path d="M116.28000 111.11000 L116.28000 100.89000 "/>
<path d="M113.62000 113.71000 L114.95000 113.71000 "/>
<path d="M126.28000 100.89000 L124.95000 100.89000 "/>
<path d="M123.62000 103.49000 L123.62000 113.71000 "/>
<path d="M126.28000 113.71000 L123.62000 113.71000 "/>
<path d="M126.28000 102.22000 L126.28000 100.89000 "/>
<path d="M126.28000 103.49000 L123.62000 103.49000 "/>
<path d="M126.28000 103.49000 L126.28000 113.71000 "/>
</g>
<g style="fill-opacity: 1.00000;stroke-width: 0.01000;stroke-opacity: 1;stroke-linecap: round;stroke-linejoin: round">
<path style="fill-opacity: 1.00000;stroke-width: 0.01000;stroke-opacity: 1;stroke-linecap: round;stroke-linejoin: round;fill-rule: evenodd" d="M 130.68800,109.62403 130.73085,109.64083 130.78061,109.66350 130.78061,110.31853 130.71878,110.38036 130.70466,110.39423 130.66554,110.42505 130.62608,110.43503 130.56736,110.43043 130.54346,110.42746 130.48180,110.42118 130.43869,110.41867 130.42591,110.41906 130.37345,110.42320 130.31002,110.43043 130.28973,110.43292 130.23861,110.43389 130.20121,110.41846 130.15860,110.38036 130.09677,110.31853 130.09677,109.96834 130.09725,109.86486 130.09875,109.76619 130.10109,109.68807 130.10407,109.63666 130.10751,109.61815 130.10823,109.61820 130.13320,109.62741 130.17540,109.64771 130.23255,109.67726 130.23793,109.98475 130.24331,110.29223 130.36054,110.29223 130.36588,109.95519 130.36758,109.86357 130.37000,109.76565 130.37263,109.68791 130.37525,109.63664 130.37762,109.61815 130.37831,109.61822 130.40200,109.62502 130.44555,109.63960 130.50708,109.66105 130.50738,109.95710 130.50768,110.00853 130.50975,110.10847 130.51347,110.19192 130.51843,110.25138 130.52424,110.27929 130.54502,110.29421 130.58744,110.29882 130.63408,110.29223 130.63942,109.95519 130.64134,109.86955 130.64530,109.76817 130.65049,109.68865 130.65650,109.63674 130.66293,109.61815 Z"/> 
<path style="fill-opacity: 1.00000;stroke-width: 0.01000;stroke-opacity: 1;stroke-linecap: round;stroke-linejoin: round;fill-rule: evenodd" d="M 131.97189,109.64717 131.97806,109.65058 132.02845,109.68969 132.07350,109.73998 132.08136,109.75134 132.09638,109.77786 132.10711,109.80934 132.11449,109.85259 132.11945,109.91445 132.12294,110.00173 132.12589,110.12127 132.12631,110.14148 132.12765,110.27250 132.12576,110.36530 132.12060,110.42051 132.11216,110.43877 132.08659,110.43330 132.04317,110.41673 132.03294,110.41189 132.01697,110.40092 132.00595,110.38289 131.99875,110.35140 131.99421,110.30004 131.99118,110.22241 131.98852,110.11211 131.98779,110.07988 131.98496,109.97805 131.98130,109.90679 131.97569,109.85933 131.96703,109.82892 131.95420,109.80881 131.93610,109.79223 131.88252,109.76316 131.81661,109.75756 131.75763,109.77981 131.71520,109.82586 131.69892,109.89169 131.69847,109.90959 131.68958,109.94198 131.66332,109.94692 131.61192,109.92763 131.60001,109.92145 131.56784,109.88506 131.56720,109.83095 131.59786,109.75613 131.62598,109.71535 131.69788,109.65742 131.78664,109.62467 131.88154,109.62021 Z"/> 
<path style="fill-opacity: 1.00000;stroke-width: 0.01000;stroke-opacity: 1;stroke-linecap: round;stroke-linejoin: round;fill-rule: evenodd" d="M 133.47692,109.38181 133.47692,109.91645 133.47666,110.05509 133.47596,110.17981 133.47488,110.28556 133.47350,110.36732 133.47187,110.42007 133.47007,110.43877 133.46936,110.43871 133.44539,110.43191 133.40168,110.41732 133.34015,110.39587 133.34015,110.12062 133.33976,110.01247 133.33795,109.93403 133.33377,109.88065 133.32629,109.84526 133.31457,109.82078 133.29767,109.80014 133.28615,109.78917 133.22386,109.75877 133.15521,109.76147 133.09230,109.79741 133.08314,109.80633 133.06847,109.82484 133.05843,109.84933 133.05215,109.88639 133.04875,109.94267 133.04735,110.02477 133.04708,110.13933 133.04695,110.19743 133.04610,110.29299 133.04459,110.36953 133.04259,110.42034 133.04022,110.43877 133.03952,110.43871 133.01554,110.43191 132.97184,110.41732 132.91031,110.39587 132.91034,110.11936 132.91038,110.09474 132.91297,109.96642 132.92091,109.86938 132.93615,109.79706 132.96064,109.74285 132.99630,109.70020 133.04508,109.66250 133.09266,109.63891 133.16873,109.62067 133.24356,109.61964 133.30108,109.63738 133.30540,109.63983 133.31874,109.63957 133.32785,109.61904 133.33443,109.57198 133.34015,109.49212 133.34992,109.32824 Z"/> 
<path style="fill-opacity: 1.00000;stroke-width: 0.01000;stroke-opacity: 1;stroke-linecap: round;stroke-linejoin: round;fill-rule: evenodd" d="M 128.64950,109.96995 128.65079,110.03238 128.65041,110.08445 128.64564,110.18705 128.63315,110.26213 128.61012,110.31775 128.57373,110.36198 128.52116,110.40287 128.48771,110.42147 128.43410,110.43399 128.35878,110.43300 128.31667,110.42903 128.26588,110.41692 128.22528,110.39059 128.17805,110.34151 128.17174,110.33435 128.12928,110.27919 128.10902,110.23115 128.10385,110.17418 128.10385,110.09047 128.16235,110.11255 128.20499,110.13836 128.24206,110.19893 128.24980,110.21832 128.29307,110.27323 128.35198,110.30088 128.41611,110.29839 128.47508,110.26292 128.49534,110.24080 128.51372,110.20744 128.50797,110.17712 128.47489,110.14591 128.41126,110.10989 128.31388,110.06510 128.11361,109.97744 128.10830,109.89061 128.11030,109.83530 128.24078,109.83530 128.25069,109.86954 128.29576,109.90610 128.37756,109.94769 128.39109,109.95372 128.45582,109.98175 128.50425,110.00147 128.52675,110.00892 128.53016,110.00344 128.53153,109.96995 128.52665,109.91612 128.51436,109.86347 128.47604,109.79715 128.42072,109.75978 128.35464,109.75472 128.28404,109.78534 128.26447,109.80065 128.24078,109.83530 128.11030,109.83530 128.11065,109.82566 128.14019,109.74359 128.17747,109.69836 128.25478,109.64784 128.34648,109.62232 128.44127,109.62434 128.52786,109.65644 128.54692,109.66877 128.59064,109.70691 128.62054,109.75517 128.63897,109.82071 128.64827,109.91072 Z"/> 
<path style="fill-opacity: 1.00000;stroke-width: 0.01000;stroke-opacity: 1;stroke-linecap: round;stroke-linejoin: round;fill-rule: evenodd" d="M 136.89611,110.00218 136.89615,110.00892 136.89613,110.03010 136.89508,110.12458 136.89144,110.19041 136.88389,110.23639 136.87112,110.27132 136.85180,110.30400 136.84705,110.31077 136.79676,110.36423 136.73946,110.40455 136.71003,110.41763 136.60430,110.43945 136.49973,110.42534 136.40337,110.37711 136.32224,110.29658 136.31538,110.28579 136.29310,110.22315 136.27808,110.13593 136.27079,110.03521 136.27161,109.94204 136.46880,109.94204 136.47035,110.07111 136.47097,110.07942 136.48008,110.15064 136.49629,110.19581 136.52366,110.22675 136.56955,110.25574 136.61494,110.25726 136.66169,110.22385 136.66982,110.21505 136.68575,110.18874 136.69516,110.15052 136.69963,110.09135 136.70077,110.00218 136.69882,109.91866 136.68910,109.83910 136.66905,109.78881 136.63624,109.76251 136.58828,109.75492 136.57002,109.75643 136.51885,109.78411 136.48503,109.84617 136.46880,109.94204 136.27161,109.94204 136.27170,109.93205 136.28126,109.83753 136.29994,109.76273 136.32395,109.71290 136.39154,109.63541 136.48311,109.58726 136.59521,109.57070 136.62515,109.57160 136.71331,109.58993 136.78573,109.63610 136.85219,109.71565 136.85615,109.72155 136.87404,109.75329 136.88568,109.78916 136.89237,109.83791 136.89543,109.90825 Z"/> 
<path style="fill-opacity: 1.00000;stroke-width: 0.01000;stroke-opacity: 1;stroke-linecap: round;stroke-linejoin: round;fill-rule: evenodd" d="M 134.42637,109.58168 134.51763,109.62457 134.59242,109.69873 134.60792,109.72194 134.62077,109.74826 134.62989,109.78142 134.63610,109.82788 134.64023,109.89408 134.64312,109.98647 134.64558,110.11149 134.65170,110.45828 134.60030,110.43874 134.55325,110.42079 134.51801,110.40351 134.49502,110.38124 134.48165,110.34716 134.47533,110.29446 134.47344,110.21632 134.47339,110.10593 134.47312,110.01793 134.47152,109.93350 134.46771,109.87583 134.46082,109.83799 134.44997,109.81302 134.43431,109.79400 134.39579,109.76715 134.33109,109.75703 134.26708,109.78261 134.26286,109.78588 134.24969,109.80101 134.23997,109.82527 134.23290,109.86465 134.22766,109.92514 134.22342,110.01273 134.21938,110.13340 134.20961,110.45651 134.04354,110.38206 134.04354,110.08706 134.04388,110.00692 134.04685,109.89543 134.05435,109.81242 134.06819,109.75120 134.09015,109.70507 134.12204,109.66736 134.16563,109.63136 134.22834,109.59509 134.32712,109.57141 Z"/> 
<path style="fill-opacity: 1.00000;stroke-width: 0.01000;stroke-opacity: 1;stroke-linecap: round;stroke-linejoin: round;fill-rule: evenodd" d="M 129.76394,109.61991 129.80581,109.63055 129.84479,109.65706 129.89496,109.70642 129.92723,109.74128 129.96084,109.78653 129.97600,109.82895 129.97954,109.88277 129.97954,109.97085 129.91947,109.93979 129.87187,109.90194 129.83926,109.85095 129.83366,109.83709 129.79099,109.78336 129.73171,109.75642 129.66706,109.75904 129.60831,109.79400 129.58345,109.82239 129.56897,109.85872 129.58447,109.89105 129.63267,109.92356 129.71627,109.96046 129.72896,109.96556 129.80508,109.99891 129.87040,110.03179 129.91195,110.05777 129.95358,110.10417 129.98125,110.17821 129.97831,110.25767 129.94557,110.33287 129.88384,110.39413 129.83386,110.42021 129.73730,110.43847 129.68365,110.43601 129.63398,110.42269 129.61492,110.39474 129.62204,110.34871 129.62412,110.34262 129.64056,110.31035 129.66793,110.29813 129.72007,110.29895 129.75688,110.30006 129.79996,110.29053 129.82948,110.26203 129.84629,110.22693 129.84816,110.19017 129.84807,110.18996 129.82628,110.17010 129.77963,110.14119 129.71928,110.10889 129.65636,110.07882 129.60202,110.05665 129.56741,110.04800 129.56226,110.05647 129.55578,110.09631 129.55134,110.16137 129.54969,110.24338 129.54931,110.30015 129.54751,110.37165 129.54456,110.42061 129.54084,110.43877 129.52142,110.43267 129.48223,110.41609 129.43246,110.39342 129.43246,110.10251 129.43278,110.02794 129.43579,109.91470 129.44345,109.83069 129.45756,109.76952 129.47990,109.72480 129.51225,109.69012 129.55641,109.65912 129.61267,109.63353 129.71654,109.61815 Z"/> 
<path style="fill-opacity: 1.00000;stroke-width: 0.01000;stroke-opacity: 1;stroke-linecap: round;stroke-linejoin: round;fill-rule: evenodd" d="M 132.62046,109.63923 132.68762,109.67839 132.71717,109.70890 132.77395,109.80011 132.79308,109.89955 132.79308,109.96796 132.73019,109.94152 132.68670,109.91484 132.65243,109.85945 132.64891,109.84802 132.61103,109.78984 132.55394,109.75841 132.48838,109.75706 132.42512,109.78912 132.41567,109.79738 132.38409,109.83331 132.37887,109.86463 132.40276,109.89539 132.45851,109.92962 132.54885,109.97135 132.55496,109.97399 132.65524,110.02075 132.72374,110.06218 132.76590,110.10354 132.78719,110.15011 132.79308,110.20716 132.78537,110.27041 132.74643,110.35136 132.67793,110.40952 132.62839,110.42698 132.55847,110.43654 132.49058,110.43450 132.44209,110.42008 132.43694,110.41649 132.42327,110.39142 132.43276,110.34722 132.44925,110.31253 132.47569,110.29808 132.52583,110.29880 132.59545,110.29466 132.64094,110.26605 132.65631,110.21310 132.65629,110.21158 132.64698,110.18084 132.61531,110.15264 132.55373,110.12014 132.46999,110.08100 132.41452,110.05971 132.38250,110.06108 132.36753,110.08920 132.36324,110.14817 132.36323,110.24207 132.36275,110.30003 132.36056,110.37161 132.35699,110.42061 132.35249,110.43877 132.35129,110.43865 132.32532,110.42880 132.28231,110.40803 132.22286,110.37729 132.22992,110.10030 132.23041,110.08193 132.23602,109.95299 132.24594,109.85581 132.26217,109.78392 132.28676,109.73085 132.32171,109.69013 132.36906,109.65528 132.36994,109.65473 132.44650,109.62630 132.53504,109.62150 Z"/> 
<path style="fill-opacity: 1.00000;stroke-width: 0.01000;stroke-opacity: 1;stroke-linecap: round;stroke-linejoin: round;fill-rule: evenodd" d="M 129.11150,109.62648 129.19217,109.65644 129.22571,109.67895 129.25969,109.71121 129.28392,109.75225 129.30000,109.80811 129.30952,109.88485 129.31407,109.98852 129.31523,110.12518 129.31500,110.19580 129.31386,110.29231 129.31192,110.36932 129.30936,110.42032 129.30638,110.43877 129.28696,110.43267 129.24777,110.41609 129.24659,110.41556 129.22624,110.40490 129.21255,110.39028 129.20420,110.36467 129.19987,110.32105 129.19825,110.25240 129.19800,110.15170 129.19750,110.08781 129.19216,109.96775 129.17995,109.87981 129.15955,109.81937 129.12969,109.78184 129.08908,109.76258 129.08345,109.76124 129.00738,109.76019 128.94805,109.79427 128.90708,109.86260 128.89977,109.88235 128.88311,109.92607 128.87468,109.94615 128.85736,109.94339 128.81952,109.92836 128.78424,109.90356 128.76815,109.85667 128.77295,109.82309 128.80243,109.75497 128.85010,109.69113 128.90584,109.64699 128.92919,109.63678 129.01762,109.61972 Z"/> 
<path style="fill-opacity: 1.00000;stroke-width: 0.01000;stroke-opacity: 1;stroke-linecap: round;stroke-linejoin: round;fill-rule: evenodd" d="M 131.46419,110.02299 131.46440,110.02846 131.46284,110.10465 131.45181,110.20851 131.42781,110.28633 131.38804,110.34576 131.32969,110.39442 131.27410,110.42255 131.18075,110.43820 131.08753,110.42108 131.00327,110.37339 130.93682,110.29729 130.92879,110.28326 130.91820,110.25868 130.91034,110.22731 130.90481,110.18377 130.90121,110.12268 130.89913,110.03865 130.89906,110.03120 131.03462,110.03120 131.03508,110.10232 131.03800,110.16664 131.04522,110.20817 131.05856,110.23607 131.07984,110.25952 131.08482,110.26402 131.14886,110.29729 131.21662,110.29389 131.27973,110.25404 131.29853,110.23340 131.31425,110.20603 131.32304,110.16819 131.32686,110.11035 131.32769,110.02299 131.32728,109.95632 131.32443,109.89124 131.31726,109.84925 131.30389,109.82106 131.28247,109.79741 131.26989,109.78675 131.20470,109.75806 131.13640,109.76257 131.07710,109.80014 131.06433,109.81504 131.04876,109.84309 131.03976,109.88226 131.03562,109.94186 131.03462,110.03120 130.89906,110.03120 130.89817,109.92632 130.89792,109.78029 130.89785,109.32696 130.96135,109.35356 130.97814,109.36084 131.00486,109.37729 131.02016,109.40219 131.02856,109.44573 131.03462,109.51811 131.04014,109.58309 131.04745,109.62575 131.05792,109.64167 131.07369,109.63740 131.11389,109.62240 131.18573,109.61868 131.26301,109.63257 131.32969,109.66250 131.36637,109.69021 131.41347,109.74427 131.44364,109.81358 131.45968,109.90576 Z"/> 
<path style="fill-opacity: 1.00000;stroke-width: 0.01000;stroke-opacity: 1;stroke-linecap: round;stroke-linejoin: round;fill-rule: evenodd" d="M 132.51757,103.28769 132.65337,103.28781 132.75558,103.28847 132.82912,103.29018 132.87894,103.29343 132.90997,103.29871 132.92713,103.30651 132.93536,103.31732 132.93959,103.33165 132.93972,103.33217 132.94667,103.36585 132.95932,103.43092 132.97636,103.52054 132.99650,103.62790 133.01843,103.74618 133.02022,103.75586 133.04208,103.87065 133.06243,103.97148 133.07993,104.05222 133.09327,104.10673 133.10112,104.12890 133.10116,104.12894 133.12588,104.14120 133.17663,104.16158 133.24246,104.18567 133.24617,104.18698 133.33033,104.21879 133.42823,104.25868 133.51943,104.29835 133.66941,104.36642 134.00150,104.13964 134.02489,104.12369 134.12508,104.05589 134.21448,103.99621 134.28775,103.94816 134.33953,103.91525 134.36448,103.90100 134.38158,103.90427 134.42039,103.92957 134.48038,103.97968 134.56321,104.05599 134.67054,104.15992 134.68014,104.16938 134.76530,104.25414 134.84095,104.33094 134.90245,104.39495 134.94517,104.44136 134.96449,104.46537 134.96455,104.46549 134.96701,104.48376 134.95796,104.51341 134.93512,104.55849 134.89621,104.62304 134.83895,104.71114 134.76106,104.82683 134.74778,104.84636 134.68065,104.94528 134.62141,105.03285 134.57359,105.10383 134.54072,105.15299 134.52632,105.17509 134.52523,105.17978 134.53204,105.21471 134.55245,105.27175 134.58312,105.34117 134.62481,105.43196 134.67135,105.53969 134.71088,105.63719 134.72068,105.66243 134.74634,105.72687 134.76519,105.77176 134.77371,105.78862 134.78311,105.78987 134.82536,105.79716 134.89452,105.80974 134.98339,105.82625 135.08477,105.84531 135.19147,105.86557 135.29629,105.88565 135.39204,105.90418 135.47152,105.91979 135.52753,105.93113 135.55289,105.93681 135.55709,105.93841 135.56733,105.94704 135.57496,105.96543 135.58034,105.99846 135.58386,106.05101 135.58590,106.12798 135.58685,106.23425 135.58708,106.37470 135.58708,106.80185 135.48450,106.82209 135.47209,106.82452 135.40620,106.83709 135.31508,106.85417 135.20910,106.87383 135.09861,106.89413 135.05510,106.90230 134.95788,106.92217 134.87686,106.94095 134.81948,106.95686 134.79319,106.96808 134.78127,106.98641 134.75958,107.03492 134.73739,107.09769 134.72958,107.12120 134.70083,107.19837 134.66375,107.28969 134.62437,107.38009 134.60331,107.42731 134.57331,107.49784 134.55269,107.55065 134.54503,107.57691 134.54545,107.57889 134.55999,107.60675 134.59278,107.66051 134.64049,107.73496 134.69980,107.82490 134.76737,107.92510 134.98971,108.25142 134.69760,108.54402 134.66935,108.57217 134.58296,108.65645 134.50576,108.72913 134.44226,108.78611 134.39699,108.82331 134.37447,108.83662 134.35002,108.82649 134.29882,108.79742 134.22675,108.75290 134.13946,108.69641 134.04261,108.63146 133.94749,108.56731 133.86167,108.51083 133.79165,108.46618 133.74288,108.43685 133.72078,108.42631 133.71949,108.42640 133.69014,108.43680 133.63809,108.46101 133.57371,108.49425 133.57303,108.49461 133.48752,108.53744 133.42893,108.55836 133.39257,108.55842 133.37377,108.53865 133.36582,108.51919 133.34435,108.46708 133.31127,108.38696 133.26836,108.28311 133.21736,108.15977 133.16003,108.02120 133.09815,107.87167 133.04205,107.73564 132.98498,107.59605 132.93448,107.47131 132.89225,107.36567 132.85999,107.28336 132.83940,107.22863 132.83215,107.20573 132.84599,107.18472 132.88441,107.14964 132.93881,107.10889 133.06939,107.00227 133.18626,106.86602 133.27178,106.71612 133.32543,106.55697 133.34668,106.39301 133.33501,106.22867 133.28989,106.06836 133.21080,105.91652 133.09720,105.77757 133.03796,105.72346 132.89605,105.62778 132.74421,105.56540 132.58686,105.53484 132.42846,105.53462 132.27343,105.56323 132.12622,105.61921 131.99127,105.70106 131.87301,105.80731 131.77588,105.93646 131.70432,106.08703 131.66277,106.25754 131.65514,106.33972 131.66563,106.51778 131.71288,106.68670 131.79549,106.84352 131.91206,106.98524 132.06119,107.10889 132.11356,107.14798 132.15283,107.18344 132.16785,107.20569 132.16186,107.22509 132.14243,107.27706 132.11119,107.35700 132.06984,107.46067 132.02006,107.58383 131.96355,107.72223 131.90201,107.87164 131.84601,108.00702 131.78818,108.14685 131.73650,108.27187 131.69272,108.37782 131.65860,108.46044 131.63590,108.51547 131.62638,108.53865 131.62627,108.53893 131.60723,108.55850 131.57069,108.55828 131.51195,108.53721 131.42629,108.49425 131.41955,108.49063 131.35594,108.45809 131.30571,108.43505 131.27922,108.42631 131.25751,108.43664 131.20898,108.46579 131.13916,108.51029 131.05348,108.56667 130.95739,108.63146 130.86271,108.69498 130.77513,108.75171 130.70264,108.79655 130.65089,108.82602 130.62553,108.83662 130.62121,108.83527 130.59109,108.81406 130.53964,108.77024 130.47137,108.70791 130.39082,108.63117 130.30250,108.54412 130.01049,108.25162 130.46536,107.58252 130.39621,107.43292 130.39600,107.43247 130.35448,107.33710 130.31204,107.23090 130.27786,107.13677 130.27268,107.12159 130.24660,107.05111 130.22308,106.99634 130.20668,106.96808 130.20000,106.96409 130.15989,106.95070 130.09179,106.93337 130.00314,106.91392 129.90139,106.89413 129.87090,106.88855 129.76063,106.86823 129.65773,106.84909 129.57257,106.83307 129.51550,106.82209 129.41292,106.80185 129.41292,106.37470 129.41295,106.32218 129.41338,106.19405 129.41466,106.09842 129.41717,106.03041 129.42129,105.98513 129.42739,105.95770 129.43588,105.94322 129.44711,105.93681 129.45799,105.93421 129.50235,105.92502 129.57311,105.91099 129.66307,105.89349 129.76506,105.87387 129.87186,105.85352 129.97628,105.83381 130.07113,105.81609 130.14921,105.80174 130.20333,105.79212 130.22629,105.78862 130.22784,105.78650 130.24032,105.75901 130.26193,105.70641 130.28912,105.63719 130.32687,105.54394 130.37333,105.43616 130.41688,105.34117 130.42686,105.31985 130.45486,105.25309 130.47164,105.20159 130.47385,105.17509 130.47271,105.17322 130.45458,105.14556 130.41864,105.09185 130.36842,105.01730 130.30743,104.92716 130.23920,104.82666 130.16233,104.71247 130.10466,104.62377 130.06543,104.55872 130.04235,104.51329 130.03317,104.48346 130.03560,104.46519 130.03642,104.46382 130.05848,104.43720 130.10344,104.38870 130.16667,104.32311 130.24356,104.24525 130.32946,104.15992 130.41858,104.07333 130.50587,103.99195 130.57002,103.93703 130.61268,103.90719 130.63552,103.90100 130.63850,103.90239 130.66994,103.92113 130.72700,103.95773 130.80434,104.00870 130.89663,104.07050 130.99850,104.13964 131.33059,104.36642 131.48057,104.29835 131.48492,104.29638 131.57700,104.25649 131.67468,104.21682 131.75754,104.18567 131.75790,104.18554 131.82368,104.16146 131.87432,104.14111 131.89888,104.12890 131.89928,104.12846 131.90762,104.10346 131.92134,104.04660 131.93912,103.96401 131.95964,103.86183 131.98157,103.74618 131.98234,103.74203 132.00423,103.62402 132.02428,103.51715 132.04119,103.42825 132.05367,103.36414 132.06041,103.33165 132.06084,103.32985 132.06527,103.31594 132.07426,103.30549 132.09274,103.29800 132.12563,103.29297 132.17787,103.28992 132.25439,103.28835 132.36012,103.28778 132.50000,103.28769 Z"/> 
<path style="fill-opacity: 1.00000;stroke-width: 0.01000;stroke-opacity: 1;stroke-linecap: round;stroke-linejoin: round;fill-rule: evenodd" d="M 136.14610,110.00004 136.14783,110.09820 136.14976,110.24827 136.15030,110.29180 136.15202,110.43734 136.15237,110.54871 136.15028,110.62980 136.14470,110.68452 136.13457,110.71676 136.11883,110.73042 136.09642,110.72940 136.06628,110.71760 136.02736,110.69892 136.01904,110.69493 135.98440,110.67542 135.96631,110.65220 135.95939,110.61349 135.95826,110.54750 135.95820,110.42900 135.83614,110.42900 135.76105,110.42571 135.70201,110.41238 135.65299,110.38542 135.64933,110.38279 135.59958,110.33829 135.56496,110.28452 135.54312,110.21415 135.53174,110.11983 135.52896,110.01327 135.72385,110.01327 135.72388,110.03113 135.72573,110.11175 135.73169,110.16445 135.74351,110.19867 135.76292,110.22385 135.76413,110.22505 135.81186,110.25763 135.85811,110.25442 135.91035,110.21496 135.92313,110.20148 135.94195,110.17384 135.95256,110.13788 135.95725,110.08336 135.95831,110.00004 135.95739,109.94960 135.94748,109.85786 135.92484,109.79775 135.88724,109.76490 135.83242,109.75492 135.80932,109.75705 135.76935,109.77815 135.74293,109.82516 135.72833,109.90217 135.72385,110.01327 135.52896,110.01327 135.52846,109.99421 135.52919,109.90254 135.53249,109.83310 135.53983,109.78494 135.55265,109.74887 135.57242,109.71565 135.59057,109.69026 135.65646,109.62173 135.73111,109.58450 135.82490,109.57272 135.93224,109.58447 136.02503,109.62659 136.09842,109.70090 136.10395,109.70876 136.11686,109.72967 136.12674,109.75355 136.13409,109.78558 136.13939,109.83091 136.14313,109.89468 136.14578,109.98206 Z"/> 
<path style="fill-opacity: 1.00000;stroke-width: 0.01000;stroke-opacity: 1;stroke-linecap: round;stroke-linejoin: round;fill-rule: evenodd" d="M 135.40334,109.88447 135.41079,109.95354 135.40457,110.10164 135.40107,110.13302 135.37493,110.24470 135.32769,110.32964 135.25586,110.39474 135.25180,110.39743 135.16049,110.43563 135.06514,110.43903 134.97327,110.40994 134.89238,110.35066 134.82996,110.26351 134.82891,110.26141 134.80817,110.20729 134.79298,110.14578 134.78492,110.08804 134.78558,110.04521 134.79655,110.02846 134.80629,110.02948 134.85288,110.04801 134.90568,110.08208 134.95060,110.12152 134.97353,110.15615 134.99737,110.20313 135.04623,110.24586 135.10296,110.26292 135.12376,110.25799 135.16480,110.23316 135.20056,110.19868 135.21585,110.16741 135.21584,110.16729 135.19849,110.15293 135.15225,110.12702 135.08407,110.09321 135.00092,110.05513 135.00047,110.05493 134.91014,110.01471 134.84959,109.98573 134.81289,109.96347 134.79409,109.94341 134.78725,109.92101 134.78643,109.89176 134.79211,109.83636 134.98500,109.83636 135.00491,109.85378 135.05452,109.87987 135.05598,109.88061 135.11451,109.90848 135.16687,109.93072 135.20009,109.94013 135.21341,109.92755 135.21585,109.88447 135.20572,109.83085 135.17063,109.78212 135.11982,109.75686 135.06318,109.75941 135.01058,109.79412 134.98991,109.81811 134.98500,109.83636 134.79211,109.83636 134.79362,109.82165 134.82918,109.72641 134.88871,109.65157 134.96575,109.59974 135.05381,109.57357 135.14645,109.57568 135.23720,109.60868 135.31958,109.67521 135.36522,109.74105 135.39801,109.83504 Z"/> 
</g> 
</g><g id="substrate-outline" style="fill:#000000; stroke:#000000; stroke-width: 0.15"><g style="fill-opacity: 0.0;stroke-opacity: 1;stroke-linecap: round;stroke-linejoin: round">
<path d="M100.00000 114.25000 L100.00000 100.00000 "/>
<path d="M140.00000 100.00000 L140.00000 114.25000 "/>
<path d="M100.00000 114.25000 L140.00000 114.25000 "/>
<path d="M100.00000 100.00000 L140.00000 100.00000 "/>
</g> 
<path d="M -0.5 0.0 A 0.5 0.5 0 1 1 0.5 0.0 L 0.5 -0.0 A 0.5 0.5 0 1 1 -0.5 -0.0 Z" transform="translate(114.95 112.38) rotate(-0.0)"/><path d="M -0.5 0.0 A 0.5 0.5 0 1 1 0.5 0.0 L 0.5 -0.0 A 0.5 0.5 0 1 1 -0.5 -0.0 Z" transform="translate(114.95 109.84) rotate(-0.0)"/><path d="M -0.5 0.0 A 0.5 0.5 0 1 1 0.5 0.0 L 0.5 -0.0 A 0.5 0.5 0 1 1 -0.5 -0.0 Z" transform="translate(114.95 107.3) rotate(-0.0)"/><path d="M -0.5 0.0 A 0.5 0.5 0 1 1 0.5 0.0 L 0.5 -0.0 A 0.5 0.5 0 1 1 -0.5 -0.0 Z" transform="translate(114.95 104.76) rotate(-0.0)"/><path d="M -0.5 0.0 A 0.5 0.5 0 1 1 0.5 0.0 L 0.5 -0.0 A 0.5 0.5 0 1 1 -0.5 -0.0 Z" transform="translate(114.95 102.22) rotate(-0.0)"/><path d="M -0.5 0.0 A 0.5 0.5 0 1 1 0.5 0.0 L 0.5 -0.0 A 0.5 0.5 0 1 1 -0.5 -0.0 Z" transform="translate(124.95 102.22) rotate(-180.0)"/><path d="M -0.5 0.0 A 0.5 0.5 0 1 1 0.5 0.0 L 0.5 -0.0 A 0.5 0.5 0 1 1 -0.5 -0.0 Z" transform="translate(124.95 104.76) rotate(-180.0)"/><path d="M -0.5 0.0 A 0.5 0.5 0 1 1 0.5 0.0 L 0.5 -0.0 A 0.5 0.5 0 1 1 -0.5 -0.0 Z" transform="translate(124.95 107.3) rotate(-180.0)"/><path d="M -0.5 0.0 A 0.5 0.5 0 1 1 0.5 0.0 L 0.5 -0.0 A 0.5 0.5 0 1 1 -0.5 -0.0 Z" transform="translate(124.95 109.84) rotate(-180.0)"/><path d="M -0.5 0.0 A 0.5 0.5 0 1 1 0.5 0.0 L 0.5 -0.0 A 0.5 0.5 0 1 1 -0.5 -0.0 Z" transform="translate(124.95 112.38) rotate(-180.0)"/></g></g></g></svg>