<!DOCTYPE svg PUBLIC "-//W3C//DTD SVG 1.1//EN" "http://www.w3.org/Graphics/SVG/1.1/DTD/svg11.dtd">
<svg xmlns="http://www.w3.org/2000/svg" version="1.1" width="42.0mm" height="16.25mm" viewBox="99.0 99.0 42.0 16.25">
            <title>Picture generated by PcbDraw </title>
            <desc>Picture generated by PcbDraw</desc>
        <defs><clipPath id="cut-off"><path d=" M 100.0 100.0 L 140.0 100.0 L 140.0 114.25 L 100.0 114.25 L 100.0 100.0 " style="fill-rule: evenodd;"/></clipPath><mask id="pads-mask"><g style="fill:#ffffff; fill-opacity:0.0;  stroke:#ffffff; stroke-width:0.00000; stroke-opacity:1;  stroke-linecap:round; stroke-linejoin:round;">
<g style="fill:#ffffff; fill-opacity:1.00000;  stroke:#ffffff; stroke-width:0.00000; stroke-opacity:1;  stroke-linecap:round; stroke-linejoin:round;">
<path style="fill:#ffffff; fill-opacity:1.00000;  stroke:#ffffff; stroke-width:0.00000; stroke-opacity:1;  stroke-linecap:round; stroke-linejoin:round;fill-rule:evenodd;" d="M 104.20000,103.89500 105.20000,103.89500 105.20000,105.69500 104.20000,105.69500 Z"/> 
<path style="fill:#ffffff; fill-opacity:1.00000;  stroke:#ffffff; stroke-width:0.00000; stroke-opacity:1;  stroke-linecap:round; stroke-linejoin:round;fill-rule:evenodd;" d="M 102.45000,103.89500 103.45000,103.89500 103.45000,105.69500 102.45000,105.69500 Z"/> 
<path style="fill:#ffffff; fill-opacity:1.00000;  stroke:#ffffff; stroke-width:0.00000; stroke-opacity:1;  stroke-linecap:round; stroke-linejoin:round;fill-rule:evenodd;" d="M 100.70000,103.89500 101.70000,103.89500 101.70000,105.69500 100.70000,105.69500 Z"/> 
<path style="fill:#ffffff; fill-opacity:1.00000;  stroke:#ffffff; stroke-width:0.00000; stroke-opacity:1;  stroke-linecap:round; stroke-linejoin:round;fill-rule:evenodd;" d="M 100.70000,108.89500 101.70000,108.89500 101.70000,110.69500 100.70000,110.69500 Z"/> 
<path style="fill:#ffffff; fill-opacity:1.00000;  stroke:#ffffff; stroke-width:0.00000; stroke-opacity:1;  stroke-linecap:round; stroke-linejoin:round;fill-rule:evenodd;" d="M 102.45000,108.89500 103.45000,108.89500 103.45000,110.69500 102.45000,110.69500 Z"/> 
<path style="fill:#ffffff; fill-opacity:1.00000;  stroke:#ffffff; stroke-width:0.00000; stroke-opacity:1;  stroke-linecap:round; stroke-linejoin:round;fill-rule:evenodd;" d="M 104.20000,108.89500 105.20000,108.89500 105.20000,110.69500 104.20000,110.69500 Z"/> 
</g>
<g style="fill:#ffffff; fill-opacity:1.00000;  stroke:#ffffff; stroke-width:0.00000; stroke-opacity:1;  stroke-linecap:round; stroke-linejoin:round;">
<path style="fill:#ffffff; fill-opacity:1.00000;  stroke:#ffffff; stroke-width:0.00000; stroke-opacity:1;  stroke-linecap:round; stroke-linejoin:round;fill-rule:evenodd;" d="M 121.20000,103.89500 122.20000,103.89500 122.20000,105.69500 121.20000,105.69500 Z"/> 
<path style="fill:#ffffff; fill-opacity:1.00000;  stroke:#ffffff; stroke-width:0.00000; stroke-opacity:1;  stroke-linecap:round; stroke-linejoin:round;fill-rule:evenodd;" d="M 119.45000,103.89500 120.45000,103.89500 120.45000,105.69500 119.45000,105.69500 Z"/> 
<path style="fill:#ffffff; fill-opacity:1.00000;  stroke:#ffffff; stroke-width:0.00000; stroke-opacity:1;  stroke-linecap:round; stroke-linejoin:round;fill-rule:evenodd;" d="M 117.70000,103.89500 118.70000,103.89500 118.70000,105.69500 117.70000,105.69500 Z"/> 
<path style="fill:#ffffff; fill-opacity:1.00000;  stroke:#ffffff; stroke-width:0.00000; stroke-opacity:1;  stroke-linecap:round; stroke-linejoin:round;fill-rule:evenodd;" d="M 117.70000,108.89500 118.70000,108.89500 118.70000,110.69500 117.70000,110.69500 Z"/> 
<path style="fill:#ffffff; fill-opacity:1.00000;  stroke:#ffffff; stroke-width:0.00000; stroke-opacity:1;  stroke-linecap:round; stroke-linejoin:round;fill-rule:evenodd;" d="M 119.45000,108.89500 120.45000,108.89500 120.45000,110.69500 119.45000,110.69500 Z"/> 
<path style="fill:#ffffff; fill-opacity:1.00000;  stroke:#ffffff; stroke-width:0.00000; stroke-opacity:1;  stroke-linecap:round; stroke-linejoin:round;fill-rule:evenodd;" d="M 121.20000,108.89500 122.20000,108.89500 122.20000,110.69500 121.20000,110.69500 Z"/> 
</g>
<g style="fill:#ffffff; fill-opacity:1.00000;  stroke:#ffffff; stroke-width:0.00000; stroke-opacity:1;  stroke-linecap:round; stroke-linejoin:round;">
<path style="fill:#ffffff; fill-opacity:1.00000;  stroke:#ffffff; stroke-width:0.00000; stroke-opacity:1;  stroke-linecap:round; stroke-linejoin:round;fill-rule:evenodd;" d="M 135.70000,110.69500 134.70000,110.69500 134.70000,108.89500 135.70000,108.89500 Z"/> 
<path style="fill:#ffffff; fill-opacity:1.00000;  stroke:#ffffff; stroke-width:0.00000; stroke-opacity:1;  stroke-linecap:round; stroke-linejoin:round;fill-rule:evenodd;" d="M 137.45000,110.69500 136.45000,110.69500 136.45000,108.89500 137.45000,108.89500 Z"/> 
<path style="fill:#ffffff; fill-opacity:1.00000;  stroke:#ffffff; stroke-width:0.00000; stroke-opacity:1;  stroke-linecap:round; stroke-linejoin:round;fill-rule:evenodd;" d="M 139.20000,110.69500 138.20000,110.69500 138.20000,108.89500 139.20000,108.89500 Z"/> 
<path style="fill:#ffffff; fill-opacity:1.00000;  stroke:#ffffff; stroke-width:0.00000; stroke-opacity:1;  stroke-linecap:round; stroke-linejoin:round;fill-rule:evenodd;" d="M 139.20000,105.69500 138.20000,105.69500 138.20000,103.89500 139.20000,103.89500 Z"/> 
<path style="fill:#ffffff; fill-opacity:1.00000;  stroke:#ffffff; stroke-width:0.00000; stroke-opacity:1;  stroke-linecap:round; stroke-linejoin:round;fill-rule:evenodd;" d="M 137.45000,105.69500 136.45000,105.69500 136.45000,103.89500 137.45000,103.89500 Z"/> 
<path style="fill:#ffffff; fill-opacity:1.00000;  stroke:#ffffff; stroke-width:0.00000; stroke-opacity:1;  stroke-linecap:round; stroke-linejoin:round;fill-rule:evenodd;" d="M 135.70000,105.69500 134.70000,105.69500 134.70000,103.89500 135.70000,103.89500 Z"/> 
</g>
<g style="fill:#ffffff; fill-opacity:1.00000;  stroke:#ffffff; stroke-width:0.00000; stroke-opacity:1;  stroke-linecap:round; stroke-linejoin:round;">
<path style="fill:#ffffff; fill-opacity:1.00000;  stroke:#ffffff; stroke-width:0.00000; stroke-opacity:1;  stroke-linecap:round; stroke-linejoin:round;fill-rule:evenodd;" d="M 114.10000,113.23000 114.10000,111.53000 115.80000,111.53000 115.80000,113.23000 Z"/> 
<circle cx="114.95000" cy="109.84000" r="0.85000"/> 
<circle cx="114.95000" cy="107.30000" r="0.85000"/> 
<circle cx="114.95000" cy="104.76000" r="0.85000"/> 
<circle cx="114.95000" cy="102.22000" r="0.85000"/> 
</g>
<g style="fill:#ffffff; fill-opacity:1.00000;  stroke:#ffffff; stroke-width:0.00000; stroke-opacity:1;  stroke-linecap:round; stroke-linejoin:round;">
<path style="fill:#ffffff; fill-opacity:1.00000;  stroke:#ffffff; stroke-width:0.00000; stroke-opacity:1;  stroke-linecap:round; stroke-linejoin:round;fill-rule:evenodd;" d="M 125.80000,101.37000 125.80000,103.07000 124.10000,103.07000 124.10000,101.37000 Z"/> 
<circle cx="124.95000" cy="104.76000" r="0.85000"/> 
<circle cx="124.95000" cy="107.30000" r="0.85000"/> 
<circle cx="124.95000" cy="109.84000" r="0.85000"/> 
<circle cx="124.95000" cy="112.38000" r="0.85000"/> 
</g>
</g> 
</mask><mask id="pads-mask-silkscreen"><rect x="98.4625" y="92.9125" width="51.034525" height="22.485" fill="white"/><g style="fill:#000000; fill-opacity:0.0;  stroke:#000000; stroke-width:0.00000; stroke-opacity:1;  stroke-linecap:round; stroke-linejoin:round;">
<g style="fill:#000000; fill-opacity:1.00000;  stroke:#000000; stroke-width:0.00000; stroke-opacity:1;  stroke-linecap:round; stroke-linejoin:round;">
<path style="fill:#000000; fill-opacity:1.00000;  stroke:#000000; stroke-width:0.00000; stroke-opacity:1;  stroke-linecap:round; stroke-linejoin:round;fill-rule:evenodd;" d="M 104.20000,103.89500 105.20000,103.89500 105.20000,105.69500 104.20000,105.69500 Z"/> 
<path style="fill:#000000; fill-opacity:1.00000;  stroke:#000000; stroke-width:0.00000; stroke-opacity:1;  stroke-linecap:round; stroke-linejoin:round;fill-rule:evenodd;" d="M 102.45000,103.89500 103.45000,103.89500 103.45000,105.69500 102.45000,105.69500 Z"/> 
<path style="fill:#000000; fill-opacity:1.00000;  stroke:#000000; stroke-width:0.00000; stroke-opacity:1;  stroke-linecap:round; stroke-linejoin:round;fill-rule:evenodd;" d="M 100.70000,103.89500 101.70000,103.89500 101.70000,105.69500 100.70000,105.69500 Z"/> 
<path style="fill:#000000; fill-opacity:1.00000;  stroke:#000000; stroke-width:0.00000; stroke-opacity:1;  stroke-linecap:round; stroke-linejoin:round;fill-rule:evenodd;" d="M 100.70000,108.89500 101.70000,108.89500 101.70000,110.69500 100.70000,110.69500 Z"/> 
<path style="fill:#000000; fill-opacity:1.00000;  stroke:#000000; stroke-width:0.00000; stroke-opacity:1;  stroke-linecap:round; stroke-linejoin:round;fill-rule:evenodd;" d="M 102.45000,108.89500 103.45000,108.89500 103.45000,110.69500 102.45000,110.69500 Z"/> 
<path style="fill:#000000; fill-opacity:1.00000;  stroke:#000000; stroke-width:0.00000; stroke-opacity:1;  stroke-linecap:round; stroke-linejoin:round;fill-rule:evenodd;" d="M 104.20000,108.89500 105.20000,108.89500 105.20000,110.69500 104.20000,110.69500 Z"/> 
</g>
<g style="fill:#000000; fill-opacity:1.00000;  stroke:#000000; stroke-width:0.00000; stroke-opacity:1;  stroke-linecap:round; stroke-linejoin:round;">
<path style="fill:#000000; fill-opacity:1.00000;  stroke:#000000; stroke-width:0.00000; stroke-opacity:1;  stroke-linecap:round; stroke-linejoin:round;fill-rule:evenodd;" d="M 121.20000,103.89500 122.20000,103.89500 122.20000,105.69500 121.20000,105.69500 Z"/> 
<path style="fill:#000000; fill-opacity:1.00000;  stroke:#000000; stroke-width:0.00000; stroke-opacity:1;  stroke-linecap:round; stroke-linejoin:round;fill-rule:evenodd;" d="M 119.45000,103.89500 120.45000,103.89500 120.45000,105.69500 119.45000,105.69500 Z"/> 
<path style="fill:#000000; fill-opacity:1.00000;  stroke:#000000; stroke-width:0.00000; stroke-opacity:1;  stroke-linecap:round; stroke-linejoin:round;fill-rule:evenodd;" d="M 117.70000,103.89500 118.70000,103.89500 118.70000,105.69500 117.70000,105.69500 Z"/> 
<path style="fill:#000000; fill-opacity:1.00000;  stroke:#000000; stroke-width:0.00000; stroke-opacity:1;  stroke-linecap:round; stroke-linejoin:round;fill-rule:evenodd;" d="M 117.70000,108.89500 118.70000,108.89500 118.70000,110.69500 117.70000,110.69500 Z"/> 
<path style="fill:#000000; fill-opacity:1.00000;  stroke:#000000; stroke-width:0.00000; stroke-opacity:1;  stroke-linecap:round; stroke-linejoin:round;fill-rule:evenodd;" d="M 119.45000,108.89500 120.45000,108.89500 120.45000,110.69500 119.45000,110.69500 Z"/> 
<path style="fill:#000000; fill-opacity:1.00000;  stroke:#000000; stroke-width:0.00000; stroke-opacity:1;  stroke-linecap:round; stroke-linejoin:round;fill-rule:evenodd;" d="M 121.20000,108.89500 122.20000,108.89500 122.20000,110.69500 121.20000,110.69500 Z"/> 
</g>
<g style="fill:#000000; fill-opacity:1.00000;  stroke:#000000; stroke-width:0.00000; stroke-opacity:1;  stroke-linecap:round; stroke-linejoin:round;">
<path style="fill:#000000; fill-opacity:1.00000;  stroke:#000000; stroke-width:0.00000; stroke-opacity:1;  stroke-linecap:round; stroke-linejoin:round;fill-rule:evenodd;" d="M 135.70000,110.69500 134.70000,110.69500 134.70000,108.89500 135.70000,108.89500 Z"/> 
<path style="fill:#000000; fill-opacity:1.00000;  stroke:#000000; stroke-width:0.00000; stroke-opacity:1;  stroke-linecap:round; stroke-linejoin:round;fill-rule:evenodd;" d="M 137.45000,110.69500 136.45000,110.69500 136.45000,108.89500 137.45000,108.89500 Z"/> 
<path style="fill:#000000; fill-opacity:1.00000;  stroke:#000000; stroke-width:0.00000; stroke-opacity:1;  stroke-linecap:round; stroke-linejoin:round;fill-rule:evenodd;" d="M 139.20000,110.69500 138.20000,110.69500 138.20000,108.89500 139.20000,108.89500 Z"/> 
<path style="fill:#000000; fill-opacity:1.00000;  stroke:#000000; stroke-width:0.00000; stroke-opacity:1;  stroke-linecap:round; stroke-linejoin:round;fill-rule:evenodd;" d="M 139.20000,105.69500 138.20000,105.69500 138.20000,103.89500 139.20000,103.89500 Z"/> 
<path style="fill:#000000; fill-opacity:1.00000;  stroke:#000000; stroke-width:0.00000; stroke-opacity:1;  stroke-linecap:round; stroke-linejoin:round;fill-rule:evenodd;" d="M 137.45000,105.69500 136.45000,105.69500 136.45000,103.89500 137.45000,103.89500 Z"/> 
<path style="fill:#000000; fill-opacity:1.00000;  stroke:#000000; stroke-width:0.00000; stroke-opacity:1;  stroke-linecap:round; stroke-linejoin:round;fill-rule:evenodd;" d="M 135.70000,105.69500 134.70000,105.69500 134.70000,103.89500 135.70000,103.89500 Z"/> 
</g>
<g style="fill:#000000; fill-opacity:1.00000;  stroke:#000000; stroke-width:0.00000; stroke-opacity:1;  stroke-linecap:round; stroke-linejoin:round;">
<path style="fill:#000000; fill-opacity:1.00000;  stroke:#000000; stroke-width:0.00000; stroke-opacity:1;  stroke-linecap:round; stroke-linejoin:round;fill-rule:evenodd;" d="M 114.10000,113.23000 114.10000,111.53000 115.80000,111.53000 115.80000,113.23000 Z"/> 
<circle cx="114.95000" cy="109.84000" r="0.85000"/> 
<circle cx="114.95000" cy="107.30000" r="0.85000"/> 
<circle cx="114.95000" cy="104.76000" r="0.85000"/> 
<circle cx="114.95000" cy="102.22000" r="0.85000"/> 
</g>
<g style="fill:#000000; fill-opacity:1.00000;  stroke:#000000; stroke-width:0.00000; stroke-opacity:1;  stroke-linecap:round; stroke-linejoin:round;">
<path style="fill:#000000; fill-opacity:1.00000;  stroke:#000000; stroke-width:0.00000; stroke-opacity:1;  stroke-linecap:round; stroke-linejoin:round;fill-rule:evenodd;" d="M 125.80000,101.37000 125.80000,103.07000 124.10000,103.07000 124.10000,101.37000 Z"/> 
<circle cx="124.95000" cy="104.76000" r="0.85000"/> 
<circle cx="124.95000" cy="107.30000" r="0.85000"/> 
<circle cx="124.95000" cy="109.84000" r="0.85000"/> 
<circle cx="124.95000" cy="112.38000" r="0.85000"/> 
</g>
</g> 
</mask><mask id="hole-mask"><g><rect x="98.4625" y="92.9125" fill="white" width="51.034525" height="22.485"/><polyline stroke-linecap="round" stroke="black" stroke-width="1.0" points="-0.0 0 0.0 0" transform="translate(114.95 112.38) rotate(-0.0)"/><polyline stroke-linecap="round" stroke="black" stroke-width="1.0" points="-0.0 0 0.0 0" transform="translate(114.95 109.84) rotate(-0.0)"/><polyline stroke-linecap="round" stroke="black" stroke-width="1.0" points="-0.0 0 0.0 0" transform="translate(114.95 107.3) rotate(-0.0)"/><polyline stroke-linecap="round" stroke="black" stroke-width="1.0" points="-0.0 0 0.0 0" transform="translate(114.95 104.76) rotate(-0.0)"/><polyline stroke-linecap="round" stroke="black" stroke-width="1.0" points="-0.0 0 0.0 0" transform="translate(114.95 102.22) rotate(-0.0)"/><polyline stroke-linecap="round" stroke="black" stroke-width="1.0" points="-0.0 0 0.0 0" transform="translate(124.95 102.22) rotate(-180.0)"/><polyline stroke-linecap="round" stroke="black" stroke-width="1.0" points="-0.0 0 0.0 0" transform="translate(124.95 104.76) rotate(-180.0)"/><polyline stroke-linecap="round" stroke="black" stroke-width="1.0" points="-0.0 0 0.0 0" transform="translate(124.95 107.3) rotate(-180.0)"/><polyline stroke-linecap="round" stroke="black" stroke-width="1.0" points="-0.0 0 0.0 0" transform="translate(124.95 109.84) rotate(-180.0)"/><polyline stroke-linecap="round" stroke="black" stroke-width="1.0" points="-0.0 0 0.0 0" transform="translate(124.95 112.38) rotate(-180.0)"/></g></mask></defs><g transform="" id="boardContainer"><g id="substrate" clip-path="url(#cut-off)" mask="url(#hole-mask)"><g id="substrate-board" style="fill:#1b1f44; stroke:#1b1f44;"><path d=" M 100.0 100.0 L 140.0 100.0 L 140.0 114.25 L 100.0 114.25 L 100.0 100.0 " style="fill-rule: evenodd;"/><g style="fill-opacity: 0.0;stroke-width: 0.05000;stroke-opacity: 1;stroke-linecap: round;stroke-linejoin: round">
<path d="M100.00000 114.25000 L100.00000 100.00000 "/>
<path d="M140.00000 100.00000 L140.00000 114.25000 "/>
<path d="M100.00000 114.25000 L140.00000 114.25000 "/>
<path d="M100.00000 100.00000 L140.00000 100.00000 "/>
</g> 
</g><g id="substrate-clad" style="fill:#72786c; stroke:#72786c;"><g style="fill-opacity: 0.0;stroke-width: 0.00000;stroke-opacity: 1;stroke-linecap: round;stroke-linejoin: round">
<g style="fill-opacity: 1.00000;stroke-width: 0.00000;stroke-opacity: 1;stroke-linecap: round;stroke-linejoin: round">
<path style="fill-opacity: 1.00000;stroke-width: 0.00000;stroke-opacity: 1;stroke-linecap: round;stroke-linejoin: round;fill-rule: evenodd" d="M 104.20000,103.89500 105.20000,103.89500 105.20000,105.69500 104.20000,105.69500 Z"/> 
<path style="fill-opacity: 1.00000;stroke-width: 0.00000;stroke-opacity: 1;stroke-linecap: round;stroke-linejoin: round;fill-rule: evenodd" d="M 102.45000,103.89500 103.45000,103.89500 103.45000,105.69500 102.45000,105.69500 Z"/> 
<path style="fill-opacity: 1.00000;stroke-width: 0.00000;stroke-opacity: 1;stroke-linecap: round;stroke-linejoin: round;fill-rule: evenodd" d="M 100.70000,103.89500 101.70000,103.89500 101.70000,105.69500 100.70000,105.69500 Z"/> 
<path style="fill-opacity: 1.00000;stroke-width: 0.00000;stroke-opacity: 1;stroke-linecap: round;stroke-linejoin: round;fill-rule: evenodd" d="M 100.70000,108.89500 101.70000,108.89500 101.70000,110.69500 100.70000,110.69500 Z"/> 
<path style="fill-opacity: 1.00000;stroke-width: 0.00000;stroke-opacity: 1;stroke-linecap: round;stroke-linejoin: round;fill-rule: evenodd" d="M 102.45000,108.89500 103.45000,108.89500 103.45000,110.69500 102.45000,110.69500 Z"/> 
<path style="fill-opacity: 1.00000;stroke-width: 0.00000;stroke-opacity: 1;stroke-linecap: round;stroke-linejoin: round;fill-rule: evenodd" d="M 104.20000,108.89500 105.20000,108.89500 105.20000,110.69500 104.20000,110.69500 Z"/> 
</g>
<g style="fill-opacity: 1.00000;stroke-width: 0.00000;stroke-opacity: 1;stroke-linecap: round;stroke-linejoin: round">
<path style="fill-opacity: 1.00000;stroke-width: 0.00000;stroke-opacity: 1;stroke-linecap: round;stroke-linejoin: round;fill-rule: evenodd" d="M 121.20000,103.89500 122.20000,103.89500 122.20000,105.69500 121.20000,105.69500 Z"/> 
<path style="fill-opacity: 1.00000;stroke-width: 0.00000;stroke-opacity: 1;stroke-linecap: round;stroke-linejoin: round;fill-rule: evenodd" d="M 119.45000,103.89500 120.45000,103.89500 120.45000,105.69500 119.45000,105.69500 Z"/> 
<path style="fill-opacity: 1.00000;stroke-width: 0.00000;stroke-opacity: 1;stroke-linecap: round;stroke-linejoin: round;fill-rule: evenodd" d="M 117.70000,103.89500 118.70000,103.89500 118.70000,105.69500 117.70000,105.69500 Z"/> 
<path style="fill-opacity: 1.00000;stroke-width: 0.00000;stroke-opacity: 1;stroke-linecap: round;stroke-linejoin: round;fill-rule: evenodd" d="M 117.70000,108.89500 118.70000,108.89500 118.70000,110.69500 117.70000,110.69500 Z"/> 
<path style="fill-opacity: 1.00000;stroke-width: 0.00000;stroke-opacity: 1;stroke-linecap: round;stroke-linejoin: round;fill-rule: evenodd" d="M 119.45000,108.89500 120.45000,108.89500 120.45000,110.69500 119.45000,110.69500 Z"/> 
<path style="fill-opacity: 1.00000;stroke-width: 0.00000;stroke-opacity: 1;stroke-linecap: round;stroke-linejoin: round;fill-rule: evenodd" d="M 121.20000,108.89500 122.20000,108.89500 122.20000,110.69500 121.20000,110.69500 Z"/> 
</g>
<g style="fill-opacity: 1.00000;stroke-width: 0.00000;stroke-opacity: 1;stroke-linecap: round;stroke-linejoin: round">
<path style="fill-opacity: 1.00000;stroke-width: 0.00000;stroke-opacity: 1;stroke-linecap: round;stroke-linejoin: round;fill-rule: evenodd" d="M 135.70000,110.69500 134.70000,110.69500 134.70000,108.89500 135.70000,108.89500 Z"/> 
<path style="fill-opacity: 1.00000;stroke-width: 0.00000;stroke-opacity: 1;stroke-linecap: round;stroke-linejoin: round;fill-rule: evenodd" d="M 137.45000,110.69500 136.45000,110.69500 136.45000,108.89500 137.45000,108.89500 Z"/> 
<path style="fill-opacity: 1.00000;stroke-width: 0.00000;stroke-opacity: 1;stroke-linecap: round;stroke-linejoin: round;fill-rule: evenodd" d="M 139.20000,110.69500 138.20000,110.69500 138.20000,108.89500 139.20000,108.89500 Z"/> 
<path style="fill-opacity: 1.00000;stroke-width: 0.00000;stroke-opacity: 1;stroke-linecap: round;stroke-linejoin: round;fill-rule: evenodd" d="M 139.20000,105.69500 138.20000,105.69500 138.20000,103.89500 139.20000,103.89500 Z"/> 
<path style="fill-opacity: 1.00000;stroke-width: 0.00000;stroke-opacity: 1;stroke-linecap: round;stroke-linejoin: round;fill-rule: evenodd" d="M 137.45000,105.69500 136.45000,105.69500 136.45000,103.89500 137.45000,103.89500 Z"/> 
<path style="fill-opacity: 1.00000;stroke-width: 0.00000;stroke-opacity: 1;stroke-linecap: round;stroke-linejoin: round;fill-rule: evenodd" d="M 135.70000,105.69500 134.70000,105.69500 134.70000,103.89500 135.70000,103.89500 Z"/> 
</g>
<g style="fill-opacity: 1.00000;stroke-width: 0.00000;stroke-opacity: 1;stroke-linecap: round;stroke-linejoin: round">
<path style="fill-opacity: 1.00000;stroke-width: 0.00000;stroke-opacity: 1;stroke-linecap: round;stroke-linejoin: round;fill-rule: evenodd" d="M 114.10000,113.23000 114.10000,111.53000 115.80000,111.53000 115.80000,113.23000 Z"/> 
<circle cx="114.95000" cy="109.84000" r="0.85000"/> 
<circle cx="114.95000" cy="107.30000" r="0.85000"/> 
<circle cx="114.95000" cy="104.76000" r="0.85000"/> 
<circle cx="114.95000" cy="102.22000" r="0.85000"/> 
</g>
<g style="fill-opacity: 1.00000;stroke-width: 0.00000;stroke-opacity: 1;stroke-linecap: round;stroke-linejoin: round">
<path style="fill-opacity: 1.00000;stroke-width: 0.00000;stroke-opacity: 1;stroke-linecap: round;stroke-linejoin: round;fill-rule: evenodd" d="M 125.80000,101.37000 125.80000,103.07000 124.10000,103.07000 124.10000,101.37000 Z"/> 
<circle cx="124.95000" cy="104.76000" r="0.85000"/> 
<circle cx="124.95000" cy="107.30000" r="0.85000"/> 
<circle cx="124.95000" cy="109.84000" r="0.85000"/> 
<circle cx="124.95000" cy="112.38000" r="0.85000"/> 
</g>
</g> 
</g><g id="substrate-copper" style="fill:#00406a; stroke:#00406a;"><g style="fill-opacity: 0.0;stroke-width: 0.00000;stroke-opacity: 1;stroke-linecap: round;stroke-linejoin: round">
<g style="fill-opacity: 1.00000;stroke-width: 0.00000;stroke-opacity: 1;stroke-linecap: round;stroke-linejoin: round">
<path style="fill-opacity: 1.00000;stroke-width: 0.00000;stroke-opacity: 1;stroke-linecap: round;stroke-linejoin: round;fill-rule: evenodd" d="M 104.20000,103.89500 105.20000,103.89500 105.20000,105.69500 104.20000,105.69500 Z"/> 
<path style="fill-opacity: 1.00000;stroke-width: 0.00000;stroke-opacity: 1;stroke-linecap: round;stroke-linejoin: round;fill-rule: evenodd" d="M 102.45000,103.89500 103.45000,103.89500 103.45000,105.69500 102.45000,105.69500 Z"/> 
<path style="fill-opacity: 1.00000;stroke-width: 0.00000;stroke-opacity: 1;stroke-linecap: round;stroke-linejoin: round;fill-rule: evenodd" d="M 100.70000,103.89500 101.70000,103.89500 101.70000,105.69500 100.70000,105.69500 Z"/> 
<path style="fill-opacity: 1.00000;stroke-width: 0.00000;stroke-opacity: 1;stroke-linecap: round;stroke-linejoin: round;fill-rule: evenodd" d="M 100.70000,108.89500 101.70000,108.89500 101.70000,110.69500 100.70000,110.69500 Z"/> 
<path style="fill-opacity: 1.00000;stroke-width: 0.00000;stroke-opacity: 1;stroke-linecap: round;stroke-linejoin: round;fill-rule: evenodd" d="M 102.45000,108.89500 103.45000,108.89500 103.45000,110.69500 102.45000,110.69500 Z"/> 
<path style="fill-opacity: 1.00000;stroke-width: 0.00000;stroke-opacity: 1;stroke-linecap: round;stroke-linejoin: round;fill-rule: evenodd" d="M 104.20000,108.89500 105.20000,108.89500 105.20000,110.69500 104.20000,110.69500 Z"/> 
</g>
<g style="fill-opacity: 1.00000;stroke-width: 0.00000;stroke-opacity: 1;stroke-linecap: round;stroke-linejoin: round">
<path style="fill-opacity: 1.00000;stroke-width: 0.00000;stroke-opacity: 1;stroke-linecap: round;stroke-linejoin: round;fill-rule: evenodd" d="M 121.20000,103.89500 122.20000,103.89500 122.20000,105.69500 121.20000,105.69500 Z"/> 
<path style="fill-opacity: 1.00000;stroke-width: 0.00000;stroke-opacity: 1;stroke-linecap: round;stroke-linejoin: round;fill-rule: evenodd" d="M 119.45000,103.89500 120.45000,103.89500 120.45000,105.69500 119.45000,105.69500 Z"/> 
<path style="fill-opacity: 1.00000;stroke-width: 0.00000;stroke-opacity: 1;stroke-linecap: round;stroke-linejoin: round;fill-rule: evenodd" d="M 117.70000,103.89500 118.70000,103.89500 118.70000,105.69500 117.70000,105.69500 Z"/> 
<path style="fill-opacity: 1.00000;stroke-width: 0.00000;stroke-opacity: 1;stroke-linecap: round;stroke-linejoin: round;fill-rule: evenodd" d="M 117.70000,108.89500 118.70000,108.89500 118.70000,110.69500 117.70000,110.69500 Z"/> 
<path style="fill-opacity: 1.00000;stroke-width: 0.00000;stroke-opacity: 1;stroke-linecap: round;stroke-linejoin: round;fill-rule: evenodd" d="M 119.45000,108.89500 120.45000,108.89500 120.45000,110.69500 119.45000,110.69500 Z"/> 
<path style="fill-opacity: 1.00000;stroke-width: 0.00000;stroke-opacity: 1;stroke-linecap: round;stroke-linejoin: round;fill-rule: evenodd" d="M 121.20000,108.89500 122.20000,108.89500 122.20000,110.69500 121.20000,110.69500 Z"/> 
</g>
<g style="fill-opacity: 1.00000;stroke-width: 0.00000;stroke-opacity: 1;stroke-linecap: round;stroke-linejoin: round">
<path style="fill-opacity: 1.00000;stroke-width: 0.00000;stroke-opacity: 1;stroke-linecap: round;stroke-linejoin: round;fill-rule: evenodd" d="M 135.70000,110.69500 134.70000,110.69500 134.70000,108.89500 135.70000,108.89500 Z"/> 
<path style="fill-opacity: 1.00000;stroke-width: 0.00000;stroke-opacity: 1;stroke-linecap: round;stroke-linejoin: round;fill-rule: evenodd" d="M 137.45000,110.69500 136.45000,110.69500 136.45000,108.89500 137.45000,108.89500 Z"/> 
<path style="fill-opacity: 1.00000;stroke-width: 0.00000;stroke-opacity: 1;stroke-linecap: round;stroke-linejoin: round;fill-rule: evenodd" d="M 139.20000,110.69500 138.20000,110.69500 138.20000,108.89500 139.20000,108.89500 Z"/> 
<path style="fill-opacity: 1.00000;stroke-width: 0.00000;stroke-opacity: 1;stroke-linecap: round;stroke-linejoin: round;fill-rule: evenodd" d="M 139.20000,105.69500 138.20000,105.69500 138.20000,103.89500 139.20000,103.89500 Z"/> 
<path style="fill-opacity: 1.00000;stroke-width: 0.00000;stroke-opacity: 1;stroke-linecap: round;stroke-linejoin: round;fill-rule: evenodd" d="M 137.45000,105.69500 136.45000,105.69500 136.45000,103.89500 137.45000,103.89500 Z"/> 
<path style="fill-opacity: 1.00000;stroke-width: 0.00000;stroke-opacity: 1;stroke-linecap: round;stroke-linejoin: round;fill-rule: evenodd" d="M 135.70000,105.69500 134.70000,105.69500 134.70000,103.89500 135.70000,103.89500 Z"/> 
</g>
<g style="fill-opacity: 1.00000;stroke-width: 0.00000;stroke-opacity: 1;stroke-linecap: round;stroke-linejoin: round">
<path style="fill-opacity: 1.00000;stroke-width: 0.00000;stroke-opacity: 1;stroke-linecap: round;stroke-linejoin: round;fill-rule: evenodd" d="M 114.10000,113.23000 114.10000,111.53000 115.80000,111.53000 115.80000,113.23000 Z"/> 
<circle cx="114.95000" cy="109.84000" r="0.85000"/> 
<circle cx="114.95000" cy="107.30000" r="0.85000"/> 
<circle cx="114.95000" cy="104.76000" r="0.85000"/> 
<circle cx="114.95000" cy="102.22000" r="0.85000"/> 
</g>
<g style="fill-opacity: 1.00000;stroke-width: 0.00000;stroke-opacity: 1;stroke-linecap: round;stroke-linejoin: round">
<path style="fill-opacity: 1.00000;stroke-width: 0.00000;stroke-opacity: 1;stroke-linecap: round;stroke-linejoin: round;fill-rule: evenodd" d="M 125.80000,101.37000 125.80000,103.07000 124.10000,103.07000 124.10000,101.37000 Z"/> 
<circle cx="124.95000" cy="104.76000" r="0.85000"/> 
<circle cx="124.95000" cy="107.30000" r="0.85000"/> 
<circle cx="124.95000" cy="109.84000" r="0.85000"/> 
<circle cx="124.95000" cy="112.38000" r="0.85000"/> 
</g>
<g style="fill-opacity: 0.0;stroke-width: 0.50800;stroke-opacity: 1;stroke-linecap: round;stroke-linejoin: round">
<path d="M124.98500 104.79500 L124.95000 104.76000 "/>
<path d="M135.20000 104.79500 L124.98500 104.79500 "/>
<path d="M121.70000 109.79500 L124.90500 109.79500 "/>
<path d="M124.90500 109.79500 L124.95000 109.84000 "/>
<path d="M136.95000 105.19500 L136.95000 104.79500 "/>
<path d="M124.95000 109.84000 L132.30500 109.84000 "/>
<path d="M132.30500 109.84000 L136.95000 105.19500 "/>
<path d="M114.95000 112.38000 L115.61500 112.38000 "/>
<path d="M124.95000 102.22000 L137.53300 102.22000 "/>
<path d="M115.61500 112.38000 L118.20000 109.79500 "/>
<path d="M101.20000 109.79500 L101.20000 111.20300 "/>
<path d="M137.53300 102.22000 L138.70000 103.38700 "/>
<path d="M101.20000 111.20300 L102.37700 112.38000 "/>
<path d="M102.37700 112.38000 L114.95000 112.38000 "/>
<path d="M138.70000 103.38700 L138.70000 104.79500 "/>
</g>
<g style="fill-opacity: 0.0;stroke-width: 0.38100;stroke-opacity: 1;stroke-linecap: round;stroke-linejoin: round">
<path d="M105.94290 108.55210 L118.97432 108.55210 "/>
</g>
<g style="fill-opacity: 0.0;stroke-width: 0.50800;stroke-opacity: 1;stroke-linecap: round;stroke-linejoin: round">
<path d="M138.70000 111.20300 L136.26660 113.63640 "/>
<path d="M123.40988 113.63640 L119.95000 110.17652 "/>
</g>
<g style="fill-opacity: 0.0;stroke-width: 0.38100;stroke-opacity: 1;stroke-linecap: round;stroke-linejoin: round">
<path d="M119.95000 109.52778 L119.95000 109.79500 "/>
<path d="M118.97432 108.55210 L119.95000 109.52778 "/>
<path d="M104.70000 109.79500 L105.94290 108.55210 "/>
</g>
<g style="fill-opacity: 0.0;stroke-width: 0.50800;stroke-opacity: 1;stroke-linecap: round;stroke-linejoin: round">
<path d="M119.95000 110.17652 L119.95000 109.79500 "/>
<path d="M138.70000 109.79500 L138.70000 111.20300 "/>
<path d="M136.26660 113.63640 L123.40988 113.63640 "/>
<path d="M107.27500 102.22000 L104.70000 104.79500 "/>
<path d="M114.95000 102.22000 L120.53300 102.22000 "/>
<path d="M121.70000 103.38700 L121.70000 104.79500 "/>
<path d="M132.61500 112.38000 L135.20000 109.79500 "/>
<path d="M120.53300 102.22000 L121.70000 103.38700 "/>
<path d="M124.95000 112.38000 L132.61500 112.38000 "/>
<path d="M114.95000 102.22000 L107.27500 102.22000 "/>
</g>
<g style="fill-opacity: 0.0;stroke-width: 0.38100;stroke-opacity: 1;stroke-linecap: round;stroke-linejoin: round">
<path d="M105.41900 106.04500 L116.95000 106.04500 "/>
<path d="M116.95000 106.04500 L118.20000 104.79500 "/>
<path d="M102.95000 109.79500 L102.95000 108.51400 "/>
<path d="M102.95000 108.51400 L105.41900 106.04500 "/>
<path d="M123.44400 105.79400 L124.95000 107.30000 "/>
<path d="M123.44400 103.88600 L123.44400 105.79400 "/>
<path d="M101.20000 104.79500 L101.20000 103.51400 "/>
<path d="M101.20000 103.51400 L103.87600 100.83800 "/>
<path d="M120.39600 100.83800 L123.44400 103.88600 "/>
<path d="M103.87600 100.83800 L120.39600 100.83800 "/>
</g>
<g style="fill-opacity: 0.0;stroke-width: 0.38100;stroke-opacity: 1;stroke-linecap: round;stroke-linejoin: round">
<g style="fill-opacity: 1.00000;stroke-width: 0.00000;stroke-opacity: 1;stroke-linecap: round;stroke-linejoin: round">
<path style="fill-opacity: 1.00000;stroke-width: 0.00000;stroke-opacity: 1;stroke-linecap: round;stroke-linejoin: round;fill-rule: evenodd" d="M 139.70453,100.27321 139.74108,100.32351 139.74600,100.35460 139.74600,113.89540 139.72679,113.95453 139.67649,113.99108 139.64540,113.99600 136.86900,113.99600 136.80987,113.97679 136.77332,113.92649 136.77332,113.86431 136.79786,113.82426 137.84949,112.77264 139.01132,111.61081 139.02145,111.60271 139.02144,111.60269 139.02689,111.59805 139.03296,111.59422 139.06910,111.55330 139.07337,111.54876 139.08538,111.53674 139.08752,111.53389 139.08753,111.53388 139.09227,111.52755 139.09737,111.52129 139.12464,111.49042 139.12938,111.48505 139.13276,111.47784 139.13381,111.47561 139.14436,111.45805 139.14632,111.45544 139.14632,111.45544 139.15062,111.44970 139.16760,111.40440 139.17073,111.39696 139.18823,111.35969 139.19128,111.35320 139.19288,111.34291 139.19808,111.32308 139.19923,111.32003 139.19923,111.32003 139.20174,111.31332 139.20533,111.26509 139.20625,111.25707 139.20790,111.24645 139.20790,111.24645 139.20850,111.24261 139.20850,111.22614 139.20878,111.21868 139.21201,111.17520 139.21254,111.16806 139.21104,111.16105 139.21072,111.15952 139.20850,111.13852 139.20850,111.03535 139.22771,110.97622 139.27801,110.93968 139.28946,110.93669 139.29930,110.93473 139.31224,110.92609 139.37525,110.88399 139.37525,110.88399 139.38348,110.87848 139.43973,110.79430 139.45450,110.72007 139.45450,108.86993 139.43973,108.79570 139.43423,108.78746 139.38899,108.71975 139.38348,108.71152 139.37525,108.70601 139.35710,108.69388 139.29930,108.65527 139.25076,108.64561 139.22992,108.64146 139.22992,108.64146 139.22507,108.64050 139.22012,108.64050 138.69952,108.64050 138.17493,108.64050 138.13945,108.64756 138.11042,108.65333 138.11041,108.65333 138.10070,108.65527 138.09246,108.66077 138.09246,108.66077 138.02475,108.70601 138.01652,108.71152 137.96027,108.79570 137.95833,108.80542 137.94722,108.86127 137.94550,108.86993 137.94550,110.72007 137.96027,110.79430 137.96577,110.80254 137.96577,110.80254 137.97397,110.81481 138.01652,110.87848 138.07752,110.91924 138.08776,110.92609 138.12625,110.97491 138.12869,111.03704 138.10300,111.08087 136.42973,112.75414 136.37434,112.78236 136.31293,112.77264 136.26896,112.72867 136.25800,112.68300 136.25800,111.03888 136.27721,110.97974 136.32751,110.94320 136.37822,110.94021 136.42493,110.94950 136.42988,110.94950 136.95048,110.94950 137.47507,110.94950 137.51055,110.94244 137.53958,110.93667 137.53959,110.93667 137.54930,110.93473 137.56224,110.92609 137.62525,110.88399 137.62525,110.88399 137.63348,110.87848 137.68973,110.79430 137.70450,110.72007 137.70450,108.86993 137.68973,108.79570 137.68423,108.78746 137.63899,108.71975 137.63348,108.71152 137.62525,108.70601 137.60710,108.69388 137.54930,108.65527 137.50076,108.64561 137.47992,108.64146 137.47992,108.64146 137.47507,108.64050 137.47012,108.64050 136.94952,108.64050 136.42493,108.64050 136.38945,108.64756 136.36042,108.65333 136.36041,108.65333 136.35070,108.65527 136.34246,108.66077 136.33330,108.66456 136.33212,108.66172 136.28770,108.67424 136.22937,108.65271 136.20284,108.61545 136.20087,108.61643 136.19801,108.61069 136.19591,108.60464 136.11558,108.48442 136.11318,108.48174 136.11317,108.48174 136.07054,108.43427 136.06813,108.43160 136.05734,108.42258 135.96847,108.34831 135.95719,108.33888 135.95060,108.33601 135.95059,108.33601 135.82791,108.28261 135.82791,108.28261 135.82462,108.28117 135.75615,108.26239 135.75259,108.26194 135.75259,108.26194 135.68442,108.25338 135.61268,108.24437 135.60909,108.24443 135.60909,108.24443 135.21437,108.25148 135.21241,108.25152 134.85080,108.25798 134.79134,108.23982 134.75390,108.19018 134.75279,108.12802 134.77787,108.08626 136.88516,105.97897 136.94056,105.95074 136.95630,105.94950 137.41569,105.94950 137.47507,105.94950 137.51055,105.94244 137.53958,105.93667 137.53959,105.93667 137.54930,105.93473 137.56188,105.92633 137.62525,105.88399 137.63348,105.87848 137.68973,105.79430 137.70450,105.72007 137.70450,103.86993 137.69673,103.83088 137.69167,103.80542 137.69167,103.80541 137.68973,103.79570 137.68423,103.78746 137.63899,103.71975 137.63348,103.71152 137.62525,103.70601 137.59474,103.68563 137.54930,103.65527 137.49200,103.64387 137.47992,103.64146 137.47992,103.64146 137.47507,103.64050 137.47012,103.64050 136.94952,103.64050 136.42493,103.64050 136.38945,103.64756 136.36042,103.65333 136.36041,103.65333 136.35070,103.65527 136.34246,103.66077 136.34246,103.66077 136.27475,103.70601 136.26652,103.71152 136.21027,103.79570 136.19550,103.86993 136.19550,103.87488 136.19550,105.18870 136.17629,105.24783 136.16604,105.25984 136.12623,105.29964 136.07084,105.32786 136.00943,105.31814 135.96546,105.27417 135.95450,105.22850 135.95450,103.87487 135.95450,103.86993 135.94673,103.83088 135.94167,103.80542 135.94167,103.80541 135.93973,103.79570 135.93423,103.78746 135.88899,103.71975 135.88348,103.71152 135.87525,103.70601 135.84474,103.68563 135.79930,103.65527 135.74200,103.64387 135.72992,103.64146 135.72992,103.64146 135.72507,103.64050 135.72012,103.64050 135.19952,103.64050 134.67493,103.64050 134.63945,103.64756 134.61042,103.65333 134.61041,103.65333 134.60070,103.65527 134.59246,103.66077 134.59246,103.66077 134.52475,103.70601 134.51652,103.71152 134.46027,103.79570 134.44550,103.86993 134.44550,104.18590 134.42629,104.24503 134.37599,104.28158 134.34490,104.28650 126.01064,104.28650 125.95151,104.26729 125.92042,104.23040 125.89847,104.18590 125.89578,104.18043 125.77432,104.01778 125.62526,103.87999 125.62136,103.87753 125.62136,103.87752 125.53942,103.82583 125.45358,103.77167 125.39618,103.74877 125.26932,103.69816 125.26504,103.69645 125.06595,103.65684 124.96446,103.65551 124.86758,103.65425 124.86758,103.65425 124.86297,103.65419 124.66291,103.68856 124.65859,103.69016 124.65859,103.69016 124.47679,103.75723 124.47679,103.75723 124.47246,103.75882 124.29801,103.86261 124.29454,103.86565 124.29454,103.86565 124.14886,103.99341 124.14886,103.99342 124.14539,103.99645 124.14254,104.00007 124.14254,104.00007 124.06860,104.09386 124.01691,104.12840 123.95478,104.12596 123.90595,104.08747 123.88900,104.03158 123.88900,103.91839 123.88970,103.90656 123.89292,103.87933 123.89292,103.87932 123.89380,103.87186 123.88332,103.81445 123.88280,103.81135 123.88191,103.80542 123.87413,103.75367 123.87104,103.74724 123.86976,103.74023 123.84702,103.69645 123.84287,103.68846 123.84146,103.68563 123.81946,103.63983 123.81946,103.63983 123.81621,103.63305 123.81208,103.62858 123.81072,103.62656 123.80808,103.62148 123.80382,103.61649 123.76669,103.57936 123.76395,103.57652 123.73599,103.54627 123.72537,103.53479 123.71936,103.53129 123.71225,103.52493 120.73356,100.54624 120.72570,100.53739 120.70872,100.51585 120.70406,100.50995 120.66014,100.47959 120.65608,100.47678 120.65351,100.47494 120.61263,100.44475 120.61262,100.44475 120.60658,100.44028 120.60658,100.44028 120.60658,100.44028 120.60683,100.43994 120.56701,100.39886 120.55825,100.33731 120.58735,100.28236 120.64318,100.25500 120.65736,100.25400 139.64540,100.25400 Z"/> 
<path style="fill-opacity: 1.00000;stroke-width: 0.00000;stroke-opacity: 1;stroke-linecap: round;stroke-linejoin: round;fill-rule: evenodd" d="M 103.43707,102.00456 103.48103,102.04852 103.49200,102.09419 103.49200,103.53990 103.47279,103.59903 103.42249,103.63558 103.39140,103.64050 102.48346,103.64050 102.42493,103.64050 102.38945,103.64756 102.36042,103.65333 102.36041,103.65333 102.35070,103.65527 102.34246,103.66077 102.34246,103.66077 102.27475,103.70601 102.26652,103.71152 102.21027,103.79570 102.19550,103.86993 102.19550,105.72007 102.19792,105.73225 102.20833,105.78458 102.20833,105.78459 102.21027,105.79430 102.21577,105.80254 102.21577,105.80254 102.25920,105.86753 102.26652,105.87848 102.35070,105.93473 102.37602,105.93977 102.42008,105.94853 102.42008,105.94853 102.42493,105.94950 102.50543,105.94950 103.41547,105.94950 103.47460,105.96871 103.51115,106.01901 103.51377,106.02871 103.51499,106.03432 103.54929,106.13737 103.55270,106.14267 103.62552,106.25598 103.62552,106.25599 103.62747,106.25901 103.65677,106.29283 103.67161,106.30996 103.67396,106.31267 103.78323,106.40735 103.78978,106.41034 103.78978,106.41034 103.86161,106.44315 103.91476,106.46742 103.93050,106.47204 103.97943,106.48641 103.97944,106.48641 103.98288,106.48742 103.98643,106.48793 103.98644,106.48793 104.04526,106.49639 104.10252,106.50462 104.15832,106.53206 104.18733,106.58704 104.17848,106.64859 104.15934,106.67533 102.65824,108.17644 102.64938,108.18430 102.64218,108.18998 102.62194,108.20594 102.61767,108.21213 102.58878,108.25392 102.58694,108.25649 102.55675,108.29737 102.55675,108.29737 102.55228,108.30342 102.54992,108.31015 102.54586,108.31602 102.54360,108.32319 102.54359,108.32319 102.52827,108.37165 102.52728,108.37460 102.50794,108.42967 102.50771,108.43577 102.50724,108.43813 102.50551,108.44360 102.50500,108.45014 102.50500,108.50267 102.50492,108.50662 102.50336,108.54627 102.48184,108.60461 102.43015,108.63915 102.42247,108.64099 102.40543,108.64438 102.36042,108.65333 102.36041,108.65333 102.35070,108.65527 102.34246,108.66077 102.34246,108.66077 102.27475,108.70601 102.26652,108.71152 102.21027,108.79570 102.20833,108.80542 102.19722,108.86127 102.19550,108.86993 102.19550,110.72007 102.21027,110.79430 102.21577,110.80254 102.21577,110.80254 102.22397,110.81481 102.26652,110.87848 102.35070,110.93473 102.37822,110.94021 102.42008,110.94853 102.42008,110.94853 102.42493,110.94950 102.42988,110.94950 102.95048,110.94950 103.47507,110.94950 103.51055,110.94244 103.53958,110.93667 103.53959,110.93667 103.54930,110.93473 103.56224,110.92609 103.62525,110.88399 103.62525,110.88399 103.63348,110.87848 103.68973,110.79430 103.70450,110.72007 103.70450,108.86993 103.68973,108.79570 103.68423,108.78746 103.63899,108.71975 103.63348,108.71152 103.62525,108.70601 103.62525,108.70601 103.58454,108.67881 103.54605,108.62998 103.54361,108.56786 103.56929,108.52403 105.57386,106.51946 105.62926,106.49124 105.64499,106.49000 113.97461,106.49000 114.03374,106.50921 114.07028,106.55951 114.07028,106.62169 114.05361,106.65288 114.01972,106.69587 113.92520,106.87551 113.86501,107.06938 113.84115,107.27096 113.85442,107.47352 113.85556,107.47798 113.87723,107.56331 113.90439,107.67027 113.98938,107.85462 113.99204,107.85838 113.99204,107.85839 114.05568,107.94844 114.07412,108.00782 114.05413,108.06669 114.00336,108.10257 113.97353,108.10710 105.97529,108.10710 105.96346,108.10640 105.93623,108.10318 105.93623,108.10318 105.92876,108.10229 105.87137,108.11278 105.86827,108.11329 105.81058,108.12197 105.80414,108.12505 105.79713,108.12634 105.75987,108.14569 105.74537,108.15322 105.74255,108.15463 105.72713,108.16203 105.68995,108.17989 105.68547,108.18403 105.68347,108.18538 105.67838,108.18802 105.67339,108.19228 105.63626,108.22941 105.63342,108.23215 105.59169,108.27072 105.58819,108.27674 105.58183,108.28385 105.25464,108.61104 105.19924,108.63926 105.18350,108.64050 104.28645,108.64050 104.17493,108.64050 104.13945,108.64756 104.11042,108.65333 104.11041,108.65333 104.10070,108.65527 104.09246,108.66077 104.09246,108.66077 104.02475,108.70601 104.01652,108.71152 103.96027,108.79570 103.95833,108.80542 103.94722,108.86127 103.94550,108.86993 103.94550,110.72007 103.96027,110.79430 103.96577,110.80254 103.96577,110.80254 103.97397,110.81481 104.01652,110.87848 104.10070,110.93473 104.12822,110.94021 104.17008,110.94853 104.17008,110.94853 104.17493,110.94950 104.17988,110.94950 104.70048,110.94950 105.22507,110.94950 105.26055,110.94244 105.28958,110.93667 105.28959,110.93667 105.29930,110.93473 105.31224,110.92609 105.37525,110.88399 105.37525,110.88399 105.38348,110.87848 105.43973,110.79430 105.45450,110.72007 105.45450,109.71150 105.47371,109.65236 105.48396,109.64036 106.09776,109.02656 106.15316,108.99834 106.16890,108.99710 114.00054,108.99710 114.05967,109.01631 114.09622,109.06661 114.09622,109.12879 114.07955,109.15998 114.01972,109.23587 113.92520,109.41551 113.86501,109.60938 113.84115,109.81096 113.85442,110.01352 113.85556,110.01798 113.87723,110.10331 113.90439,110.21027 113.98938,110.39462 114.10653,110.56039 114.25194,110.70203 114.25577,110.70460 114.25577,110.70460 114.28617,110.72491 114.42072,110.81481 114.42496,110.81663 114.42496,110.81663 114.60299,110.89312 114.60723,110.89494 114.70516,110.91710 114.80072,110.93872 114.80072,110.93872 114.80522,110.93974 114.90663,110.94373 115.00344,110.94753 115.00344,110.94753 115.00805,110.94771 115.01261,110.94705 115.01261,110.94705 115.10850,110.93315 115.20894,110.91858 115.40116,110.85333 115.57828,110.75415 115.61343,110.72491 115.73080,110.62729 115.73434,110.62434 115.74574,110.61065 115.86120,110.47182 115.86120,110.47182 115.86415,110.46828 115.96333,110.29116 116.02858,110.09895 116.05771,109.89805 116.05923,109.84000 116.05614,109.80638 116.04108,109.64245 116.04108,109.64244 116.04066,109.63786 115.98556,109.44249 115.89578,109.26043 115.89302,109.25674 115.89302,109.25673 115.81921,109.15789 115.79922,109.09902 115.81766,109.03964 115.86748,109.00244 115.89981,108.99710 118.74833,108.99710 118.80746,109.01631 118.81946,109.02656 119.16603,109.37314 119.19426,109.42854 119.19550,109.44427 119.19550,110.72007 119.21027,110.79430 119.21577,110.80254 119.21577,110.80254 119.22397,110.81481 119.26652,110.87848 119.35070,110.93473 119.37822,110.94021 119.42008,110.94853 119.42008,110.94853 119.42493,110.94950 119.48637,110.94950 119.96218,110.94950 120.02131,110.96871 120.03331,110.97896 122.87861,113.82426 122.90684,113.87966 122.89711,113.94107 122.85315,113.98503 122.80748,113.99600 100.35460,113.99600 100.29547,113.97679 100.25892,113.92649 100.25400,113.89540 100.25400,105.77874 100.27321,105.71961 100.32351,105.68306 100.38569,105.68306 100.43599,105.71961 100.45327,105.75911 100.46027,105.79430 100.46577,105.80254 100.46577,105.80254 100.50920,105.86753 100.51652,105.87848 100.60070,105.93473 100.62602,105.93977 100.67008,105.94853 100.67008,105.94853 100.67493,105.94950 100.67988,105.94950 101.20048,105.94950 101.72507,105.94950 101.76055,105.94244 101.78958,105.93667 101.78959,105.93667 101.79930,105.93473 101.81188,105.92633 101.87525,105.88399 101.88348,105.87848 101.93973,105.79430 101.95450,105.72007 101.95450,103.86993 101.94673,103.83088 101.94167,103.80542 101.94167,103.80541 101.93973,103.79570 101.93423,103.78746 101.88899,103.71975 101.88348,103.71152 101.87525,103.70601 101.87525,103.70601 101.83454,103.67881 101.79605,103.62998 101.79361,103.56786 101.81929,103.52403 103.32026,102.02306 103.37566,101.99483 Z"/> 
</g>
</g>
<g style="fill-opacity: 1.00000;stroke-width: 0.00000;stroke-opacity: 1;stroke-linecap: round;stroke-linejoin: round">
<g>
<path style="fill-opacity: 1.00000;stroke-width: 0.00000;stroke-opacity: 1;stroke-linecap: round;stroke-linejoin: round;fill-rule: evenodd" d="M 135.69022,108.77107 135.73766,108.82389 135.75000,108.87827 135.75000,112.74790 135.73000,112.81602 135.67634,112.86252 135.62400,112.87390 123.77791,112.87390 123.70979,112.85390 123.68881,112.83700 122.25752,111.40571 122.22350,111.34340 122.22856,111.27258 122.27111,111.21574 122.31052,111.19729 122.31032,111.19674 122.31712,111.19420 122.44670,111.14561 122.56326,111.05826 122.65061,110.94170 122.70174,110.80532 122.70850,110.74313 122.70850,110.68350 122.72850,110.61538 122.78216,110.56889 122.83450,110.55750 123.72575,110.55750 123.79387,110.57750 123.83318,110.61766 123.84728,110.64068 123.84729,110.64069 123.84999,110.64509 123.99625,110.81394 124.16813,110.95663 124.36100,111.06934 124.56969,111.14903 124.57476,111.15006 124.57476,111.15006 124.68202,111.17188 124.78860,111.19357 124.79377,111.19376 124.79377,111.19376 125.00667,111.20156 125.00668,111.20156 125.01184,111.20175 125.01696,111.20110 125.01696,111.20110 125.22829,111.17403 125.22829,111.17403 125.23342,111.17337 125.23837,111.17188 125.44243,111.11066 125.44243,111.11066 125.44738,111.10917 125.64799,111.01090 125.82986,110.88117 125.98810,110.72349 126.03733,110.65497 126.09332,110.61133 126.13965,110.60250 132.23762,110.60250 132.25657,110.60393 132.27097,110.60612 132.27098,110.60612 132.27821,110.60722 132.28550,110.60663 132.28550,110.60663 132.33118,110.60291 132.34140,110.60250 132.34952,110.60250 132.35316,110.60208 132.35316,110.60208 132.35662,110.60167 132.37792,110.59919 132.38224,110.59876 132.45543,110.59281 132.46239,110.59055 132.46838,110.58936 132.47433,110.58795 132.48161,110.58710 132.48849,110.58460 132.48849,110.58460 132.55061,110.56206 132.55471,110.56064 132.62457,110.53801 132.63084,110.53421 132.63638,110.53167 132.64186,110.52893 132.64874,110.52643 132.71013,110.48618 132.71380,110.48387 132.77658,110.44577 132.78079,110.44206 132.78079,110.44206 132.78500,110.43833 132.78503,110.43836 132.78796,110.43576 132.79132,110.43296 132.79744,110.42895 132.85099,110.37241 132.85337,110.36997 134.41415,108.80919 134.47646,108.77516 134.50099,108.77230 135.22148,108.75944 135.62175,108.75229 Z"/> 
</g>
</g>
<g style="fill-opacity: 1.00000;stroke-width: 0.00000;stroke-opacity: 1;stroke-linecap: round;stroke-linejoin: round">
<g>
<path style="fill-opacity: 1.00000;stroke-width: 0.00000;stroke-opacity: 1;stroke-linecap: round;stroke-linejoin: round;fill-rule: evenodd" d="M 120.10493,101.55700 120.12195,101.57012 120.33156,101.76227 120.33552,101.76605 122.46309,103.89363 122.49712,103.95594 122.50000,103.98273 122.50000,105.87400 122.48000,105.94212 122.42634,105.98861 122.37400,106.00000 121.06056,106.00000 120.99244,105.98000 120.94595,105.92634 120.93584,105.85607 120.94258,105.82977 120.94897,105.81271 120.94897,105.81271 120.95174,105.80532 120.95850,105.74313 120.95850,103.84687 120.95174,103.78468 120.90061,103.64829 120.81326,103.53174 120.69670,103.44438 120.56032,103.39325 120.49813,103.38650 119.40187,103.38650 119.33968,103.39325 119.20329,103.44438 119.16940,103.46979 119.15057,103.48390 119.08406,103.50875 119.01468,103.49370 118.99943,103.48390 118.98060,103.46979 118.94670,103.44438 118.81032,103.39325 118.74813,103.38650 117.65187,103.38650 117.58968,103.39325 117.45329,103.44438 117.33674,103.53174 117.24938,103.64829 117.19825,103.78468 117.19150,103.84687 117.19150,104.76277 117.17150,104.83090 117.15460,104.85187 116.69737,105.30909 116.63506,105.34312 116.60827,105.34600 116.36182,105.34600 116.29370,105.32600 116.24721,105.27234 116.23710,105.20207 116.24126,105.18337 116.28086,105.05302 116.28086,105.05302 116.28237,105.04807 116.31153,104.82659 116.31316,104.76000 116.29485,104.53736 116.24043,104.32070 116.15135,104.11584 116.06524,103.98273 116.03282,103.93262 116.03282,103.93261 116.03001,103.92828 115.87967,103.76305 115.87562,103.75985 115.87561,103.75985 115.70841,103.62780 115.70841,103.62780 115.70436,103.62460 115.50879,103.51664 115.50392,103.51491 115.50392,103.51491 115.30309,103.44379 115.30308,103.44379 115.29821,103.44207 115.29312,103.44116 115.29312,103.44116 115.08337,103.40380 115.08337,103.40380 115.07828,103.40289 115.00445,103.40199 114.86008,103.40023 114.86008,103.40023 114.85491,103.40017 114.63409,103.43395 114.42176,103.50336 114.22361,103.60651 114.21947,103.60961 114.21947,103.60961 114.15675,103.65670 114.04496,103.74063 113.89063,103.90214 113.76474,104.08668 113.67069,104.28930 113.61099,104.50457 113.58725,104.72669 113.58755,104.73185 113.58755,104.73185 113.59301,104.82659 113.60011,104.94971 113.60125,104.95476 113.60125,104.95477 113.62112,105.04294 113.64922,105.16764 113.65116,105.17242 113.65117,105.17243 113.65123,105.17259 113.65124,105.17266 113.65271,105.17737 113.65174,105.17767 113.65833,105.24323 113.62611,105.30650 113.56480,105.34230 113.53449,105.34600 105.44759,105.34600 105.43902,105.34571 105.38972,105.34235 105.38972,105.34235 105.38215,105.34183 105.37467,105.34314 105.37467,105.34314 105.34738,105.34790 105.32008,105.35266 105.31357,105.35362 105.29946,105.35533 105.25858,105.36028 105.25858,105.36028 105.25104,105.36119 105.24393,105.36388 105.24049,105.36472 105.22636,105.36859 105.22296,105.36961 105.21548,105.37092 105.15781,105.39623 105.15171,105.39872 105.09988,105.41831 105.09988,105.41831 105.09278,105.42099 105.08653,105.42529 105.08338,105.42693 105.07063,105.43403 105.06752,105.43587 105.06057,105.43892 105.05454,105.44355 105.05454,105.44355 105.01060,105.47726 105.00527,105.48113 104.95335,105.51682 104.94830,105.52249 104.94830,105.52249 104.91249,105.56268 104.90751,105.56795 104.51237,105.96309 104.45006,105.99712 104.42327,106.00000 104.12600,106.00000 104.05788,105.98000 104.01139,105.92634 104.00000,105.87400 104.00000,101.75472 104.02000,101.68660 104.03690,101.66563 104.12863,101.57390 104.19094,101.53988 104.21773,101.53700 120.03681,101.53700 Z"/> 
</g>
</g>
</g> 
</g><g id="substrate-pads" style="fill:#d39751; stroke:#d39751;" mask="url(#pads-mask)"><g style="fill-opacity: 0.0;stroke-width: 0.00000;stroke-opacity: 1;stroke-linecap: round;stroke-linejoin: round">
<g style="fill-opacity: 1.00000;stroke-width: 0.00000;stroke-opacity: 1;stroke-linecap: round;stroke-linejoin: round">
<path style="fill-opacity: 1.00000;stroke-width: 0.00000;stroke-opacity: 1;stroke-linecap: round;stroke-linejoin: round;fill-rule: evenodd" d="M 104.20000,103.89500 105.20000,103.89500 105.20000,105.69500 104.20000,105.69500 Z"/> 
<path style="fill-opacity: 1.00000;stroke-width: 0.00000;stroke-opacity: 1;stroke-linecap: round;stroke-linejoin: round;fill-rule: evenodd" d="M 102.45000,103.89500 103.45000,103.89500 103.45000,105.69500 102.45000,105.69500 Z"/> 
<path style="fill-opacity: 1.00000;stroke-width: 0.00000;stroke-opacity: 1;stroke-linecap: round;stroke-linejoin: round;fill-rule: evenodd" d="M 100.70000,103.89500 101.70000,103.89500 101.70000,105.69500 100.70000,105.69500 Z"/> 
<path style="fill-opacity: 1.00000;stroke-width: 0.00000;stroke-opacity: 1;stroke-linecap: round;stroke-linejoin: round;fill-rule: evenodd" d="M 100.70000,108.89500 101.70000,108.89500 101.70000,110.69500 100.70000,110.69500 Z"/> 
<path style="fill-opacity: 1.00000;stroke-width: 0.00000;stroke-opacity: 1;stroke-linecap: round;stroke-linejoin: round;fill-rule: evenodd" d="M 102.45000,108.89500 103.45000,108.89500 103.45000,110.69500 102.45000,110.69500 Z"/> 
<path style="fill-opacity: 1.00000;stroke-width: 0.00000;stroke-opacity: 1;stroke-linecap: round;stroke-linejoin: round;fill-rule: evenodd" d="M 104.20000,108.89500 105.20000,108.89500 105.20000,110.69500 104.20000,110.69500 Z"/> 
</g>
<g style="fill-opacity: 1.00000;stroke-width: 0.00000;stroke-opacity: 1;stroke-linecap: round;stroke-linejoin: round">
<path style="fill-opacity: 1.00000;stroke-width: 0.00000;stroke-opacity: 1;stroke-linecap: round;stroke-linejoin: round;fill-rule: evenodd" d="M 121.20000,103.89500 122.20000,103.89500 122.20000,105.69500 121.20000,105.69500 Z"/> 
<path style="fill-opacity: 1.00000;stroke-width: 0.00000;stroke-opacity: 1;stroke-linecap: round;stroke-linejoin: round;fill-rule: evenodd" d="M 119.45000,103.89500 120.45000,103.89500 120.45000,105.69500 119.45000,105.69500 Z"/> 
<path style="fill-opacity: 1.00000;stroke-width: 0.00000;stroke-opacity: 1;stroke-linecap: round;stroke-linejoin: round;fill-rule: evenodd" d="M 117.70000,103.89500 118.70000,103.89500 118.70000,105.69500 117.70000,105.69500 Z"/> 
<path style="fill-opacity: 1.00000;stroke-width: 0.00000;stroke-opacity: 1;stroke-linecap: round;stroke-linejoin: round;fill-rule: evenodd" d="M 117.70000,108.89500 118.70000,108.89500 118.70000,110.69500 117.70000,110.69500 Z"/> 
<path style="fill-opacity: 1.00000;stroke-width: 0.00000;stroke-opacity: 1;stroke-linecap: round;stroke-linejoin: round;fill-rule: evenodd" d="M 119.45000,108.89500 120.45000,108.89500 120.45000,110.69500 119.45000,110.69500 Z"/> 
<path style="fill-opacity: 1.00000;stroke-width: 0.00000;stroke-opacity: 1;stroke-linecap: round;stroke-linejoin: round;fill-rule: evenodd" d="M 121.20000,108.89500 122.20000,108.89500 122.20000,110.69500 121.20000,110.69500 Z"/> 
</g>
<g style="fill-opacity: 1.00000;stroke-width: 0.00000;stroke-opacity: 1;stroke-linecap: round;stroke-linejoin: round">
<path style="fill-opacity: 1.00000;stroke-width: 0.00000;stroke-opacity: 1;stroke-linecap: round;stroke-linejoin: round;fill-rule: evenodd" d="M 135.70000,110.69500 134.70000,110.69500 134.70000,108.89500 135.70000,108.89500 Z"/> 
<path style="fill-opacity: 1.00000;stroke-width: 0.00000;stroke-opacity: 1;stroke-linecap: round;stroke-linejoin: round;fill-rule: evenodd" d="M 137.45000,110.69500 136.45000,110.69500 136.45000,108.89500 137.45000,108.89500 Z"/> 
<path style="fill-opacity: 1.00000;stroke-width: 0.00000;stroke-opacity: 1;stroke-linecap: round;stroke-linejoin: round;fill-rule: evenodd" d="M 139.20000,110.69500 138.20000,110.69500 138.20000,108.89500 139.20000,108.89500 Z"/> 
<path style="fill-opacity: 1.00000;stroke-width: 0.00000;stroke-opacity: 1;stroke-linecap: round;stroke-linejoin: round;fill-rule: evenodd" d="M 139.20000,105.69500 138.20000,105.69500 138.20000,103.89500 139.20000,103.89500 Z"/> 
<path style="fill-opacity: 1.00000;stroke-width: 0.00000;stroke-opacity: 1;stroke-linecap: round;stroke-linejoin: round;fill-rule: evenodd" d="M 137.45000,105.69500 136.45000,105.69500 136.45000,103.89500 137.45000,103.89500 Z"/> 
<path style="fill-opacity: 1.00000;stroke-width: 0.00000;stroke-opacity: 1;stroke-linecap: round;stroke-linejoin: round;fill-rule: evenodd" d="M 135.70000,105.69500 134.70000,105.69500 134.70000,103.89500 135.70000,103.89500 Z"/> 
</g>
<g style="fill-opacity: 1.00000;stroke-width: 0.00000;stroke-opacity: 1;stroke-linecap: round;stroke-linejoin: round">
<path style="fill-opacity: 1.00000;stroke-width: 0.00000;stroke-opacity: 1;stroke-linecap: round;stroke-linejoin: round;fill-rule: evenodd" d="M 114.10000,113.23000 114.10000,111.53000 115.80000,111.53000 115.80000,113.23000 Z"/> 
<circle cx="114.95000" cy="109.84000" r="0.85000"/> 
<circle cx="114.95000" cy="107.30000" r="0.85000"/> 
<circle cx="114.95000" cy="104.76000" r="0.85000"/> 
<circle cx="114.95000" cy="102.22000" r="0.85000"/> 
</g>
<g style="fill-opacity: 1.00000;stroke-width: 0.00000;stroke-opacity: 1;stroke-linecap: round;stroke-linejoin: round">
<path style="fill-opacity: 1.00000;stroke-width: 0.00000;stroke-opacity: 1;stroke-linecap: round;stroke-linejoin: round;fill-rule: evenodd" d="M 125.80000,101.37000 125.80000,103.07000 124.10000,103.07000 124.10000,101.37000 Z"/> 
<circle cx="124.95000" cy="104.76000" r="0.85000"/> 
<circle cx="124.95000" cy="107.30000" r="0.85000"/> 
<circle cx="124.95000" cy="109.84000" r="0.85000"/> 
<circle cx="124.95000" cy="112.38000" r="0.85000"/> 
</g>
<g style="fill-opacity: 0.0;stroke-width: 0.50800;stroke-opacity: 1;stroke-linecap: round;stroke-linejoin: round">
<path d="M124.98500 104.79500 L124.95000 104.76000 "/>
<path d="M135.20000 104.79500 L124.98500 104.79500 "/>
<path d="M121.70000 109.79500 L124.90500 109.79500 "/>
<path d="M124.90500 109.79500 L124.95000 109.84000 "/>
<path d="M136.95000 105.19500 L136.95000 104.79500 "/>
<path d="M124.95000 109.84000 L132.30500 109.84000 "/>
<path d="M132.30500 109.84000 L136.95000 105.19500 "/>
<path d="M114.95000 112.38000 L115.61500 112.38000 "/>
<path d="M124.95000 102.22000 L137.53300 102.22000 "/>
<path d="M115.61500 112.38000 L118.20000 109.79500 "/>
<path d="M101.20000 109.79500 L101.20000 111.20300 "/>
<path d="M137.53300 102.22000 L138.70000 103.38700 "/>
<path d="M101.20000 111.20300 L102.37700 112.38000 "/>
<path d="M102.37700 112.38000 L114.95000 112.38000 "/>
<path d="M138.70000 103.38700 L138.70000 104.79500 "/>
</g>
<g style="fill-opacity: 0.0;stroke-width: 0.38100;stroke-opacity: 1;stroke-linecap: round;stroke-linejoin: round">
<path d="M105.94290 108.55210 L118.97432 108.55210 "/>
</g>
<g style="fill-opacity: 0.0;stroke-width: 0.50800;stroke-opacity: 1;stroke-linecap: round;stroke-linejoin: round">
<path d="M138.70000 111.20300 L136.26660 113.63640 "/>
<path d="M123.40988 113.63640 L119.95000 110.17652 "/>
</g>
<g style="fill-opacity: 0.0;stroke-width: 0.38100;stroke-opacity: 1;stroke-linecap: round;stroke-linejoin: round">
<path d="M119.95000 109.52778 L119.95000 109.79500 "/>
<path d="M118.97432 108.55210 L119.95000 109.52778 "/>
<path d="M104.70000 109.79500 L105.94290 108.55210 "/>
</g>
<g style="fill-opacity: 0.0;stroke-width: 0.50800;stroke-opacity: 1;stroke-linecap: round;stroke-linejoin: round">
<path d="M119.95000 110.17652 L119.95000 109.79500 "/>
<path d="M138.70000 109.79500 L138.70000 111.20300 "/>
<path d="M136.26660 113.63640 L123.40988 113.63640 "/>
<path d="M107.27500 102.22000 L104.70000 104.79500 "/>
<path d="M114.95000 102.22000 L120.53300 102.22000 "/>
<path d="M121.70000 103.38700 L121.70000 104.79500 "/>
<path d="M132.61500 112.38000 L135.20000 109.79500 "/>
<path d="M120.53300 102.22000 L121.70000 103.38700 "/>
<path d="M124.95000 112.38000 L132.61500 112.38000 "/>
<path d="M114.95000 102.22000 L107.27500 102.22000 "/>
</g>
<g style="fill-opacity: 0.0;stroke-width: 0.38100;stroke-opacity: 1;stroke-linecap: round;stroke-linejoin: round">
<path d="M105.41900 106.04500 L116.95000 106.04500 "/>
<path d="M116.95000 106.04500 L118.20000 104.79500 "/>
<path d="M102.95000 109.79500 L102.95000 108.51400 "/>
<path d="M102.95000 108.51400 L105.41900 106.04500 "/>
<path d="M123.44400 105.79400 L124.95000 107.30000 "/>
<path d="M123.44400 103.88600 L123.44400 105.79400 "/>
<path d="M101.20000 104.79500 L101.20000 103.51400 "/>
<path d="M101.20000 103.51400 L103.87600 100.83800 "/>
<path d="M120.39600 100.83800 L123.44400 103.88600 "/>
<path d="M103.87600 100.83800 L120.39600 100.83800 "/>
</g>
<g style="fill-opacity: 0.0;stroke-width: 0.38100;stroke-opacity: 1;stroke-linecap: round;stroke-linejoin: round">
<g style="fill-opacity: 1.00000;stroke-width: 0.00000;stroke-opacity: 1;stroke-linecap: round;stroke-linejoin: round">
<path style="fill-opacity: 1.00000;stroke-width: 0.00000;stroke-opacity: 1;stroke-linecap: round;stroke-linejoin: round;fill-rule: evenodd" d="M 139.70453,100.27321 139.74108,100.32351 139.74600,100.35460 139.74600,113.89540 139.72679,113.95453 139.67649,113.99108 139.64540,113.99600 136.86900,113.99600 136.80987,113.97679 136.77332,113.92649 136.77332,113.86431 136.79786,113.82426 137.84949,112.77264 139.01132,111.61081 139.02145,111.60271 139.02144,111.60269 139.02689,111.59805 139.03296,111.59422 139.06910,111.55330 139.07337,111.54876 139.08538,111.53674 139.08752,111.53389 139.08753,111.53388 139.09227,111.52755 139.09737,111.52129 139.12464,111.49042 139.12938,111.48505 139.13276,111.47784 139.13381,111.47561 139.14436,111.45805 139.14632,111.45544 139.14632,111.45544 139.15062,111.44970 139.16760,111.40440 139.17073,111.39696 139.18823,111.35969 139.19128,111.35320 139.19288,111.34291 139.19808,111.32308 139.19923,111.32003 139.19923,111.32003 139.20174,111.31332 139.20533,111.26509 139.20625,111.25707 139.20790,111.24645 139.20790,111.24645 139.20850,111.24261 139.20850,111.22614 139.20878,111.21868 139.21201,111.17520 139.21254,111.16806 139.21104,111.16105 139.21072,111.15952 139.20850,111.13852 139.20850,111.03535 139.22771,110.97622 139.27801,110.93968 139.28946,110.93669 139.29930,110.93473 139.31224,110.92609 139.37525,110.88399 139.37525,110.88399 139.38348,110.87848 139.43973,110.79430 139.45450,110.72007 139.45450,108.86993 139.43973,108.79570 139.43423,108.78746 139.38899,108.71975 139.38348,108.71152 139.37525,108.70601 139.35710,108.69388 139.29930,108.65527 139.25076,108.64561 139.22992,108.64146 139.22992,108.64146 139.22507,108.64050 139.22012,108.64050 138.69952,108.64050 138.17493,108.64050 138.13945,108.64756 138.11042,108.65333 138.11041,108.65333 138.10070,108.65527 138.09246,108.66077 138.09246,108.66077 138.02475,108.70601 138.01652,108.71152 137.96027,108.79570 137.95833,108.80542 137.94722,108.86127 137.94550,108.86993 137.94550,110.72007 137.96027,110.79430 137.96577,110.80254 137.96577,110.80254 137.97397,110.81481 138.01652,110.87848 138.07752,110.91924 138.08776,110.92609 138.12625,110.97491 138.12869,111.03704 138.10300,111.08087 136.42973,112.75414 136.37434,112.78236 136.31293,112.77264 136.26896,112.72867 136.25800,112.68300 136.25800,111.03888 136.27721,110.97974 136.32751,110.94320 136.37822,110.94021 136.42493,110.94950 136.42988,110.94950 136.95048,110.94950 137.47507,110.94950 137.51055,110.94244 137.53958,110.93667 137.53959,110.93667 137.54930,110.93473 137.56224,110.92609 137.62525,110.88399 137.62525,110.88399 137.63348,110.87848 137.68973,110.79430 137.70450,110.72007 137.70450,108.86993 137.68973,108.79570 137.68423,108.78746 137.63899,108.71975 137.63348,108.71152 137.62525,108.70601 137.60710,108.69388 137.54930,108.65527 137.50076,108.64561 137.47992,108.64146 137.47992,108.64146 137.47507,108.64050 137.47012,108.64050 136.94952,108.64050 136.42493,108.64050 136.38945,108.64756 136.36042,108.65333 136.36041,108.65333 136.35070,108.65527 136.34246,108.66077 136.33330,108.66456 136.33212,108.66172 136.28770,108.67424 136.22937,108.65271 136.20284,108.61545 136.20087,108.61643 136.19801,108.61069 136.19591,108.60464 136.11558,108.48442 136.11318,108.48174 136.11317,108.48174 136.07054,108.43427 136.06813,108.43160 136.05734,108.42258 135.96847,108.34831 135.95719,108.33888 135.95060,108.33601 135.95059,108.33601 135.82791,108.28261 135.82791,108.28261 135.82462,108.28117 135.75615,108.26239 135.75259,108.26194 135.75259,108.26194 135.68442,108.25338 135.61268,108.24437 135.60909,108.24443 135.60909,108.24443 135.21437,108.25148 135.21241,108.25152 134.85080,108.25798 134.79134,108.23982 134.75390,108.19018 134.75279,108.12802 134.77787,108.08626 136.88516,105.97897 136.94056,105.95074 136.95630,105.94950 137.41569,105.94950 137.47507,105.94950 137.51055,105.94244 137.53958,105.93667 137.53959,105.93667 137.54930,105.93473 137.56188,105.92633 137.62525,105.88399 137.63348,105.87848 137.68973,105.79430 137.70450,105.72007 137.70450,103.86993 137.69673,103.83088 137.69167,103.80542 137.69167,103.80541 137.68973,103.79570 137.68423,103.78746 137.63899,103.71975 137.63348,103.71152 137.62525,103.70601 137.59474,103.68563 137.54930,103.65527 137.49200,103.64387 137.47992,103.64146 137.47992,103.64146 137.47507,103.64050 137.47012,103.64050 136.94952,103.64050 136.42493,103.64050 136.38945,103.64756 136.36042,103.65333 136.36041,103.65333 136.35070,103.65527 136.34246,103.66077 136.34246,103.66077 136.27475,103.70601 136.26652,103.71152 136.21027,103.79570 136.19550,103.86993 136.19550,103.87488 136.19550,105.18870 136.17629,105.24783 136.16604,105.25984 136.12623,105.29964 136.07084,105.32786 136.00943,105.31814 135.96546,105.27417 135.95450,105.22850 135.95450,103.87487 135.95450,103.86993 135.94673,103.83088 135.94167,103.80542 135.94167,103.80541 135.93973,103.79570 135.93423,103.78746 135.88899,103.71975 135.88348,103.71152 135.87525,103.70601 135.84474,103.68563 135.79930,103.65527 135.74200,103.64387 135.72992,103.64146 135.72992,103.64146 135.72507,103.64050 135.72012,103.64050 135.19952,103.64050 134.67493,103.64050 134.63945,103.64756 134.61042,103.65333 134.61041,103.65333 134.60070,103.65527 134.59246,103.66077 134.59246,103.66077 134.52475,103.70601 134.51652,103.71152 134.46027,103.79570 134.44550,103.86993 134.44550,104.18590 134.42629,104.24503 134.37599,104.28158 134.34490,104.28650 126.01064,104.28650 125.95151,104.26729 125.92042,104.23040 125.89847,104.18590 125.89578,104.18043 125.77432,104.01778 125.62526,103.87999 125.62136,103.87753 125.62136,103.87752 125.53942,103.82583 125.45358,103.77167 125.39618,103.74877 125.26932,103.69816 125.26504,103.69645 125.06595,103.65684 124.96446,103.65551 124.86758,103.65425 124.86758,103.65425 124.86297,103.65419 124.66291,103.68856 124.65859,103.69016 124.65859,103.69016 124.47679,103.75723 124.47679,103.75723 124.47246,103.75882 124.29801,103.86261 124.29454,103.86565 124.29454,103.86565 124.14886,103.99341 124.14886,103.99342 124.14539,103.99645 124.14254,104.00007 124.14254,104.00007 124.06860,104.09386 124.01691,104.12840 123.95478,104.12596 123.90595,104.08747 123.88900,104.03158 123.88900,103.91839 123.88970,103.90656 123.89292,103.87933 123.89292,103.87932 123.89380,103.87186 123.88332,103.81445 123.88280,103.81135 123.88191,103.80542 123.87413,103.75367 123.87104,103.74724 123.86976,103.74023 123.84702,103.69645 123.84287,103.68846 123.84146,103.68563 123.81946,103.63983 123.81946,103.63983 123.81621,103.63305 123.81208,103.62858 123.81072,103.62656 123.80808,103.62148 123.80382,103.61649 123.76669,103.57936 123.76395,103.57652 123.73599,103.54627 123.72537,103.53479 123.71936,103.53129 123.71225,103.52493 120.73356,100.54624 120.72570,100.53739 120.70872,100.51585 120.70406,100.50995 120.66014,100.47959 120.65608,100.47678 120.65351,100.47494 120.61263,100.44475 120.61262,100.44475 120.60658,100.44028 120.60658,100.44028 120.60658,100.44028 120.60683,100.43994 120.56701,100.39886 120.55825,100.33731 120.58735,100.28236 120.64318,100.25500 120.65736,100.25400 139.64540,100.25400 Z"/> 
<path style="fill-opacity: 1.00000;stroke-width: 0.00000;stroke-opacity: 1;stroke-linecap: round;stroke-linejoin: round;fill-rule: evenodd" d="M 103.43707,102.00456 103.48103,102.04852 103.49200,102.09419 103.49200,103.53990 103.47279,103.59903 103.42249,103.63558 103.39140,103.64050 102.48346,103.64050 102.42493,103.64050 102.38945,103.64756 102.36042,103.65333 102.36041,103.65333 102.35070,103.65527 102.34246,103.66077 102.34246,103.66077 102.27475,103.70601 102.26652,103.71152 102.21027,103.79570 102.19550,103.86993 102.19550,105.72007 102.19792,105.73225 102.20833,105.78458 102.20833,105.78459 102.21027,105.79430 102.21577,105.80254 102.21577,105.80254 102.25920,105.86753 102.26652,105.87848 102.35070,105.93473 102.37602,105.93977 102.42008,105.94853 102.42008,105.94853 102.42493,105.94950 102.50543,105.94950 103.41547,105.94950 103.47460,105.96871 103.51115,106.01901 103.51377,106.02871 103.51499,106.03432 103.54929,106.13737 103.55270,106.14267 103.62552,106.25598 103.62552,106.25599 103.62747,106.25901 103.65677,106.29283 103.67161,106.30996 103.67396,106.31267 103.78323,106.40735 103.78978,106.41034 103.78978,106.41034 103.86161,106.44315 103.91476,106.46742 103.93050,106.47204 103.97943,106.48641 103.97944,106.48641 103.98288,106.48742 103.98643,106.48793 103.98644,106.48793 104.04526,106.49639 104.10252,106.50462 104.15832,106.53206 104.18733,106.58704 104.17848,106.64859 104.15934,106.67533 102.65824,108.17644 102.64938,108.18430 102.64218,108.18998 102.62194,108.20594 102.61767,108.21213 102.58878,108.25392 102.58694,108.25649 102.55675,108.29737 102.55675,108.29737 102.55228,108.30342 102.54992,108.31015 102.54586,108.31602 102.54360,108.32319 102.54359,108.32319 102.52827,108.37165 102.52728,108.37460 102.50794,108.42967 102.50771,108.43577 102.50724,108.43813 102.50551,108.44360 102.50500,108.45014 102.50500,108.50267 102.50492,108.50662 102.50336,108.54627 102.48184,108.60461 102.43015,108.63915 102.42247,108.64099 102.40543,108.64438 102.36042,108.65333 102.36041,108.65333 102.35070,108.65527 102.34246,108.66077 102.34246,108.66077 102.27475,108.70601 102.26652,108.71152 102.21027,108.79570 102.20833,108.80542 102.19722,108.86127 102.19550,108.86993 102.19550,110.72007 102.21027,110.79430 102.21577,110.80254 102.21577,110.80254 102.22397,110.81481 102.26652,110.87848 102.35070,110.93473 102.37822,110.94021 102.42008,110.94853 102.42008,110.94853 102.42493,110.94950 102.42988,110.94950 102.95048,110.94950 103.47507,110.94950 103.51055,110.94244 103.53958,110.93667 103.53959,110.93667 103.54930,110.93473 103.56224,110.92609 103.62525,110.88399 103.62525,110.88399 103.63348,110.87848 103.68973,110.79430 103.70450,110.72007 103.70450,108.86993 103.68973,108.79570 103.68423,108.78746 103.63899,108.71975 103.63348,108.71152 103.62525,108.70601 103.62525,108.70601 103.58454,108.67881 103.54605,108.62998 103.54361,108.56786 103.56929,108.52403 105.57386,106.51946 105.62926,106.49124 105.64499,106.49000 113.97461,106.49000 114.03374,106.50921 114.07028,106.55951 114.07028,106.62169 114.05361,106.65288 114.01972,106.69587 113.92520,106.87551 113.86501,107.06938 113.84115,107.27096 113.85442,107.47352 113.85556,107.47798 113.87723,107.56331 113.90439,107.67027 113.98938,107.85462 113.99204,107.85838 113.99204,107.85839 114.05568,107.94844 114.07412,108.00782 114.05413,108.06669 114.00336,108.10257 113.97353,108.10710 105.97529,108.10710 105.96346,108.10640 105.93623,108.10318 105.93623,108.10318 105.92876,108.10229 105.87137,108.11278 105.86827,108.11329 105.81058,108.12197 105.80414,108.12505 105.79713,108.12634 105.75987,108.14569 105.74537,108.15322 105.74255,108.15463 105.72713,108.16203 105.68995,108.17989 105.68547,108.18403 105.68347,108.18538 105.67838,108.18802 105.67339,108.19228 105.63626,108.22941 105.63342,108.23215 105.59169,108.27072 105.58819,108.27674 105.58183,108.28385 105.25464,108.61104 105.19924,108.63926 105.18350,108.64050 104.28645,108.64050 104.17493,108.64050 104.13945,108.64756 104.11042,108.65333 104.11041,108.65333 104.10070,108.65527 104.09246,108.66077 104.09246,108.66077 104.02475,108.70601 104.01652,108.71152 103.96027,108.79570 103.95833,108.80542 103.94722,108.86127 103.94550,108.86993 103.94550,110.72007 103.96027,110.79430 103.96577,110.80254 103.96577,110.80254 103.97397,110.81481 104.01652,110.87848 104.10070,110.93473 104.12822,110.94021 104.17008,110.94853 104.17008,110.94853 104.17493,110.94950 104.17988,110.94950 104.70048,110.94950 105.22507,110.94950 105.26055,110.94244 105.28958,110.93667 105.28959,110.93667 105.29930,110.93473 105.31224,110.92609 105.37525,110.88399 105.37525,110.88399 105.38348,110.87848 105.43973,110.79430 105.45450,110.72007 105.45450,109.71150 105.47371,109.65236 105.48396,109.64036 106.09776,109.02656 106.15316,108.99834 106.16890,108.99710 114.00054,108.99710 114.05967,109.01631 114.09622,109.06661 114.09622,109.12879 114.07955,109.15998 114.01972,109.23587 113.92520,109.41551 113.86501,109.60938 113.84115,109.81096 113.85442,110.01352 113.85556,110.01798 113.87723,110.10331 113.90439,110.21027 113.98938,110.39462 114.10653,110.56039 114.25194,110.70203 114.25577,110.70460 114.25577,110.70460 114.28617,110.72491 114.42072,110.81481 114.42496,110.81663 114.42496,110.81663 114.60299,110.89312 114.60723,110.89494 114.70516,110.91710 114.80072,110.93872 114.80072,110.93872 114.80522,110.93974 114.90663,110.94373 115.00344,110.94753 115.00344,110.94753 115.00805,110.94771 115.01261,110.94705 115.01261,110.94705 115.10850,110.93315 115.20894,110.91858 115.40116,110.85333 115.57828,110.75415 115.61343,110.72491 115.73080,110.62729 115.73434,110.62434 115.74574,110.61065 115.86120,110.47182 115.86120,110.47182 115.86415,110.46828 115.96333,110.29116 116.02858,110.09895 116.05771,109.89805 116.05923,109.84000 116.05614,109.80638 116.04108,109.64245 116.04108,109.64244 116.04066,109.63786 115.98556,109.44249 115.89578,109.26043 115.89302,109.25674 115.89302,109.25673 115.81921,109.15789 115.79922,109.09902 115.81766,109.03964 115.86748,109.00244 115.89981,108.99710 118.74833,108.99710 118.80746,109.01631 118.81946,109.02656 119.16603,109.37314 119.19426,109.42854 119.19550,109.44427 119.19550,110.72007 119.21027,110.79430 119.21577,110.80254 119.21577,110.80254 119.22397,110.81481 119.26652,110.87848 119.35070,110.93473 119.37822,110.94021 119.42008,110.94853 119.42008,110.94853 119.42493,110.94950 119.48637,110.94950 119.96218,110.94950 120.02131,110.96871 120.03331,110.97896 122.87861,113.82426 122.90684,113.87966 122.89711,113.94107 122.85315,113.98503 122.80748,113.99600 100.35460,113.99600 100.29547,113.97679 100.25892,113.92649 100.25400,113.89540 100.25400,105.77874 100.27321,105.71961 100.32351,105.68306 100.38569,105.68306 100.43599,105.71961 100.45327,105.75911 100.46027,105.79430 100.46577,105.80254 100.46577,105.80254 100.50920,105.86753 100.51652,105.87848 100.60070,105.93473 100.62602,105.93977 100.67008,105.94853 100.67008,105.94853 100.67493,105.94950 100.67988,105.94950 101.20048,105.94950 101.72507,105.94950 101.76055,105.94244 101.78958,105.93667 101.78959,105.93667 101.79930,105.93473 101.81188,105.92633 101.87525,105.88399 101.88348,105.87848 101.93973,105.79430 101.95450,105.72007 101.95450,103.86993 101.94673,103.83088 101.94167,103.80542 101.94167,103.80541 101.93973,103.79570 101.93423,103.78746 101.88899,103.71975 101.88348,103.71152 101.87525,103.70601 101.87525,103.70601 101.83454,103.67881 101.79605,103.62998 101.79361,103.56786 101.81929,103.52403 103.32026,102.02306 103.37566,101.99483 Z"/> 
</g>
</g>
<g style="fill-opacity: 1.00000;stroke-width: 0.00000;stroke-opacity: 1;stroke-linecap: round;stroke-linejoin: round">
<g>
<path style="fill-opacity: 1.00000;stroke-width: 0.00000;stroke-opacity: 1;stroke-linecap: round;stroke-linejoin: round;fill-rule: evenodd" d="M 135.69022,108.77107 135.73766,108.82389 135.75000,108.87827 135.75000,112.74790 135.73000,112.81602 135.67634,112.86252 135.62400,112.87390 123.77791,112.87390 123.70979,112.85390 123.68881,112.83700 122.25752,111.40571 122.22350,111.34340 122.22856,111.27258 122.27111,111.21574 122.31052,111.19729 122.31032,111.19674 122.31712,111.19420 122.44670,111.14561 122.56326,111.05826 122.65061,110.94170 122.70174,110.80532 122.70850,110.74313 122.70850,110.68350 122.72850,110.61538 122.78216,110.56889 122.83450,110.55750 123.72575,110.55750 123.79387,110.57750 123.83318,110.61766 123.84728,110.64068 123.84729,110.64069 123.84999,110.64509 123.99625,110.81394 124.16813,110.95663 124.36100,111.06934 124.56969,111.14903 124.57476,111.15006 124.57476,111.15006 124.68202,111.17188 124.78860,111.19357 124.79377,111.19376 124.79377,111.19376 125.00667,111.20156 125.00668,111.20156 125.01184,111.20175 125.01696,111.20110 125.01696,111.20110 125.22829,111.17403 125.22829,111.17403 125.23342,111.17337 125.23837,111.17188 125.44243,111.11066 125.44243,111.11066 125.44738,111.10917 125.64799,111.01090 125.82986,110.88117 125.98810,110.72349 126.03733,110.65497 126.09332,110.61133 126.13965,110.60250 132.23762,110.60250 132.25657,110.60393 132.27097,110.60612 132.27098,110.60612 132.27821,110.60722 132.28550,110.60663 132.28550,110.60663 132.33118,110.60291 132.34140,110.60250 132.34952,110.60250 132.35316,110.60208 132.35316,110.60208 132.35662,110.60167 132.37792,110.59919 132.38224,110.59876 132.45543,110.59281 132.46239,110.59055 132.46838,110.58936 132.47433,110.58795 132.48161,110.58710 132.48849,110.58460 132.48849,110.58460 132.55061,110.56206 132.55471,110.56064 132.62457,110.53801 132.63084,110.53421 132.63638,110.53167 132.64186,110.52893 132.64874,110.52643 132.71013,110.48618 132.71380,110.48387 132.77658,110.44577 132.78079,110.44206 132.78079,110.44206 132.78500,110.43833 132.78503,110.43836 132.78796,110.43576 132.79132,110.43296 132.79744,110.42895 132.85099,110.37241 132.85337,110.36997 134.41415,108.80919 134.47646,108.77516 134.50099,108.77230 135.22148,108.75944 135.62175,108.75229 Z"/> 
</g>
</g>
<g style="fill-opacity: 1.00000;stroke-width: 0.00000;stroke-opacity: 1;stroke-linecap: round;stroke-linejoin: round">
<g>
<path style="fill-opacity: 1.00000;stroke-width: 0.00000;stroke-opacity: 1;stroke-linecap: round;stroke-linejoin: round;fill-rule: evenodd" d="M 120.10493,101.55700 120.12195,101.57012 120.33156,101.76227 120.33552,101.76605 122.46309,103.89363 122.49712,103.95594 122.50000,103.98273 122.50000,105.87400 122.48000,105.94212 122.42634,105.98861 122.37400,106.00000 121.06056,106.00000 120.99244,105.98000 120.94595,105.92634 120.93584,105.85607 120.94258,105.82977 120.94897,105.81271 120.94897,105.81271 120.95174,105.80532 120.95850,105.74313 120.95850,103.84687 120.95174,103.78468 120.90061,103.64829 120.81326,103.53174 120.69670,103.44438 120.56032,103.39325 120.49813,103.38650 119.40187,103.38650 119.33968,103.39325 119.20329,103.44438 119.16940,103.46979 119.15057,103.48390 119.08406,103.50875 119.01468,103.49370 118.99943,103.48390 118.98060,103.46979 118.94670,103.44438 118.81032,103.39325 118.74813,103.38650 117.65187,103.38650 117.58968,103.39325 117.45329,103.44438 117.33674,103.53174 117.24938,103.64829 117.19825,103.78468 117.19150,103.84687 117.19150,104.76277 117.17150,104.83090 117.15460,104.85187 116.69737,105.30909 116.63506,105.34312 116.60827,105.34600 116.36182,105.34600 116.29370,105.32600 116.24721,105.27234 116.23710,105.20207 116.24126,105.18337 116.28086,105.05302 116.28086,105.05302 116.28237,105.04807 116.31153,104.82659 116.31316,104.76000 116.29485,104.53736 116.24043,104.32070 116.15135,104.11584 116.06524,103.98273 116.03282,103.93262 116.03282,103.93261 116.03001,103.92828 115.87967,103.76305 115.87562,103.75985 115.87561,103.75985 115.70841,103.62780 115.70841,103.62780 115.70436,103.62460 115.50879,103.51664 115.50392,103.51491 115.50392,103.51491 115.30309,103.44379 115.30308,103.44379 115.29821,103.44207 115.29312,103.44116 115.29312,103.44116 115.08337,103.40380 115.08337,103.40380 115.07828,103.40289 115.00445,103.40199 114.86008,103.40023 114.86008,103.40023 114.85491,103.40017 114.63409,103.43395 114.42176,103.50336 114.22361,103.60651 114.21947,103.60961 114.21947,103.60961 114.15675,103.65670 114.04496,103.74063 113.89063,103.90214 113.76474,104.08668 113.67069,104.28930 113.61099,104.50457 113.58725,104.72669 113.58755,104.73185 113.58755,104.73185 113.59301,104.82659 113.60011,104.94971 113.60125,104.95476 113.60125,104.95477 113.62112,105.04294 113.64922,105.16764 113.65116,105.17242 113.65117,105.17243 113.65123,105.17259 113.65124,105.17266 113.65271,105.17737 113.65174,105.17767 113.65833,105.24323 113.62611,105.30650 113.56480,105.34230 113.53449,105.34600 105.44759,105.34600 105.43902,105.34571 105.38972,105.34235 105.38972,105.34235 105.38215,105.34183 105.37467,105.34314 105.37467,105.34314 105.34738,105.34790 105.32008,105.35266 105.31357,105.35362 105.29946,105.35533 105.25858,105.36028 105.25858,105.36028 105.25104,105.36119 105.24393,105.36388 105.24049,105.36472 105.22636,105.36859 105.22296,105.36961 105.21548,105.37092 105.15781,105.39623 105.15171,105.39872 105.09988,105.41831 105.09988,105.41831 105.09278,105.42099 105.08653,105.42529 105.08338,105.42693 105.07063,105.43403 105.06752,105.43587 105.06057,105.43892 105.05454,105.44355 105.05454,105.44355 105.01060,105.47726 105.00527,105.48113 104.95335,105.51682 104.94830,105.52249 104.94830,105.52249 104.91249,105.56268 104.90751,105.56795 104.51237,105.96309 104.45006,105.99712 104.42327,106.00000 104.12600,106.00000 104.05788,105.98000 104.01139,105.92634 104.00000,105.87400 104.00000,101.75472 104.02000,101.68660 104.03690,101.66563 104.12863,101.57390 104.19094,101.53988 104.21773,101.53700 120.03681,101.53700 Z"/> 
</g>
</g>
</g> 
</g><g id="substrate-silk" style="fill:#d5dce4; stroke:#d5dce4;" mask="url(#pads-mask-silkscreen)"><g style="fill-opacity: 0.0;stroke-width: 0.12000;stroke-opacity: 1;stroke-linecap: round;stroke-linejoin: round">
<path d="M135.00000 101.25000 L135.50000 101.75000 "/>
<path d="M135.00000 101.25000 L135.50000 100.75000 "/>
<path d="M138.75000 101.25000 L135.00000 101.25000 "/>
</g>
<g style="fill-opacity: 0.0;stroke-width: 0.15000;stroke-opacity: 1;stroke-linecap: round;stroke-linejoin: round">
<text x="126.75000" y="110.43750" textLength="2.12738" font-size="1.33333" lengthAdjust="spacingAndGlyphs" text-anchor="start" opacity="0">D1</text>
<g class="stroked-text"><desc>D1</desc>
<path d="M126.98810 110.40012 L126.98810 109.40012 "/>
<path d="M126.98810 109.40012 L127.22619 109.40012 "/>
<path d="M127.22619 109.40012 L127.36905 109.44774 "/>
<path d="M127.36905 109.44774 L127.46428 109.54298 "/>
<path d="M127.46428 109.54298 L127.51190 109.63821 "/>
<path d="M127.51190 109.63821 L127.55952 109.82869 "/>
<path d="M127.55952 109.82869 L127.55952 109.97155 "/>
<path d="M127.55952 109.97155 L127.51190 110.16202 "/>
<path d="M127.51190 110.16202 L127.46428 110.25726 "/>
<path d="M127.46428 110.25726 L127.36905 110.35250 "/>
<path d="M127.36905 110.35250 L127.22619 110.40012 "/>
<path d="M127.22619 110.40012 L126.98810 110.40012 "/>
<path d="M128.51190 110.40012 L127.94048 110.40012 "/>
<path d="M128.22619 110.40012 L128.22619 109.40012 "/>
<path d="M128.22619 109.40012 L128.13095 109.54298 "/>
<path d="M128.13095 109.54298 L128.03571 109.63821 "/>
<path d="M128.03571 109.63821 L127.94048 109.68583 "/>
</g><text x="126.75000" y="107.87500" textLength="2.69881" font-size="1.33333" lengthAdjust="spacingAndGlyphs" text-anchor="start" opacity="0">Out</text>
<g class="stroked-text"><desc>Out</desc>
<path d="M127.17857 106.83762 L127.36905 106.83762 "/>
<path d="M127.36905 106.83762 L127.46428 106.88524 "/>
<path d="M127.46428 106.88524 L127.55952 106.98048 "/>
<path d="M127.55952 106.98048 L127.60714 107.17095 "/>
<path d="M127.60714 107.17095 L127.60714 107.50428 "/>
<path d="M127.60714 107.50428 L127.55952 107.69476 "/>
<path d="M127.55952 107.69476 L127.46428 107.79000 "/>
<path d="M127.46428 107.79000 L127.36905 107.83762 "/>
<path d="M127.36905 107.83762 L127.17857 107.83762 "/>
<path d="M127.17857 107.83762 L127.08333 107.79000 "/>
<path d="M127.08333 107.79000 L126.98810 107.69476 "/>
<path d="M126.98810 107.69476 L126.94048 107.50428 "/>
<path d="M126.94048 107.50428 L126.94048 107.17095 "/>
<path d="M126.94048 107.17095 L126.98810 106.98048 "/>
<path d="M126.98810 106.98048 L127.08333 106.88524 "/>
<path d="M127.08333 106.88524 L127.17857 106.83762 "/>
<path d="M128.46428 107.17095 L128.46428 107.83762 "/>
<path d="M128.03571 107.17095 L128.03571 107.69476 "/>
<path d="M128.03571 107.69476 L128.08333 107.79000 "/>
<path d="M128.08333 107.79000 L128.17857 107.83762 "/>
<path d="M128.17857 107.83762 L128.32143 107.83762 "/>
<path d="M128.32143 107.83762 L128.41667 107.79000 "/>
<path d="M128.41667 107.79000 L128.46428 107.74238 "/>
<path d="M128.79762 107.17095 L129.17857 107.17095 "/>
<path d="M128.94048 106.83762 L128.94048 107.69476 "/>
<path d="M128.94048 107.69476 L128.98809 107.79000 "/>
<path d="M128.98809 107.79000 L129.08333 107.83762 "/>
<path d="M129.08333 107.83762 L129.17857 107.83762 "/>
</g><text x="113.25000" y="113.00000" textLength="3.22262" font-size="1.33333" lengthAdjust="spacingAndGlyphs" text-anchor="end" opacity="0">GND</text>
<g class="stroked-text"><desc>GND</desc>
<path d="M110.96428 112.01024 L110.86905 111.96262 "/>
<path d="M110.86905 111.96262 L110.72619 111.96262 "/>
<path d="M110.72619 111.96262 L110.58333 112.01024 "/>
<path d="M110.58333 112.01024 L110.48810 112.10548 "/>
<path d="M110.48810 112.10548 L110.44048 112.20071 "/>
<path d="M110.44048 112.20071 L110.39286 112.39119 "/>
<path d="M110.39286 112.39119 L110.39286 112.53405 "/>
<path d="M110.39286 112.53405 L110.44048 112.72452 "/>
<path d="M110.44048 112.72452 L110.48810 112.81976 "/>
<path d="M110.48810 112.81976 L110.58333 112.91500 "/>
<path d="M110.58333 112.91500 L110.72619 112.96262 "/>
<path d="M110.72619 112.96262 L110.82143 112.96262 "/>
<path d="M110.82143 112.96262 L110.96428 112.91500 "/>
<path d="M110.96428 112.91500 L111.01190 112.86738 "/>
<path d="M111.01190 112.86738 L111.01190 112.53405 "/>
<path d="M111.01190 112.53405 L110.82143 112.53405 "/>
<path d="M111.44048 112.96262 L111.44048 111.96262 "/>
<path d="M111.44048 111.96262 L112.01190 112.96262 "/>
<path d="M112.01190 112.96262 L112.01190 111.96262 "/>
<path d="M112.48810 112.96262 L112.48810 111.96262 "/>
<path d="M112.48810 111.96262 L112.72619 111.96262 "/>
<path d="M112.72619 111.96262 L112.86905 112.01024 "/>
<path d="M112.86905 112.01024 L112.96428 112.10548 "/>
<path d="M112.96428 112.10548 L113.01190 112.20071 "/>
<path d="M113.01190 112.20071 L113.05952 112.39119 "/>
<path d="M113.05952 112.39119 L113.05952 112.53405 "/>
<path d="M113.05952 112.53405 L113.01190 112.72452 "/>
<path d="M113.01190 112.72452 L112.96428 112.81976 "/>
<path d="M112.96428 112.81976 L112.86905 112.91500 "/>
<path d="M112.86905 112.91500 L112.72619 112.96262 "/>
<path d="M112.72619 112.96262 L112.48810 112.96262 "/>
</g><text x="126.75000" y="102.75000" textLength="3.22262" font-size="1.33333" lengthAdjust="spacingAndGlyphs" text-anchor="start" opacity="0">GND</text>
<g class="stroked-text"><desc>GND</desc>
<path d="M127.51190 101.76024 L127.41667 101.71262 "/>
<path d="M127.41667 101.71262 L127.27381 101.71262 "/>
<path d="M127.27381 101.71262 L127.13095 101.76024 "/>
<path d="M127.13095 101.76024 L127.03571 101.85548 "/>
<path d="M127.03571 101.85548 L126.98810 101.95071 "/>
<path d="M126.98810 101.95071 L126.94048 102.14119 "/>
<path d="M126.94048 102.14119 L126.94048 102.28405 "/>
<path d="M126.94048 102.28405 L126.98810 102.47452 "/>
<path d="M126.98810 102.47452 L127.03571 102.56976 "/>
<path d="M127.03571 102.56976 L127.13095 102.66500 "/>
<path d="M127.13095 102.66500 L127.27381 102.71262 "/>
<path d="M127.27381 102.71262 L127.36905 102.71262 "/>
<path d="M127.36905 102.71262 L127.51190 102.66500 "/>
<path d="M127.51190 102.66500 L127.55952 102.61738 "/>
<path d="M127.55952 102.61738 L127.55952 102.28405 "/>
<path d="M127.55952 102.28405 L127.36905 102.28405 "/>
<path d="M127.98810 102.71262 L127.98810 101.71262 "/>
<path d="M127.98810 101.71262 L128.55952 102.71262 "/>
<path d="M128.55952 102.71262 L128.55952 101.71262 "/>
<path d="M129.03571 102.71262 L129.03571 101.71262 "/>
<path d="M129.03571 101.71262 L129.27381 101.71262 "/>
<path d="M129.27381 101.71262 L129.41667 101.76024 "/>
<path d="M129.41667 101.76024 L129.51190 101.85548 "/>
<path d="M129.51190 101.85548 L129.55952 101.95071 "/>
<path d="M129.55952 101.95071 L129.60714 102.14119 "/>
<path d="M129.60714 102.14119 L129.60714 102.28405 "/>
<path d="M129.60714 102.28405 L129.55952 102.47452 "/>
<path d="M129.55952 102.47452 L129.51190 102.56976 "/>
<path d="M129.51190 102.56976 L129.41667 102.66500 "/>
<path d="M129.41667 102.66500 L129.27381 102.71262 "/>
<path d="M129.27381 102.71262 L129.03571 102.71262 "/>
</g><text x="126.75000" y="105.31250" textLength="2.12738" font-size="1.33333" lengthAdjust="spacingAndGlyphs" text-anchor="start" opacity="0">D2</text>
<g class="stroked-text"><desc>D2</desc>
<path d="M126.98810 105.27512 L126.98810 104.27512 "/>
<path d="M126.98810 104.27512 L127.22619 104.27512 "/>
<path d="M127.22619 104.27512 L127.36905 104.32274 "/>
<path d="M127.36905 104.32274 L127.46428 104.41798 "/>
<path d="M127.46428 104.41798 L127.51190 104.51321 "/>
<path d="M127.51190 104.51321 L127.55952 104.70369 "/>
<path d="M127.55952 104.70369 L127.55952 104.84655 "/>
<path d="M127.55952 104.84655 L127.51190 105.03702 "/>
<path d="M127.51190 105.03702 L127.46428 105.13226 "/>
<path d="M127.46428 105.13226 L127.36905 105.22750 "/>
<path d="M127.36905 105.22750 L127.22619 105.27512 "/>
<path d="M127.22619 105.27512 L126.98810 105.27512 "/>
<path d="M127.94048 104.37036 L127.98810 104.32274 "/>
<path d="M127.98810 104.32274 L128.08333 104.27512 "/>
<path d="M128.08333 104.27512 L128.32143 104.27512 "/>
<path d="M128.32143 104.27512 L128.41667 104.32274 "/>
<path d="M128.41667 104.32274 L128.46428 104.37036 "/>
<path d="M128.46428 104.37036 L128.51190 104.46559 "/>
<path d="M128.51190 104.46559 L128.51190 104.56083 "/>
<path d="M128.51190 104.56083 L128.46428 104.70369 "/>
<path d="M128.46428 104.70369 L127.89286 105.27512 "/>
<path d="M127.89286 105.27512 L128.51190 105.27512 "/>
</g><text x="126.75000" y="113.00000" textLength="2.93690" font-size="1.33333" lengthAdjust="spacingAndGlyphs" text-anchor="start" opacity="0">12V</text>
<g class="stroked-text"><desc>12V</desc>
<path d="M127.51190 112.96262 L126.94048 112.96262 "/>
<path d="M127.22619 112.96262 L127.22619 111.96262 "/>
<path d="M127.22619 111.96262 L127.13095 112.10548 "/>
<path d="M127.13095 112.10548 L127.03571 112.20071 "/>
<path d="M127.03571 112.20071 L126.94048 112.24833 "/>
<path d="M127.89286 112.05786 L127.94048 112.01024 "/>
<path d="M127.94048 112.01024 L128.03571 111.96262 "/>
<path d="M128.03571 111.96262 L128.27381 111.96262 "/>
<path d="M128.27381 111.96262 L128.36905 112.01024 "/>
<path d="M128.36905 112.01024 L128.41667 112.05786 "/>
<path d="M128.41667 112.05786 L128.46428 112.15309 "/>
<path d="M128.46428 112.15309 L128.46428 112.24833 "/>
<path d="M128.46428 112.24833 L128.41667 112.39119 "/>
<path d="M128.41667 112.39119 L127.84524 112.96262 "/>
<path d="M127.84524 112.96262 L128.46428 112.96262 "/>
<path d="M128.75000 111.96262 L129.08333 112.96262 "/>
<path d="M129.08333 112.96262 L129.41667 111.96262 "/>
</g><text x="113.25000" y="102.75000" textLength="2.93690" font-size="1.33333" lengthAdjust="spacingAndGlyphs" text-anchor="end" opacity="0">12V</text>
<g class="stroked-text"><desc>12V</desc>
<path d="M111.25000 102.71262 L110.67857 102.71262 "/>
<path d="M110.96428 102.71262 L110.96428 101.71262 "/>
<path d="M110.96428 101.71262 L110.86905 101.85548 "/>
<path d="M110.86905 101.85548 L110.77381 101.95071 "/>
<path d="M110.77381 101.95071 L110.67857 101.99833 "/>
<path d="M111.63095 101.80786 L111.67857 101.76024 "/>
<path d="M111.67857 101.76024 L111.77381 101.71262 "/>
<path d="M111.77381 101.71262 L112.01190 101.71262 "/>
<path d="M112.01190 101.71262 L112.10714 101.76024 "/>
<path d="M112.10714 101.76024 L112.15476 101.80786 "/>
<path d="M112.15476 101.80786 L112.20238 101.90309 "/>
<path d="M112.20238 101.90309 L112.20238 101.99833 "/>
<path d="M112.20238 101.99833 L112.15476 102.14119 "/>
<path d="M112.15476 102.14119 L111.58333 102.71262 "/>
<path d="M111.58333 102.71262 L112.20238 102.71262 "/>
<path d="M112.48810 101.71262 L112.82143 102.71262 "/>
<path d="M112.82143 102.71262 L113.15476 101.71262 "/>
</g><g transform="rotate(-90.000000 106.35000 107.29500)">
<text x="106.35000" y="107.79500" textLength="2.12738" font-size="1.33333" lengthAdjust="spacingAndGlyphs" text-anchor="middle" opacity="0">D3</text>
</g>
<g class="stroked-text"><desc>D3</desc>
<path d="M106.81262 108.03309 L105.81262 108.03309 "/>
<path d="M105.81262 108.03309 L105.81262 107.79500 "/>
<path d="M105.81262 107.79500 L105.86024 107.65214 "/>
<path d="M105.86024 107.65214 L105.95548 107.55690 "/>
<path d="M105.95548 107.55690 L106.05071 107.50928 "/>
<path d="M106.05071 107.50928 L106.24119 107.46167 "/>
<path d="M106.24119 107.46167 L106.38405 107.46167 "/>
<path d="M106.38405 107.46167 L106.57452 107.50928 "/>
<path d="M106.57452 107.50928 L106.66976 107.55690 "/>
<path d="M106.66976 107.55690 L106.76500 107.65214 "/>
<path d="M106.76500 107.65214 L106.81262 107.79500 "/>
<path d="M106.81262 107.79500 L106.81262 108.03309 "/>
<path d="M105.81262 107.12833 L105.81262 106.50928 "/>
<path d="M105.81262 106.50928 L106.19357 106.84262 "/>
<path d="M106.19357 106.84262 L106.19357 106.69976 "/>
<path d="M106.19357 106.69976 L106.24119 106.60452 "/>
<path d="M106.24119 106.60452 L106.28881 106.55690 "/>
<path d="M106.28881 106.55690 L106.38405 106.50928 "/>
<path d="M106.38405 106.50928 L106.62214 106.50928 "/>
<path d="M106.62214 106.50928 L106.71738 106.55690 "/>
<path d="M106.71738 106.55690 L106.76500 106.60452 "/>
<path d="M106.76500 106.60452 L106.81262 106.69976 "/>
<path d="M106.81262 106.69976 L106.81262 106.98547 "/>
<path d="M106.81262 106.98547 L106.76500 107.08071 "/>
<path d="M106.76500 107.08071 L106.71738 107.12833 "/>
</g><g transform="rotate(-90.000000 123.35000 107.29500)">
<text x="123.35000" y="107.79500" textLength="2.12738" font-size="1.33333" lengthAdjust="spacingAndGlyphs" text-anchor="middle" opacity="0">D2</text>
</g>
<g class="stroked-text"><desc>D2</desc>
<path d="M123.81262 108.03309 L122.81262 108.03309 "/>
<path d="M122.81262 108.03309 L122.81262 107.79500 "/>
<path d="M122.81262 107.79500 L122.86024 107.65214 "/>
<path d="M122.86024 107.65214 L122.95548 107.55690 "/>
<path d="M122.95548 107.55690 L123.05071 107.50928 "/>
<path d="M123.05071 107.50928 L123.24119 107.46167 "/>
<path d="M123.24119 107.46167 L123.38405 107.46167 "/>
<path d="M123.38405 107.46167 L123.57452 107.50928 "/>
<path d="M123.57452 107.50928 L123.66976 107.55690 "/>
<path d="M123.66976 107.55690 L123.76500 107.65214 "/>
<path d="M123.76500 107.65214 L123.81262 107.79500 "/>
<path d="M123.81262 107.79500 L123.81262 108.03309 "/>
<path d="M122.90786 107.08071 L122.86024 107.03309 "/>
<path d="M122.86024 107.03309 L122.81262 106.93786 "/>
<path d="M122.81262 106.93786 L122.81262 106.69976 "/>
<path d="M122.81262 106.69976 L122.86024 106.60452 "/>
<path d="M122.86024 106.60452 L122.90786 106.55690 "/>
<path d="M122.90786 106.55690 L123.00309 106.50928 "/>
<path d="M123.00309 106.50928 L123.09833 106.50928 "/>
<path d="M123.09833 106.50928 L123.24119 106.55690 "/>
<path d="M123.24119 106.55690 L123.81262 107.12833 "/>
<path d="M123.81262 107.12833 L123.81262 106.50928 "/>
</g><g transform="rotate(-90.000000 133.55000 107.29500)">
<text x="133.55000" y="107.79500" textLength="2.12738" font-size="1.33333" lengthAdjust="spacingAndGlyphs" text-anchor="middle" opacity="0">D1</text>
</g>
<g class="stroked-text"><desc>D1</desc>
<path d="M134.01262 108.03309 L133.01262 108.03309 "/>
<path d="M133.01262 108.03309 L133.01262 107.79500 "/>
<path d="M133.01262 107.79500 L133.06024 107.65214 "/>
<path d="M133.06024 107.65214 L133.15548 107.55690 "/>
<path d="M133.15548 107.55690 L133.25071 107.50928 "/>
<path d="M133.25071 107.50928 L133.44119 107.46167 "/>
<path d="M133.44119 107.46167 L133.58405 107.46167 "/>
<path d="M133.58405 107.46167 L133.77452 107.50928 "/>
<path d="M133.77452 107.50928 L133.86976 107.55690 "/>
<path d="M133.86976 107.55690 L133.96500 107.65214 "/>
<path d="M133.96500 107.65214 L134.01262 107.79500 "/>
<path d="M134.01262 107.79500 L134.01262 108.03309 "/>
<path d="M134.01262 106.50928 L134.01262 107.08071 "/>
<path d="M134.01262 106.79500 L133.01262 106.79500 "/>
<path d="M133.01262 106.79500 L133.15548 106.89024 "/>
<path d="M133.15548 106.89024 L133.25071 106.98547 "/>
<path d="M133.25071 106.98547 L133.29833 107.08071 "/>
</g></g>
<g style="fill-opacity: 0.0;stroke-width: 0.12000;stroke-opacity: 1;stroke-linecap: round;stroke-linejoin: round">
<path d="M100.20000 110.94500 L101.35000 110.94500 "/>
<path d="M100.20000 103.64500 L100.20000 110.94500 "/>
<path d="M105.70000 103.64500 L105.70000 110.94500 "/>
<path d="M117.20000 110.94500 L118.35000 110.94500 "/>
<path d="M117.20000 103.64500 L117.20000 110.94500 "/>
<path d="M122.70000 103.64500 L122.70000 110.94500 "/>
<path d="M139.70000 103.64500 L138.55000 103.64500 "/>
<path d="M139.70000 110.94500 L139.70000 103.64500 "/>
<path d="M134.20000 110.94500 L134.20000 103.64500 "/>
</g> 
</g><g id="substrate-outline" style="fill:#000000; stroke:#000000; stroke-width: 0.15"><g style="fill-opacity: 0.0;stroke-opacity: 1;stroke-linecap: round;stroke-linejoin: round">
<path d="M100.00000 114.25000 L100.00000 100.00000 "/>
<path d="M140.00000 100.00000 L140.00000 114.25000 "/>
<path d="M100.00000 114.25000 L140.00000 114.25000 "/>
<path d="M100.00000 100.00000 L140.00000 100.00000 "/>
</g> 
<path d="M -0.5 0.0 A 0.5 0.5 0 1 1 0.5 0.0 L 0.5 -0.0 A 0.5 0.5 0 1 1 -0.5 -0.0 Z" transform="translate(114.95 112.38) rotate(-0.0)"/><path d="M -0.5 0.0 A 0.5 0.5 0 1 1 0.5 0.0 L 0.5 -0.0 A 0.5 0.5 0 1 1 -0.5 -0.0 Z" transform="translate(114.95 109.84) rotate(-0.0)"/><path d="M -0.5 0.0 A 0.5 0.5 0 1 1 0.5 0.0 L 0.5 -0.0 A 0.5 0.5 0 1 1 -0.5 -0.0 Z" transform="translate(114.95 107.3) rotate(-0.0)"/><path d="M -0.5 0.0 A 0.5 0.5 0 1 1 0.5 0.0 L 0.5 -0.0 A 0.5 0.5 0 1 1 -0.5 -0.0 Z" transform="translate(114.95 104.76) rotate(-0.0)"/><path d="M -0.5 0.0 A 0.5 0.5 0 1 1 0.5 0.0 L 0.5 -0.0 A 0.5 0.5 0 1 1 -0.5 -0.0 Z" transform="translate(114.95 102.22) rotate(-0.0)"/><path d="M -0.5 0.0 A 0.5 0.5 0 1 1 0.5 0.0 L 0.5 -0.0 A 0.5 0.5 0 1 1 -0.5 -0.0 Z" transform="translate(124.95 102.22) rotate(-180.0)"/><path d="M -0.5 0.0 A 0.5 0.5 0 1 1 0.5 0.0 L 0.5 -0.0 A 0.5 0.5 0 1 1 -0.5 -0.0 Z" transform="translate(124.95 104.76) rotate(-180.0)"/><path d="M -0.5 0.0 A 0.5 0.5 0 1 1 0.5 0.0 L 0.5 -0.0 A 0.5 0.5 0 1 1 -0.5 -0.0 Z" transform="translate(124.95 107.3) rotate(-180.0)"/><path d="M -0.5 0.0 A 0.5 0.5 0 1 1 0.5 0.0 L 0.5 -0.0 A 0.5 0.5 0 1 1 -0.5 -0.0 Z" transform="translate(124.95 109.84) rotate(-180.0)"/><path d="M -0.5 0.0 A 0.5 0.5 0 1 1 0.5 0.0 L 0.5 -0.0 A 0.5 0.5 0 1 1 -0.5 -0.0 Z" transform="translate(124.95 112.38) rotate(-180.0)"/></g></g></g></svg>